<svg width="18" height="18" viewBox="0 0 32 32" fill="none" xmlns="http://www.w3.org/2000/svg">
<path d="M17.9996 13.0001V8.00007C17.9996 7.73485 18.1049 7.4805 18.2925 7.29296C18.48 7.10542 18.7344 7.00007 18.9996 7.00007C19.2648 7.00007 19.5192 7.10542 19.7067 7.29296C19.8942 7.4805 19.9996 7.73485 19.9996 8.00007V10.5863L25.2921 5.29257C25.4797 5.10493 25.7342 4.99951 25.9996 4.99951C26.2649 4.99951 26.5194 5.10493 26.7071 5.29257C26.8947 5.48021 27.0001 5.7347 27.0001 6.00007C27.0001 6.26543 26.8947 6.51993 26.7071 6.70757L21.4133 12.0001H23.9996C24.2648 12.0001 24.5192 12.1054 24.7067 12.293C24.8942 12.4805 24.9996 12.7349 24.9996 13.0001C24.9996 13.2653 24.8942 13.5196 24.7067 13.7072C24.5192 13.8947 24.2648 14.0001 23.9996 14.0001H18.9996C18.7344 14.0001 18.48 13.8947 18.2925 13.7072C18.1049 13.5196 17.9996 13.2653 17.9996 13.0001ZM12.9996 18.0001H7.99958C7.73436 18.0001 7.48001 18.1054 7.29247 18.293C7.10494 18.4805 6.99958 18.7349 6.99958 19.0001C6.99958 19.2653 7.10494 19.5196 7.29247 19.7072C7.48001 19.8947 7.73436 20.0001 7.99958 20.0001H10.5858L5.29208 25.2926C5.10444 25.4802 4.99902 25.7347 4.99902 26.0001C4.99902 26.2654 5.10444 26.5199 5.29208 26.7076C5.47972 26.8952 5.73422 27.0006 5.99958 27.0006C6.26494 27.0006 6.51944 26.8952 6.70708 26.7076L11.9996 21.4138V24.0001C11.9996 24.2653 12.1049 24.5196 12.2925 24.7072C12.48 24.8947 12.7344 25.0001 12.9996 25.0001C13.2648 25.0001 13.5191 24.8947 13.7067 24.7072C13.8942 24.5196 13.9996 24.2653 13.9996 24.0001V19.0001C13.9996 18.7349 13.8942 18.4805 13.7067 18.293C13.5191 18.1054 13.2648 18.0001 12.9996 18.0001ZM21.4133 20.0001H23.9996C24.2648 20.0001 24.5192 19.8947 24.7067 19.7072C24.8942 19.5196 24.9996 19.2653 24.9996 19.0001C24.9996 18.7349 24.8942 18.4805 24.7067 18.293C24.5192 18.1054 24.2648 18.0001 23.9996 18.0001H18.9996C18.7344 18.0001 18.48 18.1054 18.2925 18.293C18.1049 18.4805 17.9996 18.7349 17.9996 19.0001V24.0001C17.9996 24.2653 18.1049 24.5196 18.2925 24.7072C18.48 24.8947 18.7344 25.0001 18.9996 25.0001C19.2648 25.0001 19.5192 24.8947 19.7067 24.7072C19.8942 24.5196 19.9996 24.2653 19.9996 24.0001V21.4138L25.2921 26.7076C25.385 26.8005 25.4953 26.8742 25.6167 26.9245C25.7381 26.9747 25.8682 27.0006 25.9996 27.0006C26.131 27.0006 26.2611 26.9747 26.3825 26.9245C26.5039 26.8742 26.6142 26.8005 26.7071 26.7076C26.8 26.6147 26.8737 26.5044 26.924 26.383C26.9743 26.2616 27.0001 26.1315 27.0001 26.0001C27.0001 25.8687 26.9743 25.7386 26.924 25.6172C26.8737 25.4958 26.8 25.3855 26.7071 25.2926L21.4133 20.0001ZM12.9996 7.00007C12.7344 7.00007 12.48 7.10542 12.2925 7.29296C12.1049 7.4805 11.9996 7.73485 11.9996 8.00007V10.5863L6.70708 5.29257C6.51944 5.10493 6.26494 4.99951 5.99958 4.99951C5.73422 4.99951 5.47972 5.10493 5.29208 5.29257C5.10444 5.48021 4.99902 5.7347 4.99902 6.00007C4.99902 6.26543 5.10444 6.51993 5.29208 6.70757L10.5858 12.0001H7.99958C7.73436 12.0001 7.48001 12.1054 7.29247 12.293C7.10494 12.4805 6.99958 12.7349 6.99958 13.0001C6.99958 13.2653 7.10494 13.5196 7.29247 13.7072C7.48001 13.8947 7.73436 14.0001 7.99958 14.0001H12.9996C13.2648 14.0001 13.5191 13.8947 13.7067 13.7072C13.8942 13.5196 13.9996 13.2653 13.9996 13.0001V8.00007C13.9996 7.73485 13.8942 7.4805 13.7067 7.29296C13.5191 7.10542 13.2648 7.00007 12.9996 7.00007Z" fill="white"/>
</svg>
