<svg width="18" height="18" viewBox="0 0 18 18" fill="none" xmlns="http://www.w3.org/2000/svg">
<path d="M4.67762 9.67225C4.24927 10.1006 3.95756 10.6463 3.83938 11.2405C3.7212 11.8346 3.78185 12.4505 4.01367 13.0101C4.24549 13.5698 4.63807 14.0481 5.14175 14.3847C5.64544 14.7212 6.23761 14.9009 6.84339 14.9009C7.44916 14.9009 8.04134 14.7212 8.54502 14.3847C9.0487 14.0481 9.44128 13.5698 9.6731 13.0101C9.90492 12.4505 9.96557 11.8346 9.84739 11.2405C9.72921 10.6463 9.4375 10.1006 9.00915 9.67225C8.43476 9.09785 7.65571 8.77516 6.84339 8.77516C6.03107 8.77516 5.25201 9.09785 4.67762 9.67225ZM8.14285 13.1375C7.88584 13.3945 7.55839 13.5695 7.20191 13.6404C6.84543 13.7113 6.47592 13.6749 6.14012 13.5358C5.80432 13.3968 5.51731 13.1612 5.31538 12.859C5.11345 12.5568 5.00567 12.2015 5.00567 11.838C5.00567 11.4746 5.11345 11.1192 5.31538 10.817C5.51731 10.5148 5.80432 10.2793 6.14012 10.1402C6.47592 10.0011 6.84542 9.9647 7.20191 10.0356C7.55839 10.1065 7.88584 10.2815 8.14285 10.5386C8.48749 10.8832 8.6811 11.3506 8.6811 11.838C8.6811 12.3254 8.48749 12.7928 8.14285 13.1375ZM12.5204 9.5331C12.7743 10.1592 12.9228 10.8229 12.9601 11.4975C12.9664 11.6581 12.9093 11.8148 12.8011 11.9337C12.6929 12.0527 12.5423 12.1243 12.3818 12.1332C12.2213 12.1421 12.0637 12.0875 11.943 11.9812C11.8224 11.8749 11.7484 11.7255 11.7369 11.5651C11.6707 10.3613 11.1626 9.22432 10.3101 8.37182C9.45763 7.51933 8.3206 7.01129 7.11681 6.945C7.03561 6.9418 6.95586 6.92248 6.8822 6.88816C6.80854 6.85383 6.74245 6.8052 6.68777 6.74508C6.63309 6.68497 6.59092 6.61457 6.56371 6.538C6.5365 6.46142 6.5248 6.3802 6.52929 6.29906C6.53378 6.21792 6.55437 6.13849 6.58986 6.06538C6.62535 5.99228 6.67503 5.92697 6.73601 5.87325C6.79699 5.81953 6.86805 5.77849 6.94504 5.7525C7.02204 5.72651 7.10344 5.71611 7.18449 5.72189C8.34344 5.78696 9.46011 6.17966 10.4047 6.85433C11.3493 7.529 12.0829 8.45792 12.5204 9.5331ZM13.3407 5.34071C15.0444 7.03915 16.0112 9.33985 16.0322 11.7454C16.0349 11.8271 16.0213 11.9084 15.9921 11.9847C15.963 12.061 15.9189 12.1306 15.8624 12.1896C15.8059 12.2486 15.7382 12.2957 15.6632 12.3281C15.5883 12.3605 15.5076 12.3776 15.4259 12.3784C15.3443 12.3792 15.2633 12.3637 15.1877 12.3327C15.1121 12.3018 15.0435 12.256 14.9859 12.1981C14.9283 12.1403 14.8828 12.0715 14.8522 11.9958C14.8215 11.9201 14.8063 11.839 14.8075 11.7573C14.788 9.67313 13.9514 7.67978 12.4776 6.20596C11.0038 4.73213 9.01044 3.89555 6.92623 3.87611C6.76353 3.87482 6.60801 3.80895 6.49388 3.69299C6.37975 3.57703 6.31635 3.42048 6.31765 3.25778C6.31894 3.09508 6.38481 2.93956 6.50077 2.82543C6.61673 2.7113 6.77328 2.64791 6.93597 2.6492C9.34156 2.67018 11.6423 3.63702 13.3407 5.34071Z" fill="white"/>
</svg>
