<svg xmlns="http://www.w3.org/2000/svg" width="31" height="30" viewBox="0 0 31 30" fill="none">
<path d="M15.5 0.375C12.6075 0.375 9.77986 1.23274 7.37479 2.83976C4.96972 4.44677 3.0952 6.73089 1.98827 9.40325C0.881337 12.0756 0.591713 15.0162 1.15602 17.8532C1.72033 20.6902 3.11323 23.2961 5.15857 25.3414C7.20391 27.3868 9.80984 28.7797 12.6468 29.344C15.4838 29.9083 18.4244 29.6187 21.0968 28.5117C23.7691 27.4048 26.0532 25.5303 27.6602 23.1252C29.2673 20.7201 30.125 17.8926 30.125 15C30.1209 11.1225 28.5788 7.40492 25.8369 4.66309C23.0951 1.92125 19.3775 0.379095 15.5 0.375ZM21.9209 12.4209L14.0459 20.2959C13.9415 20.4005 13.8174 20.4835 13.6808 20.5401C13.5442 20.5967 13.3978 20.6259 13.25 20.6259C13.1022 20.6259 12.9558 20.5967 12.8192 20.5401C12.6826 20.4835 12.5586 20.4005 12.4541 20.2959L9.07907 16.9209C8.86797 16.7098 8.74938 16.4235 8.74938 16.125C8.74938 15.8265 8.86797 15.5402 9.07907 15.3291C9.29016 15.118 9.57647 14.9994 9.87501 14.9994C10.1735 14.9994 10.4598 15.118 10.6709 15.3291L13.25 17.9095L20.3291 10.8291C20.4336 10.7245 20.5577 10.6416 20.6942 10.5851C20.8308 10.5285 20.9772 10.4994 21.125 10.4994C21.2728 10.4994 21.4192 10.5285 21.5558 10.5851C21.6923 10.6416 21.8164 10.7245 21.9209 10.8291C22.0255 10.9336 22.1084 11.0577 22.1649 11.1942C22.2215 11.3308 22.2506 11.4772 22.2506 11.625C22.2506 11.7728 22.2215 11.9192 22.1649 12.0558C22.1084 12.1923 22.0255 12.3164 21.9209 12.4209Z" fill="#08B94E"/>
</svg>