<svg width="16" height="16" viewBox="0 0 16 16" fill="none" xmlns="http://www.w3.org/2000/svg">
<path d="M3.37 2.16379C3.32609 2.1143 3.27279 2.07401 3.2132 2.04526C3.15361 2.01651 3.0889 1.99988 3.02283 1.99633C2.95676 1.99277 2.89064 2.00237 2.82831 2.02455C2.76597 2.04674 2.70866 2.08108 2.65969 2.12558C2.61073 2.17008 2.57108 2.22385 2.54305 2.28379C2.51502 2.34372 2.49917 2.40863 2.4964 2.47473C2.49364 2.54084 2.50403 2.60684 2.52696 2.6689C2.54989 2.73097 2.58492 2.78786 2.63 2.83629L5.0825 5.53442L5.07875 5.54192C4.88708 5.51418 4.69367 5.50019 4.5 5.50004C3.43913 5.50004 2.42172 5.92147 1.67157 6.67161C0.921427 7.42176 0.5 8.43918 0.5 9.50004C0.5 10.5609 0.921427 11.5783 1.67157 12.3285C2.42172 13.0786 3.43913 13.5 4.5 13.5H10C10.6798 13.5013 11.3539 13.3756 11.9875 13.1294L12.63 13.8363C12.6739 13.8858 12.7272 13.9261 12.7868 13.9548C12.8464 13.9836 12.9111 14.0002 12.9772 14.0038C13.0432 14.0073 13.1094 13.9977 13.1717 13.9755C13.234 13.9533 13.2913 13.919 13.3403 13.8745C13.3893 13.83 13.4289 13.7762 13.4569 13.7163C13.485 13.6564 13.5008 13.5915 13.5036 13.5254C13.5064 13.4592 13.496 13.3932 13.473 13.3312C13.4501 13.2691 13.4151 13.2122 13.37 13.1638L3.37 2.16379ZM10 12.5H4.5C3.70435 12.5 2.94129 12.184 2.37868 11.6214C1.81607 11.0588 1.5 10.2957 1.5 9.50004C1.5 8.70439 1.81607 7.94133 2.37868 7.37872C2.94129 6.81611 3.70435 6.50004 4.5 6.50004C4.56875 6.50004 4.6375 6.50004 4.70625 6.50754C4.56967 6.99329 4.50027 7.49546 4.5 8.00004C4.5 8.13265 4.55268 8.25983 4.64645 8.3536C4.74021 8.44736 4.86739 8.50004 5 8.50004C5.13261 8.50004 5.25979 8.44736 5.35355 8.3536C5.44732 8.25983 5.5 8.13265 5.5 8.00004C5.50018 7.43216 5.60747 6.8694 5.81625 6.34129L11.2537 12.3225C10.8463 12.4408 10.4242 12.5005 10 12.5ZM15.5 8.00004C15.5008 9.35133 15.0035 10.6555 14.1031 11.6632C14.013 11.7534 13.8917 11.8059 13.7642 11.8097C13.6367 11.8135 13.5125 11.7684 13.4172 11.6836C13.3218 11.5989 13.2624 11.4809 13.2512 11.3538C13.24 11.2267 13.2778 11.1002 13.3569 11C14.0996 10.1705 14.5084 9.09502 14.5043 7.98155C14.5002 6.86808 14.0833 5.79568 13.3344 4.97168C12.5855 4.14768 11.5577 3.6306 10.4497 3.5204C9.34169 3.41019 8.23216 3.7147 7.33563 4.37504C7.28273 4.41395 7.22268 4.44205 7.15892 4.45775C7.09517 4.47345 7.02894 4.47644 6.96402 4.46654C6.89911 4.45665 6.83678 4.43406 6.78059 4.40008C6.72441 4.36609 6.67547 4.32138 6.63656 4.26848C6.55799 4.16165 6.52508 4.02798 6.54506 3.89688C6.56505 3.76578 6.63629 3.64799 6.74312 3.56942C7.56243 2.96735 8.53259 2.60417 9.54586 2.52021C10.5591 2.43626 11.5758 2.63482 12.483 3.09384C13.3903 3.55286 14.1525 4.25437 14.6851 5.12045C15.2177 5.98654 15.4997 6.98331 15.5 8.00004Z" fill="#667085"/>
</svg>
