<svg xmlns="http://www.w3.org/2000/svg" width="18" height="18" viewBox="0 0 18 18" fill="none">
<path d="M9 1.6875C7.55373 1.6875 6.13993 2.11637 4.9374 2.91988C3.73486 3.72339 2.7976 4.86544 2.24413 6.20163C1.69067 7.53781 1.54586 9.00811 1.82801 10.4266C2.11017 11.8451 2.80661 13.148 3.82928 14.1707C4.85196 15.1934 6.15492 15.8898 7.57341 16.172C8.99189 16.4541 10.4622 16.3093 11.7984 15.7559C13.1346 15.2024 14.2766 14.2651 15.0801 13.0626C15.8836 11.8601 16.3125 10.4463 16.3125 9C16.3105 7.06123 15.5394 5.20246 14.1685 3.83154C12.7975 2.46063 10.9388 1.68955 9 1.6875ZM9 15.1875C7.77623 15.1875 6.57994 14.8246 5.56241 14.1447C4.54488 13.4648 3.75182 12.4985 3.2835 11.3679C2.81518 10.2372 2.69265 8.99314 2.93139 7.79288C3.17014 6.59262 3.75944 5.49011 4.62478 4.62478C5.49012 3.75944 6.59262 3.17014 7.79288 2.93139C8.99314 2.69265 10.2372 2.81518 11.3679 3.2835C12.4985 3.75181 13.4648 4.54488 14.1447 5.56241C14.8246 6.57994 15.1875 7.77623 15.1875 9C15.1856 10.6405 14.5331 12.2132 13.3732 13.3732C12.2132 14.5331 10.6405 15.1856 9 15.1875ZM12.1233 5.12156L7.62328 7.37156C7.51449 7.42621 7.42622 7.51449 7.37157 7.62328L5.12157 12.1233C5.07864 12.2091 5.05836 12.3044 5.06267 12.4002C5.06697 12.4961 5.09572 12.5892 5.14617 12.6708C5.19662 12.7524 5.2671 12.8197 5.35091 12.8664C5.43472 12.9131 5.52907 12.9376 5.625 12.9375C5.71233 12.9374 5.79845 12.9172 5.87672 12.8784L10.3767 10.6284C10.4855 10.5738 10.5738 10.4855 10.6284 10.3767L12.8784 5.87672C12.9315 5.77106 12.95 5.65136 12.9311 5.53462C12.9123 5.41789 12.8572 5.31006 12.7736 5.22644C12.6899 5.14283 12.5821 5.0877 12.4654 5.06887C12.3486 5.05004 12.2289 5.06848 12.1233 5.12156ZM9.70313 9.70312L6.88289 11.1171L8.29688 8.29688L11.1199 6.8857L9.70313 9.70312Z" fill="white"/>
</svg>