<svg width="18" height="18" viewBox="0 0 18 18" fill="rgb(51, 181, 229)" xmlns="http://www.w3.org/2000/svg">
<path d="M16.3125 8.4375H15.7261C15.5911 6.84805 14.8984 5.35753 13.7704 4.22957C12.6425 3.10161 11.152 2.40889 9.5625 2.27391V1.6875C9.5625 1.53832 9.50324 1.39524 9.39775 1.28975C9.29226 1.18426 9.14918 1.125 9 1.125C8.85082 1.125 8.70774 1.18426 8.60225 1.28975C8.49676 1.39524 8.4375 1.53832 8.4375 1.6875V2.27391C6.84805 2.40889 5.35753 3.10161 4.22957 4.22957C3.10161 5.35753 2.40889 6.84805 2.27391 8.4375H1.6875C1.53832 8.4375 1.39524 8.49676 1.28975 8.60225C1.18426 8.70774 1.125 8.85082 1.125 9C1.125 9.14918 1.18426 9.29226 1.28975 9.39775C1.39524 9.50324 1.53832 9.5625 1.6875 9.5625H2.27391C2.40889 11.152 3.10161 12.6425 4.22957 13.7704C5.35753 14.8984 6.84805 15.5911 8.4375 15.7261V16.3125C8.4375 16.4617 8.49676 16.6048 8.60225 16.7102C8.70774 16.8157 8.85082 16.875 9 16.875C9.14918 16.875 9.29226 16.8157 9.39775 16.7102C9.50324 16.6048 9.5625 16.4617 9.5625 16.3125V15.7261C11.152 15.5911 12.6425 14.8984 13.7704 13.7704C14.8984 12.6425 15.5911 11.152 15.7261 9.5625H16.3125C16.4617 9.5625 16.6048 9.50324 16.7102 9.39775C16.8157 9.29226 16.875 9.14918 16.875 9C16.875 8.85082 16.8157 8.70774 16.7102 8.60225C16.6048 8.49676 16.4617 8.4375 16.3125 8.4375ZM9.5625 14.5969V14.0625C9.5625 13.9133 9.50324 13.7702 9.39775 13.6648C9.29226 13.5593 9.14918 13.5 9 13.5C8.85082 13.5 8.70774 13.5593 8.60225 13.6648C8.49676 13.7702 8.4375 13.9133 8.4375 14.0625V14.5969C7.14718 14.4652 5.94176 13.8925 5.02463 12.9754C4.10749 12.0582 3.53479 10.8528 3.40313 9.5625H3.9375C4.08668 9.5625 4.22976 9.50324 4.33525 9.39775C4.44074 9.29226 4.5 9.14918 4.5 9C4.5 8.85082 4.44074 8.70774 4.33525 8.60225C4.22976 8.49676 4.08668 8.4375 3.9375 8.4375H3.40313C3.53479 7.14718 4.10749 5.94176 5.02463 5.02463C5.94176 4.10749 7.14718 3.53479 8.4375 3.40313V3.9375C8.4375 4.08668 8.49676 4.22976 8.60225 4.33525C8.70774 4.44074 8.85082 4.5 9 4.5C9.14918 4.5 9.29226 4.44074 9.39775 4.33525C9.50324 4.22976 9.5625 4.08668 9.5625 3.9375V3.40313C10.8528 3.53479 12.0582 4.10749 12.9754 5.02463C13.8925 5.94176 14.4652 7.14718 14.5969 8.4375H14.0625C13.9133 8.4375 13.7702 8.49676 13.6648 8.60225C13.5593 8.70774 13.5 8.85082 13.5 9C13.5 9.14918 13.5593 9.29226 13.6648 9.39775C13.7702 9.50324 13.9133 9.5625 14.0625 9.5625H14.5969C14.4652 10.8528 13.8925 12.0582 12.9754 12.9754C12.0582 13.8925 10.8528 14.4652 9.5625 14.5969ZM9 6.1875C8.44374 6.1875 7.89997 6.35245 7.43746 6.66149C6.97495 6.97053 6.61446 7.40979 6.40159 7.9237C6.18872 8.43762 6.13302 9.00312 6.24154 9.54869C6.35006 10.0943 6.61793 10.5954 7.01126 10.9887C7.4046 11.3821 7.90574 11.6499 8.45131 11.7585C8.99688 11.867 9.56238 11.8113 10.0763 11.5984C10.5902 11.3855 11.0295 11.0251 11.3385 10.5625C11.6476 10.1 11.8125 9.55626 11.8125 9C11.8125 8.25408 11.5162 7.53871 10.9887 7.01126C10.4613 6.48382 9.74592 6.1875 9 6.1875ZM9 10.6875C8.66624 10.6875 8.33998 10.5885 8.06248 10.4031C7.78497 10.2177 7.56868 9.95413 7.44095 9.64578C7.31323 9.33743 7.27981 8.99813 7.34492 8.67079C7.41004 8.34344 7.57076 8.04276 7.80676 7.80676C8.04276 7.57076 8.34344 7.41004 8.67079 7.34492C8.99813 7.27981 9.33743 7.31323 9.64578 7.44095C9.95413 7.56868 10.2177 7.78497 10.4031 8.06248C10.5885 8.33998 10.6875 8.66624 10.6875 9C10.6875 9.44755 10.5097 9.87678 10.1932 10.1932C9.87678 10.5097 9.44755 10.6875 9 10.6875Z" fill="rgb(51, 181, 229)"/>
</svg>
