<svg width="16" height="16" viewBox="0 0 16 16" fill="none" xmlns="http://www.w3.org/2000/svg">
<path d="M15.1644 6.0273L3.66438 2.0273C3.589 2.00107 3.50844 1.99325 3.42943 2.00452C3.35042 2.01578 3.27525 2.0458 3.21022 2.09205C3.14518 2.13831 3.09216 2.19946 3.05558 2.2704C3.01901 2.34133 2.99995 2.41999 3 2.4998V13.4998C3 13.6324 3.05268 13.7596 3.14645 13.8534C3.24021 13.9471 3.36739 13.9998 3.5 13.9998C3.63261 13.9998 3.75979 13.9471 3.85355 13.8534C3.94732 13.7596 4 13.6324 4 13.4998V10.8554L15.1644 6.9723C15.2626 6.9383 15.3478 6.87452 15.4081 6.78983C15.4684 6.70514 15.5008 6.60377 15.5008 6.4998C15.5008 6.39584 15.4684 6.29446 15.4081 6.20977C15.3478 6.12509 15.2626 6.06131 15.1644 6.0273ZM4 9.79668V3.20293L13.4781 6.4998L4 9.79668Z" fill="white"/>
</svg>
