<svg width="11" height="14" viewBox="0 0 11 14" fill="none" xmlns="http://www.w3.org/2000/svg">
<path d="M8.375 2.48423C7.60299 1.59263 6.73409 0.789768 5.78438 0.0904847C5.70031 0.0315916 5.60015 0 5.4975 0C5.39485 0 5.2947 0.0315916 5.21063 0.0904847C4.26266 0.790059 3.39545 1.59291 2.625 2.48423C0.906875 4.45736 0 6.53736 0 8.49986C0 9.95855 0.579463 11.3575 1.61091 12.3889C2.64236 13.4204 4.04131 13.9999 5.5 13.9999C6.95869 13.9999 8.35764 13.4204 9.38909 12.3889C10.4205 11.3575 11 9.95855 11 8.49986C11 6.53736 10.0931 4.45736 8.375 2.48423ZM9.23938 10.9999H1.76062C1.55304 10.6886 1.38507 10.3527 1.26062 9.99986H9.74187C9.61664 10.3528 9.44783 10.6887 9.23938 10.9999ZM10 8.49986C9.99989 8.66694 9.9903 8.83387 9.97125 8.99986H1.02875C1.0097 8.83387 1.00011 8.66694 1 8.49986C1 8.33319 1.0075 8.16653 1.0225 7.99986H9.9775C9.9925 8.16653 10 8.33319 10 8.49986ZM5.5 1.12486C6.385 1.81861 9.05375 4.10861 9.8025 6.99986H1.1975C1.94625 4.10986 4.615 1.81986 5.5 1.12486ZM2.67562 11.9999H8.32438C7.52523 12.6468 6.5282 12.9998 5.5 12.9998C4.4718 12.9998 3.47477 12.6468 2.67562 11.9999Z" fill="#667085"/>
</svg>
