<svg xmlns="http://www.w3.org/2000/svg" width="16" height="16" viewBox="0 0 16 16" fill="currentColor">
<path d="M15 11.4998H14.5V3.6185L15.1044 3.4885C15.17 3.4762 15.2324 3.45089 15.2881 3.41407C15.3438 3.37724 15.3915 3.32965 15.4285 3.27409C15.4654 3.21853 15.4909 3.15613 15.5034 3.09056C15.5159 3.025 15.5151 2.95761 15.5011 2.89235C15.4871 2.82709 15.4602 2.76529 15.422 2.71059C15.3838 2.65589 15.335 2.6094 15.2785 2.57386C15.222 2.53832 15.159 2.51445 15.0931 2.50366C15.0272 2.49286 14.9599 2.49536 14.895 2.511L0.895 5.511C0.77439 5.53703 0.667663 5.60673 0.595347 5.7067C0.52303 5.80668 0.490233 5.92986 0.503262 6.05255C0.516292 6.17525 0.574229 6.28879 0.665928 6.37135C0.757628 6.4539 0.876614 6.49964 1 6.49975C1.0355 6.49969 1.0709 6.49592 1.10563 6.4885L1.5 6.40413V11.4998H1C0.867392 11.4998 0.740215 11.5524 0.646447 11.6462C0.552678 11.74 0.5 11.8671 0.5 11.9998C0.5 12.1324 0.552678 12.2595 0.646447 12.3533C0.740215 12.4471 0.867392 12.4998 1 12.4998H15C15.1326 12.4998 15.2598 12.4471 15.3536 12.3533C15.4473 12.2595 15.5 12.1324 15.5 11.9998C15.5 11.8671 15.4473 11.74 15.3536 11.6462C15.2598 11.5524 15.1326 11.4998 15 11.4998ZM2.5 6.18725L13.5 3.83288V11.4998H12V7.99975C12 7.86714 11.9473 7.73997 11.8536 7.6462C11.7598 7.55243 11.6326 7.49975 11.5 7.49975H4.5C4.36739 7.49975 4.24021 7.55243 4.14645 7.6462C4.05268 7.73997 4 7.86714 4 7.99975V11.4998H2.5V6.18725ZM11 9.49975H5V8.49975H11V9.49975ZM5 10.4998H11V11.4998H5V10.4998Z" fill="#667085"/>
</svg>