<svg xmlns="http://www.w3.org/2000/svg" width="20" height="20" viewBox="0 0 20 20" fill="none">
<g clip-path="url(#clip0_12590_64430)">
<path d="M14.3465 14.3469L14.3521 12.5032C14.3521 12.328 14.4109 12.1797 14.5285 12.0584C14.6459 11.9372 14.7941 11.8785 14.9731 11.8822C15.1485 11.8822 15.2964 11.9444 15.4168 12.0687C15.5373 12.193 15.5975 12.3427 15.5975 12.5179L15.5975 14.8522C15.5975 14.9626 15.5782 15.0597 15.5396 15.1435C15.5011 15.2273 15.4464 15.3048 15.3754 15.3758C15.3044 15.4468 15.2269 15.5015 15.1431 15.54C15.0593 15.5786 14.9622 15.5979 14.8518 15.5979L12.5175 15.5979C12.3423 15.5979 12.1935 15.5386 12.0711 15.42C11.9487 15.3014 11.8874 15.1507 11.8874 14.9679C11.8875 14.7851 11.9454 14.6359 12.061 14.5203C12.1766 14.4047 12.3257 14.3469 12.5084 14.3469L14.3465 14.3469ZM5.65267 14.3469L7.49085 14.3469C7.66605 14.3469 7.81332 14.4047 7.93264 14.5203C8.05197 14.6359 8.11168 14.7851 8.11178 14.9679C8.11178 15.1507 8.05246 15.3015 7.93382 15.4201C7.81528 15.5387 7.66458 15.5979 7.48171 15.5979L5.14738 15.5979C5.03699 15.5979 4.93991 15.5786 4.85614 15.54C4.77227 15.5015 4.69483 15.4468 4.62383 15.3758C4.55282 15.3048 4.49807 15.2273 4.45957 15.1435C4.42097 15.0597 4.40168 14.9626 4.40168 14.8522L4.40168 12.5067C4.40168 12.3313 4.46095 12.1843 4.57948 12.0658C4.69812 11.9471 4.84701 11.886 5.02614 11.8822C5.20508 11.8785 5.35328 11.9372 5.47073 12.0584C5.58829 12.1797 5.64707 12.328 5.64707 12.5032L5.65267 14.3469ZM14.3521 5.64746L12.4972 5.64186C12.3219 5.64177 12.1764 5.58206 12.0608 5.46273C11.9452 5.34341 11.8875 5.19609 11.8876 5.02079C11.8875 4.84549 11.9477 4.69758 12.0682 4.57708C12.1887 4.45658 12.3366 4.39638 12.5119 4.39647L14.8518 4.40207C14.9622 4.40207 15.0593 4.42137 15.1431 4.45997C15.2269 4.49846 15.3044 4.55322 15.3754 4.62422C15.4464 4.69523 15.5011 4.77266 15.5396 4.85653C15.5782 4.94031 15.5975 5.03739 15.5975 5.14777L15.5975 7.48211C15.5975 7.65732 15.5373 7.80704 15.4168 7.93127C15.2964 8.0556 15.1466 8.1159 14.9675 8.11217C14.7922 8.11207 14.6458 8.05143 14.5283 7.93024C14.4109 7.80905 14.3522 7.6608 14.3523 7.4855L14.3521 5.64746ZM5.64707 5.64746L5.64707 7.49684C5.64707 7.67205 5.58834 7.81838 5.47088 7.93584C5.35342 8.05329 5.20704 8.11207 5.03174 8.11217C4.8526 8.1159 4.70283 8.0556 4.58243 7.93127C4.46193 7.80704 4.40168 7.65732 4.40168 7.48211L4.40168 5.14777C4.40168 5.03739 4.42097 4.94031 4.45957 4.85653C4.49807 4.77266 4.55282 4.69523 4.62383 4.62422C4.69483 4.55322 4.77227 4.49846 4.85614 4.45997C4.93991 4.42137 5.03699 4.40207 5.14738 4.40207L7.49291 4.40207C7.66831 4.40207 7.81528 4.4633 7.93382 4.58577C8.05236 4.70804 8.11168 4.85683 8.11178 5.03213C8.11168 5.20744 8.05388 5.35284 7.93839 5.46833C7.8228 5.58392 7.67735 5.64177 7.50204 5.64187L5.64707 5.64746Z" fill="white"/>
</g>
<defs>
<clipPath id="clip0_12590_64430">
<rect width="20" height="20" fill="white"/>
</clipPath>
</defs>
</svg>