<svg width="530" height="408" viewBox="0 0 530 408" fill="none" xmlns="http://www.w3.org/2000/svg">
<path d="M68.6916 133.106C108.644 154.795 192.133 140.173 276.689 41.0267C333 -25 440.375 19.1443 511.46 71.9959C576.125 127.52 448.443 133.106 478.922 221.092C509.4 309.079 422.082 381.924 365.655 364.736C309.228 347.548 245.805 455.76 199.257 381.924C152.303 307.442 145.3 369.646 68.6912 313.171C-7.91791 256.696 -36.7488 81.5415 68.6916 133.106Z" fill="black"/>
<path d="M134.826 133.252L116.918 126.885C116.918 126.885 120.118 122.489 121.772 122.031C126.592 120.697 146.973 121.106 146.973 121.106L134.834 133.244L134.826 133.252Z" fill="#3E3E3E"/>
<path d="M149.469 147.895L155.837 165.804C155.837 165.804 160.232 162.603 160.69 160.95C162.024 156.129 161.615 135.749 161.615 135.749L149.477 147.887L149.469 147.895Z" fill="#3E3E3E"/>
<path d="M148.25 150.882C148.249 150.882 148.248 150.882 148.247 150.881L132.523 135.157C132.179 134.813 132.129 134.277 132.413 133.882C135.559 129.498 153.294 105.2 164.642 98.4996C168.467 96.2432 178.118 93.7366 184.931 92.1512C188.409 91.3418 191.468 94.4006 190.659 97.879C189.073 104.692 186.567 114.343 184.31 118.168C176.958 130.634 148.366 150.805 148.257 150.882C148.253 150.884 148.254 150.882 148.25 150.882Z" fill="#8B8B8B"/>
<path d="M136.422 146.389C136.422 146.389 142.069 132.147 146.268 129.757C147.741 128.914 153.053 129.757 153.053 129.757C153.053 129.757 153.896 135.069 153.053 136.543C150.663 140.741 136.422 146.389 136.422 146.389Z" fill="#3E3E3E"/>
<path d="M178.425 119.142C174.349 123.218 167.752 123.218 163.676 119.142C159.6 115.066 159.6 108.469 163.676 104.393C167.752 100.317 174.349 100.317 178.425 104.393C182.501 108.469 182.501 115.066 178.425 119.142Z" fill="#545454"/>
<path d="M171.051 118.332C174.676 118.332 177.615 115.393 177.615 111.767C177.615 108.142 174.676 105.203 171.051 105.203C167.425 105.203 164.486 108.142 164.486 111.767C164.486 115.393 167.425 118.332 171.051 118.332Z" fill="black"/>
<path d="M433.955 143.476C430.886 136.683 422.668 136.011 413.755 137.125C411.553 133.826 407.805 131.649 403.541 131.649C397.68 131.649 392.786 135.758 391.566 141.25C387.728 141.757 384.937 141.602 384.036 139.948C380.165 132.877 413.583 113.798 413.583 113.798C413.583 113.798 369.181 133.605 374.566 145.358C376.678 149.966 383.758 149.639 392.033 148.133C393.752 152.831 398.253 156.195 403.557 156.195C410.334 156.195 415.834 150.695 415.834 143.918C415.834 143.918 415.834 143.918 415.834 143.91C419.967 143.746 423.274 144.417 424.96 146.701C432.302 156.621 384.044 177.541 384.044 177.541C384.044 177.541 441.518 160.157 433.972 143.468L433.955 143.476Z" fill="white"/>
<path d="M182.594 278.368C188.61 288.526 185.262 301.638 175.105 307.654C164.948 313.669 151.835 310.322 145.82 300.164C139.804 290.007 143.151 276.895 153.309 270.879C163.466 264.863 176.578 268.211 182.594 278.368Z" fill="#717171"/>
<path d="M179.998 274.866C180.661 275.595 181.283 276.389 181.856 277.223C190.392 273.098 196.375 271.085 197.137 272.378C198.389 274.481 185.17 284.622 167.614 295.025C150.058 305.428 134.818 312.156 133.573 310.044C132.812 308.759 137.445 304.479 145.163 298.97C144.705 298.07 144.304 297.145 143.985 296.212C125.454 308.367 113.234 318.598 114.773 321.192C116.762 324.548 141.013 313.842 168.956 297.284C196.891 280.726 217.926 264.586 215.945 261.238C214.407 258.644 199.568 264.455 180.006 274.866H179.998Z" fill="#FAFAFA"/>
<path d="M247.702 110.221C247.702 110.221 248.504 112.071 248.97 112.537C249.437 113.004 251.287 113.806 251.287 113.806C251.287 113.806 249.437 114.608 248.97 115.074C248.504 115.541 247.702 117.391 247.702 117.391C247.702 117.391 246.9 115.541 246.433 115.074C245.967 114.608 244.117 113.806 244.117 113.806C244.117 113.806 245.967 113.004 246.433 112.537C246.9 112.071 247.702 110.221 247.702 110.221ZM410.956 236.651C410.489 237.118 408.64 237.92 408.64 237.92C408.64 237.92 410.489 238.722 410.956 239.189C411.422 239.655 412.224 241.505 412.224 241.505C412.224 241.505 413.027 239.655 413.493 239.189C413.96 238.722 415.809 237.92 415.809 237.92C415.809 237.92 413.96 237.118 413.493 236.651C413.027 236.185 412.224 234.335 412.224 234.335C412.224 234.335 411.422 236.185 410.956 236.651ZM430.157 192.298C429.519 192.936 427.006 194.025 427.006 194.025C427.006 194.025 429.519 195.114 430.157 195.744C430.796 196.374 431.884 198.895 431.884 198.895C431.884 198.895 432.973 196.382 433.603 195.744C434.233 195.105 436.754 194.025 436.754 194.025C436.754 194.025 434.242 192.936 433.603 192.298C432.965 191.66 431.884 189.147 431.884 189.147C431.884 189.147 430.796 191.66 430.157 192.298ZM350.233 126.91C349.766 127.376 347.916 128.178 347.916 128.178C347.916 128.178 349.766 128.98 350.233 129.447C350.699 129.913 351.501 131.763 351.501 131.763C351.501 131.763 352.304 129.913 352.77 129.447C353.237 128.98 355.086 128.178 355.086 128.178C355.086 128.178 353.237 127.376 352.77 126.91C352.304 126.443 351.501 124.593 351.501 124.593C351.501 124.593 350.699 126.443 350.233 126.91ZM370.286 344.347C369.819 344.814 367.969 345.616 367.969 345.616C367.969 345.616 369.819 346.418 370.286 346.884C370.752 347.351 371.554 349.201 371.554 349.201C371.554 349.201 372.356 347.351 372.823 346.884C373.289 346.418 375.139 345.616 375.139 345.616C375.139 345.616 373.289 344.814 372.823 344.347C372.356 343.88 371.554 342.031 371.554 342.031C371.554 342.031 370.752 343.88 370.286 344.347ZM437.876 112.537C437.409 113.004 435.559 113.806 435.559 113.806C435.559 113.806 437.409 114.608 437.876 115.074C438.342 115.541 439.144 117.391 439.144 117.391C439.144 117.391 439.946 115.541 440.413 115.074C440.879 114.608 442.729 113.806 442.729 113.806C442.729 113.806 440.879 113.004 440.413 112.537C439.946 112.071 439.144 110.221 439.144 110.221C439.144 110.221 438.342 112.071 437.876 112.537ZM139.229 231.921C138.705 232.444 136.609 233.353 136.609 233.353C136.609 233.353 138.697 234.261 139.229 234.785C139.761 235.309 140.661 237.404 140.661 237.404C140.661 237.404 141.569 235.317 142.093 234.785C142.617 234.253 144.712 233.353 144.712 233.353C144.712 233.353 142.625 232.453 142.093 231.921C141.561 231.389 140.661 229.301 140.661 229.301C140.661 229.301 139.761 231.389 139.229 231.921ZM203.946 309.758C203.422 310.282 201.327 311.19 201.327 311.19C201.327 311.19 203.414 312.091 203.946 312.623C204.478 313.155 205.378 315.242 205.378 315.242C205.378 315.242 206.279 313.155 206.811 312.623C207.334 312.099 209.43 311.19 209.43 311.19C209.43 311.19 207.343 310.29 206.811 309.758C206.279 309.226 205.378 307.139 205.378 307.139C205.378 307.139 204.478 309.226 203.946 309.758ZM163.66 203.454C163.276 203.839 161.761 204.493 161.761 204.493C161.761 204.493 163.276 205.148 163.66 205.533C164.045 205.917 164.7 207.432 164.7 207.432C164.7 207.432 165.354 205.917 165.739 205.533C166.124 205.148 167.638 204.493 167.638 204.493C167.638 204.493 166.124 203.839 165.739 203.454C165.354 203.069 164.7 201.555 164.7 201.555C164.7 201.555 164.045 203.069 163.66 203.454ZM195.573 239.557C195.188 239.942 193.674 240.596 193.674 240.596C193.674 240.596 195.188 241.251 195.573 241.636C195.957 242.021 196.612 243.535 196.612 243.535C196.612 243.535 197.267 242.021 197.652 241.636C198.036 241.251 199.551 240.596 199.551 240.596C199.551 240.596 198.036 239.942 197.652 239.557C197.267 239.172 196.612 237.658 196.612 237.658C196.612 237.658 195.957 239.172 195.573 239.557ZM441.69 251.842C441.305 252.227 439.791 252.882 439.791 252.882C439.791 252.882 441.305 253.537 441.69 253.921C442.074 254.306 442.729 255.82 442.729 255.82C442.729 255.82 443.384 254.306 443.769 253.921C444.153 253.537 445.668 252.882 445.668 252.882C445.668 252.882 444.153 252.227 443.769 251.842C443.384 251.458 442.729 249.944 442.729 249.944C442.729 249.944 442.074 251.458 441.69 251.842ZM113.602 289.141C113.217 289.525 111.703 290.18 111.703 290.18C111.703 290.18 113.217 290.835 113.602 291.219C113.987 291.604 114.641 293.118 114.641 293.118C114.641 293.118 115.296 291.604 115.681 291.219C116.066 290.835 117.58 290.18 117.58 290.18C117.58 290.18 116.066 289.525 115.681 289.141C115.296 288.756 114.641 287.242 114.641 287.242C114.641 287.242 113.987 288.756 113.602 289.141ZM454.229 272.853C453.844 273.237 452.33 273.892 452.33 273.892C452.33 273.892 453.844 274.547 454.229 274.932C454.614 275.316 455.268 276.831 455.268 276.831C455.268 276.831 455.923 275.316 456.308 274.932C456.693 274.547 458.207 273.892 458.207 273.892C458.207 273.892 456.693 273.237 456.308 272.853C455.923 272.468 455.268 270.954 455.268 270.954C455.268 270.954 454.614 272.468 454.229 272.853ZM298.284 149.745C297.899 150.13 296.385 150.785 296.385 150.785C296.385 150.785 297.899 151.439 298.284 151.824C298.669 152.209 299.323 153.723 299.323 153.723C299.323 153.723 299.978 152.209 300.363 151.824C300.747 151.439 302.262 150.785 302.262 150.785C302.262 150.785 300.747 150.13 300.363 149.745C299.978 149.36 299.323 147.846 299.323 147.846C299.323 147.846 298.669 149.36 298.284 149.745ZM361.233 107.094C360.848 107.479 359.334 108.134 359.334 108.134C359.334 108.134 360.848 108.788 361.233 109.173C361.618 109.558 362.273 111.072 362.273 111.072C362.273 111.072 362.927 109.558 363.312 109.173C363.697 108.788 365.211 108.134 365.211 108.134C365.211 108.134 363.697 107.479 363.312 107.094C362.927 106.71 362.273 105.195 362.273 105.195C362.273 105.195 361.618 106.71 361.233 107.094ZM266.118 129.733C265.733 130.118 264.219 130.773 264.219 130.773C264.219 130.773 265.733 131.428 266.118 131.812C266.502 132.197 267.157 133.711 267.157 133.711C267.157 133.711 267.812 132.197 268.197 131.812C268.581 131.428 270.095 130.773 270.095 130.773C270.095 130.773 268.581 130.118 268.197 129.733C267.812 129.349 267.157 127.834 267.157 127.834C267.157 127.834 266.502 129.349 266.118 129.733ZM186.455 345.247C186.07 345.632 184.556 346.287 184.556 346.287C184.556 346.287 186.07 346.942 186.455 347.326C186.84 347.711 187.494 349.225 187.494 349.225C187.494 349.225 188.149 347.711 188.534 347.326C188.919 346.942 190.433 346.287 190.433 346.287C190.433 346.287 188.919 345.632 188.534 345.247C188.149 344.863 187.494 343.348 187.494 343.348C187.494 343.348 186.84 344.863 186.455 345.247ZM229.72 330.76C229.335 331.145 227.821 331.8 227.821 331.8C227.821 331.8 229.335 332.454 229.72 332.839C230.104 333.224 230.759 334.738 230.759 334.738C230.759 334.738 231.414 333.224 231.799 332.839C232.183 332.454 233.698 331.8 233.698 331.8C233.698 331.8 232.183 331.145 231.799 330.76C231.414 330.376 230.759 328.861 230.759 328.861C230.759 328.861 230.104 330.376 229.72 330.76ZM394.586 320.758C394.202 321.143 392.687 321.798 392.687 321.798C392.687 321.798 394.202 322.453 394.586 322.837C394.971 323.222 395.626 324.736 395.626 324.736C395.626 324.736 396.28 323.222 396.665 322.837C397.05 322.453 398.564 321.798 398.564 321.798C398.564 321.798 397.05 321.143 396.665 320.758C396.28 320.374 395.626 318.86 395.626 318.86C395.626 318.86 394.971 320.374 394.586 320.758ZM121.443 185.971C120.977 186.438 119.127 187.24 119.127 187.24C119.127 187.24 120.977 188.042 121.443 188.508C121.91 188.975 122.712 190.825 122.712 190.825C122.712 190.825 123.514 188.975 123.98 188.508C124.447 188.042 126.297 187.24 126.297 187.24C126.297 187.24 124.447 186.438 123.98 185.971C123.514 185.505 122.712 183.655 122.712 183.655C122.712 183.655 121.91 185.505 121.443 185.971Z" fill="white"/>
<path d="M352.919 341.318L343.195 324.965L352.51 308.62L357.568 333.15L352.919 341.318Z" fill="#565656"/>
<path d="M344.333 303.963L335.027 320.308L316.006 320.3L320.655 312.123L344.333 303.963Z" fill="#565656"/>
<path d="M330.876 337.104C328.625 335.819 326.66 334.329 325.064 332.766C329.73 328.223 334.231 325.481 336.695 326.889C339.159 328.297 339.101 333.56 337.571 339.887C335.418 339.314 333.135 338.381 330.876 337.104Z" fill="#263238"/>
<path d="M348.245 266.632C335.305 289.353 326.089 323.427 335.583 328.837C345.078 334.247 369.681 308.94 382.621 286.219C395.561 263.498 382.441 246.555 382.441 246.555C382.441 246.555 361.177 243.911 348.237 266.632H348.245Z" fill="#263238"/>
<path opacity="0.7" d="M348.245 266.632C335.305 289.353 326.089 323.427 335.583 328.837C345.078 334.247 369.681 308.94 382.621 286.219C395.561 263.498 382.441 246.555 382.441 246.555C382.441 246.555 361.177 243.911 348.237 266.632H348.245Z" fill="#838383"/>
<path d="M370.09 268.253C364.213 264.905 359.319 260.878 355.791 256.761C368.093 244.787 382.449 246.555 382.449 246.555C382.449 246.555 391.297 257.997 387.27 274.686C381.925 273.753 375.958 271.6 370.09 268.253Z" fill="#565656"/>
<g opacity="0.3">
<path d="M375.557 276.111C376.638 273.983 377.571 271.838 378.356 269.702L382.563 271.421C381.72 273.68 380.738 275.923 379.609 278.165C374.395 288.454 367.299 299.544 359.638 309.39L356.053 306.599C363.542 296.974 370.474 286.145 375.557 276.103V276.111Z" fill="white"/>
<path d="M379.854 265.045C380.443 262.859 380.885 260.682 381.171 258.521L385.411 260.936C385.051 263.072 384.552 265.225 383.921 267.369L379.854 265.053V265.045Z" fill="white"/>
</g>
<path d="M337.326 340.827C332.456 339.428 328.061 336.923 324.378 333.453C323.47 332.593 324.845 331.218 325.753 332.078C329.191 335.319 333.267 337.635 337.809 338.945C339.012 339.289 338.538 341.179 337.326 340.827Z" fill="#565656"/>
<path d="M302.385 240.638C302.385 240.638 281.53 241.244 274.401 219.382C274.401 219.382 274.401 203.896 264.71 208.423C254.291 213.284 254.029 225.111 259.627 231.266C259.627 231.266 261.673 251.164 292.948 259.291C292.948 259.291 310.569 250.198 302.385 240.638Z" fill="#565656"/>
<path opacity="0.7" d="M302.385 240.638C302.385 240.638 281.53 241.244 274.401 219.382C274.401 219.382 274.401 203.896 264.71 208.423C254.291 213.284 254.029 225.111 259.627 231.266C259.627 231.266 261.673 251.164 292.948 259.291C292.948 259.291 310.569 250.198 302.385 240.638Z" fill="white"/>
<path d="M264.71 208.422C274.409 203.904 274.401 219.382 274.401 219.382C274.401 219.382 271.152 228.999 259.628 231.266C254.037 225.111 254.291 213.284 264.71 208.422Z" fill="#565656"/>
<path opacity="0.3" d="M264.71 208.422C274.409 203.904 274.401 219.382 274.401 219.382C274.401 219.382 271.152 228.999 259.628 231.266C254.037 225.111 254.291 213.284 264.71 208.422Z" fill="white"/>
<path d="M267.156 245.344C270.553 243.871 277.51 239.926 281.144 231.258C284.279 234.679 287.831 236.856 291.121 238.231C291.473 240.752 291.211 246.891 283.739 256.262C276.004 253.103 270.741 249.158 267.156 245.344Z" fill="#565656"/>
<path opacity="0.4" d="M267.156 245.344C270.553 243.871 277.51 239.926 281.144 231.258C284.279 234.679 287.831 236.856 291.121 238.231C291.473 240.752 291.211 246.891 283.739 256.262C276.004 253.103 270.741 249.158 267.156 245.344Z" fill="white"/>
<path opacity="0.2" d="M300.984 240.597C300.354 244.026 298.979 248.217 296.049 251.646C292.48 255.812 287.946 256.688 284.803 256.688C287.266 257.646 289.976 258.521 292.947 259.299C292.947 259.299 310.568 250.206 302.384 240.646C302.384 240.646 301.876 240.662 300.992 240.605L300.984 240.597Z" fill="black"/>
<path d="M292.365 258.309C298.021 255.362 307.155 248.323 301.573 241.448C300.657 240.319 302.261 238.69 303.194 239.828C309.922 248.111 300.771 256.508 293.528 260.281C292.226 260.961 291.064 258.988 292.374 258.309H292.365Z" fill="#565656"/>
<path d="M266.584 244.354C272.739 241.636 277.461 236.848 280.162 230.677C280.752 229.335 282.724 230.497 282.135 231.831C279.303 238.297 274.204 243.478 267.738 246.326C266.404 246.916 265.233 244.943 266.584 244.354Z" fill="#565656"/>
<path d="M288.658 267.262C288.658 267.262 255.993 246.44 251.655 273.606C251.655 273.606 236.742 267.05 231.659 275.464C226.577 283.878 259.422 303.636 265.192 293.339C271.855 281.471 291.22 290.123 291.22 290.123L288.658 267.262Z" fill="#565656"/>
<path opacity="0.7" d="M288.658 267.262C288.658 267.262 255.993 246.44 251.655 273.606C251.655 273.606 236.742 267.05 231.659 275.464C226.577 283.878 259.422 303.636 265.192 293.339C271.855 281.471 291.22 290.123 291.22 290.123L288.658 267.262Z" fill="white"/>
<path d="M231.66 275.455C233.78 271.952 237.594 271.052 241.334 271.183C241.989 272.231 242.758 274.334 241.997 277.927C241.997 277.927 253.521 282.298 259.791 290.622L266.003 292.071C265.717 292.463 265.438 292.881 265.185 293.331C259.406 303.619 226.569 283.861 231.652 275.455H231.66Z" fill="#263238"/>
<path d="M233.076 278.892C232.257 280.21 237.152 284.753 244.019 289.041C250.886 293.33 257.114 295.745 257.941 294.435C258.76 293.117 253.865 288.575 246.998 284.286C240.131 279.997 233.902 277.583 233.076 278.892Z" fill="#565656"/>
<g opacity="0.3">
<path d="M244.083 282.552C245.033 283.084 246.007 283.665 246.997 284.279C247.03 284.295 247.063 284.32 247.087 284.336L240.007 286.342C239.099 285.687 238.248 285.04 237.486 284.418L244.083 282.544V282.552Z" fill="white"/>
<path d="M250.116 286.341C251.041 286.987 251.909 287.626 252.711 288.248L245.909 290.179C245.287 289.819 244.665 289.435 244.027 289.042C243.666 288.821 243.323 288.592 242.971 288.371L250.116 286.341Z" fill="white"/>
<path d="M236.832 279.139C237.921 279.507 239.19 280.047 240.589 280.718L235.081 282.282C234.254 281.463 233.64 280.735 233.305 280.145L236.832 279.147V279.139Z" fill="white"/>
<path d="M252.727 293.634C251.655 293.2 250.468 292.644 249.199 291.997L255.158 290.303C255.993 291.064 256.672 291.768 257.155 292.382L252.727 293.642V293.634Z" fill="white"/>
</g>
<path d="M355.873 250.206C355.873 250.206 341.034 340.034 301.509 304.038C296.918 299.855 287.612 290.205 280.589 282.823C276.898 278.935 277.593 272.69 282.03 269.678C287.98 265.626 296.206 257.212 306.003 239.853L355.881 250.214L355.873 250.206Z" fill="#565656"/>
<path opacity="0.7" d="M355.873 250.206C355.873 250.206 341.034 340.034 301.509 304.038C296.918 299.855 287.612 290.205 280.589 282.823C276.898 278.935 277.593 272.69 282.03 269.678C287.98 265.626 296.206 257.212 306.003 239.853L355.881 250.214L355.873 250.206Z" fill="white"/>
<path opacity="0.2" d="M294.315 288.388C292.547 286.08 288.577 281.382 287.652 284.451C287.12 286.203 286.58 287.611 286.146 288.634C291.95 294.666 298.064 300.895 301.509 304.037C301.755 304.258 301.992 304.455 302.238 304.668L318.501 302.384L323.281 298.652C323.281 298.652 310.865 284.582 294.315 288.38V288.388Z" fill="black"/>
<path opacity="0.3" d="M310.34 248.462C317.052 264.136 339.969 262.63 339.969 262.63C339.969 262.63 347.434 266.191 337.334 290.295C327.299 314.235 303.989 306.01 303.678 305.895C341.582 336.744 355.88 250.206 355.88 250.206L314.768 241.669C310.872 243.077 308.965 245.238 310.348 248.462H310.34Z" fill="black"/>
<path d="M300.471 269.521C297.442 267.974 296.534 263.685 298.449 259.928C300.364 256.172 304.367 254.379 307.403 255.926L309.187 256.835C312.216 258.381 313.124 262.67 311.209 266.427C309.294 270.184 305.291 271.976 302.255 270.429L300.471 269.521Z" fill="#263238"/>
<path opacity="0.5" d="M300.471 269.521C297.442 267.974 296.534 263.685 298.449 259.928C300.364 256.172 304.367 254.379 307.403 255.926L309.187 256.835C312.216 258.381 313.124 262.67 311.209 266.427C309.294 270.184 305.291 271.976 302.255 270.429L300.471 269.521Z" fill="white"/>
<path d="M315.939 263.048L317.683 264.095L320.408 265.74L322.151 266.788C323.502 267.607 323.936 269.358 323.125 270.709L320.433 275.177C319.614 276.528 317.863 276.962 316.512 276.151L314.769 275.104L312.043 273.459L310.3 272.411C308.949 271.593 308.516 269.841 309.326 268.49L312.019 264.022C312.837 262.671 314.589 262.237 315.939 263.048Z" fill="#263238"/>
<path opacity="0.6" d="M315.939 263.048L317.683 264.095L320.408 265.74L322.151 266.788C323.502 267.607 323.936 269.358 323.125 270.709L320.433 275.177C319.614 276.528 317.863 276.962 316.512 276.151L314.769 275.104L312.043 273.459L310.3 272.411C308.949 271.593 308.516 269.841 309.326 268.49L312.019 264.022C312.837 262.671 314.589 262.237 315.939 263.048Z" fill="white"/>
<path opacity="0.3" d="M311.779 273.299L313.264 274.195C315.44 275.508 318.267 274.808 319.579 272.633L320.475 271.147C321.788 268.972 321.088 266.144 318.913 264.832L317.427 263.936C315.252 262.624 312.424 263.323 311.112 265.499L310.216 266.984C308.904 269.16 309.603 271.987 311.779 273.299Z" fill="white"/>
<path d="M312.903 267.59L317.585 270.414C318.174 270.774 318.944 270.577 319.304 269.988C319.664 269.399 319.467 268.629 318.878 268.269L314.196 265.445C313.607 265.085 312.838 265.282 312.478 265.871C312.117 266.46 312.314 267.23 312.903 267.59Z" fill="#565656"/>
<path opacity="0.3" d="M312.903 267.59L317.585 270.414C318.174 270.774 318.944 270.577 319.304 269.988C319.664 269.399 319.467 268.629 318.878 268.269L314.196 265.445C313.607 265.085 312.838 265.282 312.478 265.871C312.117 266.46 312.314 267.23 312.903 267.59Z" fill="white"/>
<path d="M271.176 288.142C268.335 271.846 259.193 267.312 254.176 266.051C258.686 258.382 267.509 258.816 275.096 261.1C286.653 271.658 281.701 283.608 279.802 287.193C276.913 286.931 273.868 287.103 271.167 288.15L271.176 288.142Z" fill="#565656"/>
<path opacity="0.4" d="M271.176 288.142C268.335 271.846 259.193 267.312 254.176 266.051C258.686 258.382 267.509 258.816 275.096 261.1C286.653 271.658 281.701 283.608 279.802 287.193C276.913 286.931 273.868 287.103 271.167 288.15L271.176 288.142Z" fill="white"/>
<path d="M275.916 260.289C283.732 267.664 285.803 278.197 280.802 287.766C280.122 289.067 278.142 287.913 278.829 286.611C283.355 277.952 281.358 268.564 274.303 261.91C273.231 260.895 274.851 259.282 275.924 260.289H275.916Z" fill="#565656"/>
<path d="M318.615 294.846C310.545 291.13 291.196 284.287 283.437 299.969C277.535 311.903 285.073 320.963 285.073 320.963C285.073 320.963 267.214 328.362 273.017 339.125C278.82 349.888 307.123 335.991 305.388 326.152C303.653 316.314 304.995 314.915 307.966 314.047C313.229 312.508 352.074 310.266 318.615 294.854V294.846Z" fill="#565656"/>
<path opacity="0.7" d="M318.615 294.846C310.545 291.13 291.196 284.287 283.437 299.969C277.535 311.903 285.073 320.963 285.073 320.963C285.073 320.963 267.214 328.362 273.017 339.125C278.82 349.888 307.123 335.991 305.388 326.152C303.653 316.314 304.995 314.915 307.966 314.047C313.229 312.508 352.074 310.266 318.615 294.854V294.846Z" fill="white"/>
<path d="M281.53 305.616C281.865 303.832 282.471 301.941 283.445 299.968C287.144 292.487 293.488 290.13 299.978 290.122C311.339 292.864 312.517 313.22 312.517 313.22C310.447 313.547 308.793 313.801 307.967 314.046C306.551 314.464 305.503 315.004 304.979 316.518C288.446 315.691 283.175 309.766 281.521 305.624L281.53 305.616Z" fill="#565656"/>
<path opacity="0.4" d="M281.53 305.616C281.865 303.832 282.471 301.941 283.445 299.968C287.144 292.487 293.488 290.13 299.978 290.122C311.339 292.864 312.517 313.22 312.517 313.22C310.447 313.547 308.793 313.801 307.967 314.046C306.551 314.464 305.503 315.004 304.979 316.518C288.446 315.691 283.175 309.766 281.521 305.624L281.53 305.616Z" fill="white"/>
<path d="M300.282 289.018C310.005 291.613 313.123 304.438 313.664 313.212C313.754 314.686 311.462 314.677 311.372 313.212C310.905 305.502 308.254 293.511 299.668 291.22C298.244 290.843 298.849 288.633 300.273 289.01L300.282 289.018Z" fill="#565656"/>
<path d="M273.739 329.385C279.55 328.501 283.356 340.14 283.356 340.14C298.048 336.653 303.409 328.959 305.217 325.129C305.275 325.464 305.332 325.8 305.389 326.16C307.125 335.998 278.822 349.896 273.018 339.133C271.021 335.434 271.824 332.127 273.739 329.385Z" fill="#263238"/>
<path d="M333.904 260.698C342.498 260.698 350.936 258.652 358.507 254.748C360.234 253.856 360.832 251.671 359.825 250.009L359.375 249.272C358.458 247.75 356.518 247.202 354.931 248.012C348.448 251.335 341.237 253.07 333.896 253.07C322.208 253.07 310.888 248.569 302.376 240.638C301.075 239.418 299.053 239.41 297.752 240.629L297.121 241.219C295.689 242.553 295.681 244.828 297.113 246.162C307.033 255.444 320.243 260.707 333.896 260.707L333.904 260.698Z" fill="#565656"/>
<g opacity="0.3">
<path d="M333.904 260.698C342.498 260.698 350.936 258.652 358.507 254.748C360.234 253.856 360.832 251.671 359.825 250.009L359.375 249.272C358.458 247.75 356.518 247.202 354.931 248.012C348.448 251.335 341.237 253.07 333.896 253.07C322.208 253.07 310.888 248.569 302.376 240.638C301.075 239.418 299.053 239.41 297.752 240.629L297.121 241.219C295.689 242.553 295.681 244.828 297.113 246.162C307.033 255.444 320.243 260.707 333.896 260.707L333.904 260.698Z" fill="black"/>
</g>
<path d="M369.242 242.247C388.759 222.73 388.759 191.087 369.242 171.57C349.725 152.053 318.082 152.053 298.565 171.57C279.048 191.087 279.048 222.73 298.565 242.247C318.082 261.764 349.725 261.764 369.242 242.247Z" fill="#565656"/>
<path opacity="0.7" d="M369.242 242.247C388.759 222.73 388.759 191.087 369.242 171.57C349.725 152.053 318.082 152.053 298.565 171.57C279.048 191.087 279.048 222.73 298.565 242.247C318.082 261.764 349.725 261.764 369.242 242.247Z" fill="white"/>
<path d="M299.604 170.576C307.633 164.069 317.856 160.165 329.003 160.165C354.818 160.165 375.747 181.094 375.747 206.908C375.747 232.723 354.818 253.652 329.003 253.652C317.864 253.652 307.641 249.748 299.604 243.241C289.954 234.131 283.93 221.232 283.93 206.908C283.93 192.585 289.962 179.694 299.604 170.576Z" fill="#565656"/>
<path d="M328.996 250.705C353.184 250.705 372.793 231.097 372.793 206.908C372.793 182.72 353.184 163.111 328.996 163.111C304.808 163.111 285.199 182.72 285.199 206.908C285.199 231.097 304.808 250.705 328.996 250.705Z" fill="#303030"/>
<path opacity="0.5" d="M350.226 193.617C350.864 197.349 353.991 199.927 357.216 199.379C360.44 198.83 362.536 195.36 361.897 191.628C361.259 187.895 358.132 185.317 354.908 185.866C351.683 186.414 349.587 189.884 350.226 193.617Z" fill="white"/>
<path opacity="0.5" d="M357.937 207.407C357.732 209.233 358.837 210.853 360.416 211.025C361.988 211.205 363.437 209.871 363.641 208.046C363.846 206.221 362.741 204.6 361.161 204.428C359.582 204.256 358.141 205.582 357.937 207.407Z" fill="white"/>
<g opacity="0.5">
<path d="M297.443 207.342C297.018 208.725 294.963 208.438 294.955 206.99C294.955 206.965 294.955 206.941 294.955 206.908C294.955 193.141 303.132 181.289 314.893 175.928C315.573 175.617 316.375 175.945 316.628 176.649L317.848 179.972C318.053 180.536 317.832 181.167 317.316 181.494C307.936 187.395 300.791 196.538 297.443 207.342Z" fill="white"/>
<path d="M333.333 174.096C333.39 174.693 332.981 175.233 332.391 175.364C329.584 175.97 326.875 176.813 324.28 177.893C323.691 178.139 323.012 177.885 322.742 177.304L321.743 175.143C321.424 174.447 321.841 173.629 322.594 173.482C324.665 173.089 326.801 172.876 328.995 172.876C330.108 172.876 331.196 172.933 332.285 173.04C332.842 173.097 333.284 173.547 333.333 174.104V174.096Z" fill="white"/>
</g>
<path opacity="0.6" d="M301.25 224.04C310.523 231.553 322.325 236.055 335.192 236.055C348.058 236.055 360.098 231.463 369.404 223.819C362.783 239.607 347.191 250.698 328.996 250.698C304.81 250.698 285.199 231.087 285.199 206.901C285.199 204.38 285.42 201.908 285.829 199.51C288.825 208.971 294.194 217.377 301.241 224.04H301.25Z" fill="black"/>
<path d="M370.335 233.902C364.532 232.085 361.913 223.965 364.475 215.764C367.045 207.563 373.83 202.39 379.633 204.207L382.899 205.23C388.702 207.047 391.321 215.167 388.751 223.368C386.181 231.569 379.396 236.742 373.593 234.925L370.327 233.902H370.335Z" fill="#263238"/>
<path opacity="0.3" d="M370.335 233.902C364.532 232.085 361.913 223.965 364.475 215.764C367.045 207.563 373.83 202.39 379.633 204.207L382.899 205.23C388.702 207.047 391.321 215.167 388.751 223.368C386.181 231.569 379.396 236.742 373.593 234.925L370.327 233.902H370.335Z" fill="white"/>
<path opacity="0.3" d="M367.75 216.788C365.18 224.989 367.807 233.108 373.602 234.925C379.405 236.742 386.19 231.569 388.76 223.368C391.33 215.167 388.703 207.048 382.908 205.231C377.105 203.414 370.32 208.586 367.75 216.788Z" fill="white"/>
<path d="M334.314 250.665C348.13 250.665 358.025 246.384 364.425 242.169C373.789 236.006 377.816 228.787 377.979 228.484L375.246 226.986C375.205 227.052 371.342 233.927 362.576 239.665C350.986 247.236 336.049 249.413 319.376 245.942L318.746 248.995C324.402 250.174 329.591 250.673 334.314 250.673V250.665Z" fill="#263238"/>
<g opacity="0.5">
<path d="M334.314 250.665C348.13 250.665 358.025 246.384 364.425 242.169C373.789 236.006 377.816 228.787 377.979 228.484L375.246 226.986C375.205 227.052 371.342 233.927 362.576 239.665C350.986 247.236 336.049 249.413 319.376 245.942L318.746 248.995C324.402 250.174 329.591 250.673 334.314 250.673V250.665Z" fill="white"/>
</g>
<path d="M371.58 217.982C369.952 223.196 371.613 228.352 375.305 229.506C378.988 230.66 383.301 227.37 384.93 222.164C386.559 216.959 384.897 211.794 381.206 210.64C377.523 209.486 373.209 212.768 371.58 217.982Z" fill="#565656"/>
<path d="M372.817 218.555C371.188 223.769 372.849 228.925 376.541 230.079C380.224 231.233 384.537 227.943 386.166 222.737C387.795 217.532 386.133 212.367 382.442 211.213C378.759 210.059 374.446 213.349 372.817 218.555Z" fill="#565656"/>
<path opacity="0.5" d="M372.817 218.555C371.188 223.769 372.849 228.925 376.541 230.079C380.224 231.233 384.537 227.943 386.166 222.737C387.795 217.532 386.133 212.367 382.442 211.213C378.759 210.059 374.446 213.349 372.817 218.555Z" fill="white"/>
<path d="M319.041 250.869L304.095 246.735C302.221 246.22 301.116 244.272 301.64 242.397L301.664 242.307C302.18 240.433 304.128 239.328 306.002 239.852L320.948 243.985C322.822 244.501 323.927 246.449 323.403 248.323L323.379 248.413C322.863 250.287 320.915 251.392 319.041 250.869Z" fill="#565656"/>
<path opacity="0.2" d="M319.041 250.869L304.095 246.735C302.221 246.22 301.116 244.272 301.64 242.397L301.664 242.307C302.18 240.433 304.128 239.328 306.002 239.852L320.948 243.985C322.822 244.501 323.927 246.449 323.403 248.323L323.379 248.413C322.863 250.287 320.915 251.392 319.041 250.869Z" fill="black"/>
<path d="M316.857 250.263L301.912 246.13C300.037 245.614 298.933 243.666 299.456 241.792L299.481 241.702C299.997 239.828 301.945 238.723 303.819 239.246L318.764 243.38C320.639 243.895 321.744 245.843 321.22 247.718L321.195 247.808C320.68 249.682 318.732 250.787 316.857 250.263Z" fill="#565656"/>
<path opacity="0.3" d="M316.857 250.263L301.912 246.13C300.037 245.614 298.933 243.666 299.456 241.792L299.481 241.702C299.997 239.828 301.945 238.723 303.819 239.246L318.764 243.38C320.639 243.895 321.744 245.843 321.22 247.718L321.195 247.808C320.68 249.682 318.732 250.787 316.857 250.263Z" fill="white"/>
<path opacity="0.5" d="M299.284 260.355C297.664 263.539 298.433 267.181 301.003 268.49C303.573 269.8 306.97 268.278 308.59 265.094C310.211 261.91 309.442 258.268 306.872 256.958C304.302 255.649 300.905 257.171 299.284 260.355Z" fill="white"/>
<path d="M300.929 261.19C299.882 263.244 300.381 265.593 302.034 266.436C303.696 267.279 305.881 266.297 306.929 264.243C307.976 262.188 307.477 259.839 305.824 258.996C304.162 258.153 301.977 259.136 300.929 261.19Z" fill="#565656"/>
<path opacity="0.4" d="M300.929 261.19C299.882 263.244 300.381 265.593 302.034 266.436C303.696 267.279 305.881 266.297 306.929 264.243C307.976 262.188 307.477 259.839 305.824 258.996C304.162 258.153 301.977 259.136 300.929 261.19Z" fill="black"/>
<path d="M306.354 259.348C307.581 260.379 307.86 262.425 306.935 264.242C306.01 266.059 304.185 267.033 302.63 266.649C301.402 265.617 301.124 263.571 302.049 261.754C302.973 259.937 304.799 258.963 306.354 259.348Z" fill="#565656"/>
<path d="M264.178 347.645C264.309 347.49 264.596 347.523 264.825 347.686C275.056 355.11 291.491 356.608 303.048 348.857C306.363 346.63 309.08 343.34 312.665 341.351C317.027 338.928 326.203 334.623 330.573 338.323C337.121 343.872 325.973 354.987 321.382 357.393C316.545 359.922 308.916 363.262 298.669 362.222C287.472 361.093 276.136 358.376 264.342 348.276C264.121 348.087 264.047 347.801 264.178 347.645Z" fill="#565656"/>
<path opacity="0.7" d="M264.178 347.645C264.309 347.49 264.596 347.523 264.825 347.686C275.056 355.11 291.491 356.608 303.048 348.857C306.363 346.63 309.08 343.34 312.665 341.351C317.027 338.928 326.203 334.623 330.573 338.323C337.121 343.872 325.973 354.987 321.382 357.393C316.545 359.922 308.916 363.262 298.669 362.222C287.472 361.093 276.136 358.376 264.342 348.276C264.121 348.087 264.047 347.801 264.178 347.645Z" fill="white"/>
<path d="M327.464 342.547C328.413 342.743 319.484 354.726 314.335 355.692C309.76 356.543 302.459 355.757 309.809 352.541C309.809 352.541 304.154 353.253 311.446 347.22C315.563 354.153 327.472 342.547 327.472 342.547H327.464Z" fill="#565656"/>
<path opacity="0.6" d="M322.864 340.337C322.864 340.337 312.191 343.283 313.999 345.804C315.808 348.325 322.864 340.337 322.864 340.337Z" fill="white"/>
<path d="M339.307 298.897C333.75 297.735 328.266 295.992 322.946 294.027C313.279 290.451 303.466 285.785 295.993 278.525C291.983 274.621 288.799 269.858 287.563 264.349C287.244 262.917 289.445 262.303 289.773 263.744C292.024 273.762 300.789 280.58 309.31 285.351C317.175 289.755 325.729 292.914 334.396 295.312C336.221 295.82 338.063 296.303 339.921 296.696C341.361 296.998 340.748 299.2 339.315 298.905L339.307 298.897Z" fill="#565656"/>
<path opacity="0.3" d="M339.307 298.897C333.75 297.735 328.266 295.992 322.946 294.027C313.279 290.451 303.466 285.785 295.993 278.525C291.983 274.621 288.799 269.858 287.563 264.349C287.244 262.917 289.445 262.303 289.773 263.744C292.024 273.762 300.789 280.58 309.31 285.351C317.175 289.755 325.729 292.914 334.396 295.312C336.221 295.82 338.063 296.303 339.921 296.696C341.361 296.998 340.748 299.2 339.315 298.905L339.307 298.897Z" fill="black"/>
<path d="M317.756 288.633L329.493 295.402C330.377 293.872 329.845 291.924 328.322 291.04L322.118 287.463C320.588 286.579 318.64 287.111 317.756 288.633Z" fill="#263238"/>
<path d="M333.857 270.586L337.032 272.419L327.603 290.614L322.84 287.872L333.857 270.586Z" fill="#263238"/>
<path d="M316.15 296.017L334.411 306.559C336.342 307.672 338.814 307.009 339.927 305.077C341.04 303.145 340.377 300.674 338.446 299.561L320.185 289.019C318.254 287.905 315.782 288.568 314.669 290.5C313.556 292.432 314.219 294.903 316.15 296.017Z" fill="#263238"/>
<path opacity="0.3" d="M316.15 296.017L334.411 306.559C336.342 307.672 338.814 307.009 339.927 305.077C341.04 303.145 340.377 300.674 338.446 299.561L320.185 289.019C318.254 287.905 315.782 288.568 314.669 290.5C313.556 292.432 314.219 294.903 316.15 296.017Z" fill="white"/>
<path d="M338.302 273.444C340.895 272.747 342.432 270.08 341.734 267.487C341.037 264.894 338.37 263.357 335.777 264.054C333.184 264.751 331.647 267.418 332.344 270.011C333.042 272.604 335.709 274.141 338.302 273.444Z" fill="#565656"/>
<path opacity="0.3" d="M338.302 273.444C340.895 272.747 342.432 270.08 341.734 267.487C341.037 264.894 338.37 263.357 335.777 264.054C333.184 264.751 331.647 267.418 332.344 270.011C333.042 272.604 335.709 274.141 338.302 273.444Z" fill="black"/>
<path d="M337.717 265.544C337.93 266.051 337.463 266.731 336.686 267.05C335.908 267.369 335.106 267.214 334.893 266.706C334.681 266.199 335.147 265.519 335.925 265.2C336.702 264.881 337.504 265.036 337.717 265.544Z" fill="white"/>
<path d="M358.769 254.045C358.769 254.045 382.317 268.884 374.533 286.244C366.397 304.373 338.168 294.838 327.299 290.124C323.444 288.454 315.553 285.507 322.412 274.057C329.279 262.598 339.952 276.84 339.952 276.84C339.952 276.84 356.838 283.387 347.851 269.211C347.851 269.211 349.357 259.733 358.761 254.045H358.769Z" fill="#565656"/>
<path opacity="0.7" d="M358.769 254.045C358.769 254.045 382.317 268.884 374.533 286.244C366.397 304.373 338.168 294.838 327.299 290.124C323.444 288.454 315.553 285.507 322.412 274.057C329.279 262.598 339.952 276.84 339.952 276.84C339.952 276.84 356.838 283.387 347.851 269.211C347.851 269.211 349.357 259.733 358.761 254.045H358.769Z" fill="white"/>
<path d="M350.299 296.598C359.188 290.721 353.172 281.554 349.783 277.503C350.463 276.865 350.716 275.809 350.258 274.139C363.575 267.108 371.735 271.209 375.5 274.417C376.466 278.109 376.392 282.103 374.534 286.244C370.229 295.837 360.309 297.687 350.299 296.598Z" fill="#565656"/>
<path opacity="0.4" d="M350.299 296.598C359.188 290.721 353.172 281.554 349.783 277.503C350.463 276.865 350.716 275.809 350.258 274.139C363.575 267.108 371.735 271.209 375.5 274.417C376.466 278.109 376.392 282.103 374.534 286.244C370.229 295.837 360.309 297.687 350.299 296.598Z" fill="white"/>
<path d="M349.725 295.607C356.486 290.868 353.277 283.518 348.98 278.312C348.047 277.183 349.659 275.554 350.601 276.692C353.04 279.647 355.282 283.051 355.921 286.898C356.666 291.425 354.529 295.026 350.887 297.58C349.676 298.423 348.538 296.442 349.733 295.607H349.725Z" fill="#565656"/>
<path d="M322.412 274.057C329.279 262.598 339.952 276.84 339.952 276.84C339.952 276.84 343.619 290.271 335.811 293.341C332.463 292.252 329.517 291.09 327.299 290.124C323.444 288.454 315.553 285.508 322.412 274.057Z" fill="#565656"/>
<path opacity="0.3" d="M322.412 274.057C329.279 262.598 339.952 276.84 339.952 276.84C339.952 276.84 343.619 290.271 335.811 293.341C332.463 292.252 329.517 291.09 327.299 290.124C323.444 288.454 315.553 285.508 322.412 274.057Z" fill="white"/>
<path d="M346.754 268.909C347.851 262.328 352.705 256.5 358.197 253.063C359.449 252.277 360.595 254.258 359.351 255.035C354.317 258.186 349.963 263.498 348.964 269.514C348.719 270.963 346.517 270.349 346.754 268.909Z" fill="#565656"/>
<path d="M268.565 185.832C267.803 184.465 266.731 183.253 265.733 181.985C266.805 171.786 264.169 161.801 258.727 153.624C258.792 153.485 258.866 153.362 258.931 153.272C259.046 153.117 259.136 152.937 259.209 152.74C259.709 151.382 259.209 149.196 257.442 147.109C257.065 146.659 256.672 146.291 256.271 145.955C255.878 145.62 255.477 145.325 255.076 145.096C254.282 144.646 253.513 144.416 252.825 144.392C252.367 144.375 251.958 144.449 251.606 144.613C251.532 144.646 251.434 144.678 251.336 144.711C251.319 144.711 251.303 144.719 251.278 144.727C251.18 144.76 251.066 144.785 250.951 144.817C246.302 140.823 240.736 137.746 234.434 135.994C230.112 134.791 225.758 134.292 221.494 134.423C220.242 133.4 219.03 132.319 217.672 131.574C214.905 130.06 210.911 130.985 208.185 132.025C205.321 133.113 201.908 135.012 200.778 138.081C200.443 138.998 200.222 139.972 200.033 140.954C199.673 141.175 199.321 141.413 198.969 141.65C198.961 141.65 198.945 141.666 198.937 141.675C198.405 142.035 197.873 142.403 197.357 142.779C197.332 142.796 197.308 142.812 197.283 142.837C196.776 143.205 196.285 143.59 195.794 143.983C195.753 144.015 195.712 144.048 195.679 144.081C195.204 144.466 194.746 144.858 194.288 145.259C194.23 145.309 194.181 145.358 194.124 145.407C193.682 145.8 193.256 146.201 192.831 146.61C192.757 146.675 192.692 146.749 192.618 146.815C192.217 147.207 191.816 147.617 191.431 148.026C191.341 148.116 191.259 148.214 191.177 148.304C190.809 148.705 190.449 149.106 190.097 149.516C189.999 149.63 189.901 149.753 189.802 149.868C189.475 150.26 189.148 150.661 188.828 151.071C188.714 151.218 188.607 151.365 188.493 151.513C188.198 151.906 187.903 152.298 187.625 152.699C187.502 152.88 187.38 153.06 187.257 153.24C186.995 153.624 186.733 154.009 186.487 154.394C186.357 154.606 186.226 154.819 186.095 155.032C185.865 155.4 185.636 155.777 185.423 156.153C185.284 156.399 185.153 156.653 185.014 156.906C184.818 157.267 184.621 157.619 184.441 157.979C184.294 158.265 184.155 158.568 184.016 158.854C183.852 159.19 183.688 159.526 183.533 159.869C183.377 160.213 183.238 160.557 183.099 160.901C182.968 161.212 182.837 161.514 182.714 161.825C182.551 162.251 182.403 162.677 182.248 163.111C182.158 163.356 182.068 163.602 181.986 163.847C181.757 164.535 181.544 165.222 181.347 165.926C180.496 168.979 180.005 172.04 179.833 175.077C179.71 175.167 179.596 175.24 179.489 175.306C179.465 175.322 179.44 175.339 179.416 175.347C179.309 175.412 179.203 175.47 179.113 175.51C177.46 176.239 176.322 179.095 176.887 182.926C176.96 183.401 177.05 183.859 177.157 184.293C177.484 185.586 177.983 186.666 178.565 187.493C179.342 188.598 180.267 189.253 181.159 189.376C181.249 189.384 181.347 189.408 181.446 189.441C185.448 203.265 196.268 214.765 211.116 218.972C211.173 218.988 211.23 219.005 211.287 219.021C211.926 219.201 212.564 219.356 213.203 219.504C213.35 219.537 213.505 219.569 213.653 219.61C214.283 219.749 214.913 219.872 215.535 219.987C215.609 220.003 215.683 220.011 215.764 220.019C216.329 220.118 216.902 220.199 217.467 220.273C217.622 220.29 217.778 220.314 217.933 220.33C218.547 220.404 219.161 220.461 219.775 220.502C219.906 220.511 220.037 220.519 220.168 220.527C220.684 220.56 221.199 220.584 221.715 220.601C221.764 220.601 221.813 220.601 221.854 220.601C221.862 220.625 221.87 220.65 221.879 220.674C222.198 221.796 223.515 222.794 225.472 223.179C226.126 223.31 226.847 223.375 227.632 223.351C230.374 223.277 232.314 222.188 233.002 220.912C233.1 220.732 233.174 220.543 233.223 220.355C233.239 220.281 233.264 220.208 233.296 220.126C233.296 220.109 233.313 220.085 233.321 220.06C233.345 219.995 233.378 219.921 233.411 219.848C233.419 219.831 233.427 219.807 233.435 219.79C233.476 219.708 233.509 219.627 233.558 219.545C233.558 219.537 233.566 219.52 233.575 219.512C233.624 219.414 233.681 219.316 233.738 219.209C233.804 219.193 233.877 219.176 233.943 219.152C234.328 219.045 234.712 218.939 235.097 218.824C235.408 218.734 235.719 218.636 236.03 218.538C236.325 218.448 236.611 218.35 236.906 218.243C237.176 218.153 237.446 218.047 237.716 217.949C238.199 217.769 238.674 217.589 239.148 217.392C239.361 217.302 239.582 217.212 239.795 217.122C240.114 216.983 240.433 216.844 240.753 216.705C240.908 216.631 241.056 216.557 241.211 216.492C241.792 216.214 242.373 215.927 242.946 215.624C243.094 215.542 243.249 215.469 243.396 215.387C244.46 214.814 245.492 214.192 246.498 213.529C246.605 213.463 246.711 213.39 246.809 213.324C247.841 212.637 248.839 211.908 249.805 211.131C249.879 211.073 249.961 211.008 250.034 210.951C252.49 208.954 254.749 206.695 256.729 204.174C258.694 203.748 260.74 203.576 262.549 202.88C265.495 201.759 267.386 198.117 268.36 195.375C269.391 192.486 270.161 188.663 268.565 185.807V185.832Z" fill="#181818"/>
<path opacity="0.7" d="M268.565 185.832C267.803 184.465 266.731 183.253 265.733 181.985C266.805 171.786 264.169 161.801 258.727 153.624C258.792 153.485 258.866 153.362 258.931 153.272C259.046 153.117 259.136 152.937 259.209 152.74C259.709 151.382 259.209 149.196 257.442 147.109C257.065 146.659 256.672 146.291 256.271 145.955C255.878 145.62 255.477 145.325 255.076 145.096C254.282 144.646 253.513 144.416 252.825 144.392C252.367 144.375 251.958 144.449 251.606 144.613C251.532 144.646 251.434 144.678 251.336 144.711C251.319 144.711 251.303 144.719 251.278 144.727C251.18 144.76 251.066 144.785 250.951 144.817C246.302 140.823 240.736 137.746 234.434 135.994C230.112 134.791 225.758 134.292 221.494 134.423C220.242 133.4 219.03 132.319 217.672 131.574C214.905 130.06 210.911 130.985 208.185 132.025C205.321 133.113 201.908 135.012 200.778 138.081C200.443 138.998 200.222 139.972 200.033 140.954C199.673 141.175 199.321 141.413 198.969 141.65C198.961 141.65 198.945 141.666 198.937 141.675C198.405 142.035 197.873 142.403 197.357 142.779C197.332 142.796 197.308 142.812 197.283 142.837C196.776 143.205 196.285 143.59 195.794 143.983C195.753 144.015 195.712 144.048 195.679 144.081C195.204 144.466 194.746 144.858 194.288 145.259C194.23 145.309 194.181 145.358 194.124 145.407C193.682 145.8 193.256 146.201 192.831 146.61C192.757 146.675 192.692 146.749 192.618 146.815C192.217 147.207 191.816 147.617 191.431 148.026C191.341 148.116 191.259 148.214 191.177 148.304C190.809 148.705 190.449 149.106 190.097 149.516C189.999 149.63 189.901 149.753 189.802 149.868C189.475 150.26 189.148 150.661 188.828 151.071C188.714 151.218 188.607 151.365 188.493 151.513C188.198 151.906 187.903 152.298 187.625 152.699C187.502 152.88 187.38 153.06 187.257 153.24C186.995 153.624 186.733 154.009 186.487 154.394C186.357 154.606 186.226 154.819 186.095 155.032C185.865 155.4 185.636 155.777 185.423 156.153C185.284 156.399 185.153 156.653 185.014 156.906C184.818 157.267 184.621 157.619 184.441 157.979C184.294 158.265 184.155 158.568 184.016 158.854C183.852 159.19 183.688 159.526 183.533 159.869C183.377 160.213 183.238 160.557 183.099 160.901C182.968 161.212 182.837 161.514 182.714 161.825C182.551 162.251 182.403 162.677 182.248 163.111C182.158 163.356 182.068 163.602 181.986 163.847C181.757 164.535 181.544 165.222 181.347 165.926C180.496 168.979 180.005 172.04 179.833 175.077C179.71 175.167 179.596 175.24 179.489 175.306C179.465 175.322 179.44 175.339 179.416 175.347C179.309 175.412 179.203 175.47 179.113 175.51C177.46 176.239 176.322 179.095 176.887 182.926C176.96 183.401 177.05 183.859 177.157 184.293C177.484 185.586 177.983 186.666 178.565 187.493C179.342 188.598 180.267 189.253 181.159 189.376C181.249 189.384 181.347 189.408 181.446 189.441C185.448 203.265 196.268 214.765 211.116 218.972C211.173 218.988 211.23 219.005 211.287 219.021C211.926 219.201 212.564 219.356 213.203 219.504C213.35 219.537 213.505 219.569 213.653 219.61C214.283 219.749 214.913 219.872 215.535 219.987C215.609 220.003 215.683 220.011 215.764 220.019C216.329 220.118 216.902 220.199 217.467 220.273C217.622 220.29 217.778 220.314 217.933 220.33C218.547 220.404 219.161 220.461 219.775 220.502C219.906 220.511 220.037 220.519 220.168 220.527C220.684 220.56 221.199 220.584 221.715 220.601C221.764 220.601 221.813 220.601 221.854 220.601C221.862 220.625 221.87 220.65 221.879 220.674C222.198 221.796 223.515 222.794 225.472 223.179C226.126 223.31 226.847 223.375 227.632 223.351C230.374 223.277 232.314 222.188 233.002 220.912C233.1 220.732 233.174 220.543 233.223 220.355C233.239 220.281 233.264 220.208 233.296 220.126C233.296 220.109 233.313 220.085 233.321 220.06C233.345 219.995 233.378 219.921 233.411 219.848C233.419 219.831 233.427 219.807 233.435 219.79C233.476 219.708 233.509 219.627 233.558 219.545C233.558 219.537 233.566 219.52 233.575 219.512C233.624 219.414 233.681 219.316 233.738 219.209C233.804 219.193 233.877 219.176 233.943 219.152C234.328 219.045 234.712 218.939 235.097 218.824C235.408 218.734 235.719 218.636 236.03 218.538C236.325 218.448 236.611 218.35 236.906 218.243C237.176 218.153 237.446 218.047 237.716 217.949C238.199 217.769 238.674 217.589 239.148 217.392C239.361 217.302 239.582 217.212 239.795 217.122C240.114 216.983 240.433 216.844 240.753 216.705C240.908 216.631 241.056 216.557 241.211 216.492C241.792 216.214 242.373 215.927 242.946 215.624C243.094 215.542 243.249 215.469 243.396 215.387C244.46 214.814 245.492 214.192 246.498 213.529C246.605 213.463 246.711 213.39 246.809 213.324C247.841 212.637 248.839 211.908 249.805 211.131C249.879 211.073 249.961 211.008 250.034 210.951C252.49 208.954 254.749 206.695 256.729 204.174C258.694 203.748 260.74 203.576 262.549 202.88C265.495 201.759 267.386 198.117 268.36 195.375C269.391 192.486 270.161 188.663 268.565 185.807V185.832Z" fill="white"/>
<path opacity="0.2" d="M218.131 213.939C195.197 207.546 181.79 183.77 188.191 160.836C190.441 152.749 194.861 145.858 200.64 140.595C200.075 140.93 199.527 141.282 198.978 141.651C198.97 141.651 198.954 141.667 198.945 141.675C198.413 142.035 197.881 142.404 197.366 142.78C197.341 142.796 197.317 142.813 197.292 142.837C197.202 142.903 197.112 142.977 197.022 143.05C196.613 143.361 196.204 143.664 195.803 143.991C195.762 144.024 195.729 144.057 195.688 144.081C195.451 144.27 195.23 144.474 195 144.663C194.763 144.859 194.526 145.055 194.297 145.26C194.239 145.309 194.19 145.358 194.133 145.407C193.74 145.759 193.363 146.111 192.979 146.48C192.93 146.521 192.881 146.57 192.84 146.611C192.766 146.676 192.7 146.75 192.627 146.815C192.332 147.11 192.038 147.413 191.751 147.707C191.653 147.814 191.546 147.912 191.44 148.018C191.358 148.108 191.268 148.198 191.186 148.297C190.834 148.673 190.491 149.058 190.155 149.451C190.139 149.467 190.122 149.492 190.098 149.508C189.999 149.623 189.901 149.745 189.803 149.86C189.566 150.138 189.337 150.433 189.107 150.719C189.017 150.834 188.919 150.949 188.829 151.063C188.714 151.21 188.608 151.358 188.493 151.505C188.412 151.611 188.338 151.718 188.264 151.816C188.052 152.103 187.831 152.389 187.626 152.684C187.503 152.864 187.38 153.044 187.258 153.224C187.168 153.355 187.078 153.494 186.987 153.625C186.816 153.879 186.644 154.124 186.488 154.378C186.357 154.591 186.226 154.804 186.095 155.016C185.973 155.213 185.858 155.417 185.735 155.614C185.629 155.794 185.522 155.958 185.424 156.138C185.285 156.383 185.154 156.637 185.015 156.891C184.819 157.251 184.622 157.603 184.442 157.963C184.295 158.249 184.156 158.552 184.016 158.839C183.853 159.174 183.689 159.51 183.533 159.854C183.378 160.197 183.239 160.541 183.1 160.885C182.969 161.196 182.838 161.499 182.715 161.81C182.551 162.235 182.404 162.661 182.248 163.095C182.158 163.34 182.068 163.586 181.987 163.831C181.757 164.519 181.545 165.206 181.348 165.91C181.135 166.663 180.955 167.408 180.783 168.161C180.759 168.268 180.742 168.374 180.718 168.472C180.579 169.135 180.448 169.798 180.333 170.461C180.333 170.51 180.317 170.559 180.309 170.6C180.071 172.09 179.908 173.571 179.818 175.053C179.695 175.143 179.58 175.216 179.474 175.29C179.449 175.306 179.425 175.323 179.4 175.331C179.294 175.396 179.187 175.454 179.097 175.495C177.444 176.223 176.306 179.08 176.871 182.91C176.945 183.385 177.035 183.843 177.141 184.277C177.469 185.57 177.968 186.651 178.549 187.477C179.327 188.582 180.251 189.237 181.144 189.36C181.234 189.368 181.332 189.393 181.43 189.425C181.667 190.236 181.929 191.029 182.208 191.823C182.248 191.938 182.289 192.053 182.33 192.175C182.6 192.912 182.887 193.64 183.19 194.361C183.214 194.426 183.239 194.492 183.272 194.557C183.959 196.145 184.737 197.684 185.604 199.173C185.662 199.272 185.727 199.37 185.784 199.476C186.161 200.115 186.562 200.753 186.979 201.375C187.045 201.481 187.118 201.58 187.184 201.686C188.142 203.102 189.189 204.469 190.311 205.77C190.376 205.844 190.441 205.918 190.507 205.991C190.998 206.548 191.505 207.096 192.029 207.636C192.136 207.751 192.25 207.866 192.365 207.972C192.913 208.52 193.478 209.061 194.059 209.584C194.108 209.625 194.149 209.666 194.19 209.707C194.845 210.296 195.524 210.861 196.22 211.41C196.253 211.434 196.285 211.459 196.318 211.483C196.948 211.974 197.595 212.449 198.258 212.907C198.405 213.006 198.544 213.104 198.692 213.202C199.289 213.603 199.903 213.996 200.525 214.373C200.648 214.446 200.771 214.52 200.893 214.594C202.391 215.477 203.946 216.271 205.567 216.983C205.722 217.049 205.878 217.114 206.034 217.18C206.696 217.458 207.376 217.728 208.063 217.974C208.235 218.039 208.415 218.105 208.587 218.162C209.414 218.449 210.249 218.727 211.108 218.964C211.165 218.981 211.223 219.005 211.28 219.013C211.918 219.193 212.549 219.349 213.187 219.496C213.343 219.529 213.49 219.57 213.645 219.603C214.276 219.742 214.906 219.865 215.528 219.979C215.602 219.995 215.675 220.004 215.757 220.012C216.322 220.11 216.895 220.192 217.459 220.266C217.5 220.266 217.541 220.274 217.582 220.282C217.697 220.298 217.811 220.315 217.926 220.323C218.54 220.397 219.154 220.454 219.768 220.495C219.89 220.503 220.013 220.511 220.136 220.519C220.144 220.519 220.152 220.519 220.16 220.519C220.676 220.552 221.192 220.577 221.699 220.593C221.748 220.593 221.797 220.593 221.838 220.593C221.847 220.618 221.855 220.642 221.863 220.667C222.182 221.788 223.5 222.786 225.456 223.171C226.111 223.302 226.831 223.368 227.617 223.343C230.359 223.269 232.299 222.181 232.986 220.904C233.084 220.724 233.158 220.536 233.207 220.347C233.223 220.274 233.248 220.2 233.281 220.118C233.281 220.102 233.297 220.077 233.305 220.053C233.33 219.987 233.363 219.914 233.395 219.84C233.403 219.824 233.412 219.799 233.42 219.783C233.461 219.701 233.494 219.619 233.543 219.537C233.543 219.529 233.551 219.513 233.559 219.504C233.608 219.406 233.665 219.308 233.723 219.202C233.739 219.202 233.755 219.193 233.78 219.185C233.829 219.169 233.886 219.161 233.936 219.144C234.32 219.038 234.705 218.931 235.09 218.817C235.401 218.727 235.712 218.629 236.023 218.53C236.211 218.465 236.407 218.408 236.596 218.342C236.694 218.309 236.8 218.277 236.898 218.244C237.169 218.154 237.439 218.048 237.709 217.949C238.192 217.769 238.666 217.589 239.141 217.393C239.354 217.303 239.567 217.221 239.779 217.123C239.96 217.049 240.131 216.967 240.311 216.885C240.451 216.82 240.598 216.762 240.737 216.697C240.893 216.623 241.04 216.55 241.195 216.484C241.777 216.206 242.358 215.919 242.931 215.617C243.078 215.535 243.233 215.461 243.381 215.379C243.872 215.109 244.355 214.831 244.838 214.553C244.911 214.512 244.977 214.471 245.05 214.43C245.533 214.143 246.008 213.841 246.475 213.538C246.581 213.472 246.679 213.399 246.786 213.333C247.26 213.014 247.727 212.686 248.185 212.359C248.259 212.302 248.341 212.244 248.414 212.187C248.873 211.852 249.331 211.5 249.781 211.14C249.855 211.082 249.929 211.017 250.002 210.959C250.6 210.477 251.189 209.969 251.754 209.453C251.778 209.437 251.795 209.413 251.819 209.396C251.844 209.372 251.86 209.355 251.885 209.331C242.088 215.224 229.982 217.237 218.098 213.922L218.131 213.939Z" fill="#181818"/>
<path d="M242.792 154.607C242.096 152.97 241.499 151.308 241.016 149.606C239.87 145.53 237.382 143.688 233.191 142.526C229.295 141.438 226.038 141.56 223.083 144.261C221.642 145.579 220.112 146.75 218.491 147.83C217.836 148.272 217.231 147.2 217.886 146.758C220.087 145.284 221.822 143.009 224.008 141.675C226.733 140.013 230.605 140.529 233.51 141.331C236.293 142.101 239.747 143.59 241.294 146.209C242.628 148.46 242.8 151.538 243.84 153.993C244.142 154.713 243.078 155.327 242.767 154.599L242.792 154.607ZM259.464 179.939C258.949 180.528 259.8 181.412 260.316 180.823C261.388 179.603 262.91 178.711 263.86 177.443C265.063 175.838 264.965 173.309 264.613 171.459C264.269 169.642 263.499 167.359 261.862 166.278C260.512 165.386 258.785 165.043 257.344 164.2C256.657 163.798 256.027 164.854 256.714 165.255C257.582 165.763 258.466 166.246 259.391 166.63C261.592 167.531 262.55 168.407 263.221 170.862C263.966 173.596 263.81 175.683 261.805 177.59C260.995 178.359 260.193 179.104 259.456 179.939H259.464ZM227.167 208.717C226.439 208.406 226.119 209.592 226.84 209.895C229.647 211.082 232.135 213.104 234.894 214.225C238.225 215.576 242.194 214.053 244.92 212.089C247.654 210.124 250.346 206.842 250.125 203.257C249.937 200.213 248.939 197.217 248.808 194.099C248.775 193.313 247.547 193.305 247.58 194.099C247.662 196.071 247.76 198.101 248.137 200.041C248.456 201.67 249.119 203.184 248.75 204.894C248.194 207.489 246.23 209.568 244.151 211.066C241.949 212.645 238.847 214.053 236.056 213.317C234.574 212.924 233.42 211.802 232.111 211.058C230.531 210.157 228.837 209.429 227.167 208.717ZM195.304 183.565C195.574 182.82 194.387 182.493 194.125 183.237C192.48 187.829 189.042 191.545 192.554 196.243C194.297 198.584 197.35 200.368 200.329 199.558C202.605 198.944 204.741 197.88 207.082 197.348C207.851 197.168 207.54 195.981 206.771 196.161C205.199 196.521 203.636 196.947 202.113 197.487C201.082 197.855 200.067 198.494 198.946 198.535C196.564 198.633 194.158 196.71 193.02 194.753C190.818 190.98 194.01 187.182 195.312 183.573L195.304 183.565ZM207.72 147.552C208.506 147.445 208.178 146.258 207.409 146.365C204.454 146.758 201.254 146.07 198.422 146.7C194.87 147.486 192.095 150.948 190.319 153.887C188.469 156.94 186.603 161.384 187.962 164.985C188.96 167.629 190.638 169.986 191.555 172.761C191.801 173.506 192.996 173.203 192.742 172.45C192.071 170.412 191.318 168.382 190.303 166.491C188.085 162.342 188.936 158.585 191.375 154.525C193.675 150.695 196.589 147.838 201.156 147.969C203.358 148.035 205.543 147.846 207.728 147.56L207.72 147.552Z" fill="#181818"/>
<path opacity="0.4" d="M242.792 154.607C242.096 152.97 241.499 151.308 241.016 149.606C239.87 145.53 237.382 143.688 233.191 142.526C229.295 141.438 226.038 141.56 223.083 144.261C221.642 145.579 220.112 146.75 218.491 147.83C217.836 148.272 217.231 147.2 217.886 146.758C220.087 145.284 221.822 143.009 224.008 141.675C226.733 140.013 230.605 140.529 233.51 141.331C236.293 142.101 239.747 143.59 241.294 146.209C242.628 148.46 242.8 151.538 243.84 153.993C244.142 154.713 243.078 155.327 242.767 154.599L242.792 154.607ZM259.464 179.939C258.949 180.528 259.8 181.412 260.316 180.823C261.388 179.603 262.91 178.711 263.86 177.443C265.063 175.838 264.965 173.309 264.613 171.459C264.269 169.642 263.499 167.359 261.862 166.278C260.512 165.386 258.785 165.043 257.344 164.2C256.657 163.798 256.027 164.854 256.714 165.255C257.582 165.763 258.466 166.246 259.391 166.63C261.592 167.531 262.55 168.407 263.221 170.862C263.966 173.596 263.81 175.683 261.805 177.59C260.995 178.359 260.193 179.104 259.456 179.939H259.464ZM227.167 208.717C226.439 208.406 226.119 209.592 226.84 209.895C229.647 211.082 232.135 213.104 234.894 214.225C238.225 215.576 242.194 214.053 244.92 212.089C247.654 210.124 250.346 206.842 250.125 203.257C249.937 200.213 248.939 197.217 248.808 194.099C248.775 193.313 247.547 193.305 247.58 194.099C247.662 196.071 247.76 198.101 248.137 200.041C248.456 201.67 249.119 203.184 248.75 204.894C248.194 207.489 246.23 209.568 244.151 211.066C241.949 212.645 238.847 214.053 236.056 213.317C234.574 212.924 233.42 211.802 232.111 211.058C230.531 210.157 228.837 209.429 227.167 208.717ZM195.304 183.565C195.574 182.82 194.387 182.493 194.125 183.237C192.48 187.829 189.042 191.545 192.554 196.243C194.297 198.584 197.35 200.368 200.329 199.558C202.605 198.944 204.741 197.88 207.082 197.348C207.851 197.168 207.54 195.981 206.771 196.161C205.199 196.521 203.636 196.947 202.113 197.487C201.082 197.855 200.067 198.494 198.946 198.535C196.564 198.633 194.158 196.71 193.02 194.753C190.818 190.98 194.01 187.182 195.312 183.573L195.304 183.565ZM207.72 147.552C208.506 147.445 208.178 146.258 207.409 146.365C204.454 146.758 201.254 146.07 198.422 146.7C194.87 147.486 192.095 150.948 190.319 153.887C188.469 156.94 186.603 161.384 187.962 164.985C188.96 167.629 190.638 169.986 191.555 172.761C191.801 173.506 192.996 173.203 192.742 172.45C192.071 170.412 191.318 168.382 190.303 166.491C188.085 162.342 188.936 158.585 191.375 154.525C193.675 150.695 196.589 147.838 201.156 147.969C203.358 148.035 205.543 147.846 207.728 147.56L207.72 147.552Z" fill="white"/>
<path d="M232.986 143.262C236.792 144.326 239.575 146.266 239.198 147.6C238.822 148.934 235.441 149.155 231.635 148.091C227.83 147.027 225.047 145.088 225.423 143.753C225.792 142.419 229.18 142.198 232.986 143.262ZM260.904 167.751C260.07 167.907 259.75 169.945 260.184 172.318C260.618 174.692 261.641 176.484 262.468 176.337C263.302 176.19 263.622 174.144 263.188 171.77C262.754 169.396 261.731 167.604 260.904 167.751ZM247.391 203.306C246.335 201.833 242.873 202.504 239.665 204.812C236.456 207.112 234.713 210.173 235.769 211.646C236.825 213.12 240.287 212.448 243.495 210.14C246.704 207.84 248.447 204.779 247.391 203.306ZM199.96 197.478C201.033 196.496 200.402 194.065 198.553 192.044C196.703 190.022 194.337 189.179 193.265 190.161C192.193 191.143 192.823 193.574 194.673 195.596C196.523 197.618 198.888 198.461 199.96 197.478ZM190.441 163.536C191.8 164.355 194.796 161.875 197.128 157.987C199.461 154.099 200.247 150.293 198.888 149.475C197.529 148.656 194.534 151.136 192.201 155.024C189.868 158.904 189.083 162.718 190.441 163.536Z" fill="#181818"/>
<path opacity="0.2" d="M232.986 143.262C236.792 144.326 239.575 146.266 239.198 147.6C238.822 148.934 235.441 149.155 231.635 148.091C227.83 147.027 225.047 145.088 225.423 143.753C225.792 142.419 229.18 142.198 232.986 143.262ZM260.904 167.751C260.07 167.907 259.75 169.945 260.184 172.318C260.618 174.692 261.641 176.484 262.468 176.337C263.302 176.19 263.622 174.144 263.188 171.77C262.754 169.396 261.731 167.604 260.904 167.751ZM247.391 203.306C246.335 201.833 242.873 202.504 239.665 204.812C236.456 207.112 234.713 210.173 235.769 211.646C236.825 213.12 240.287 212.448 243.495 210.14C246.704 207.84 248.447 204.779 247.391 203.306ZM199.96 197.478C201.033 196.496 200.402 194.065 198.553 192.044C196.703 190.022 194.337 189.179 193.265 190.161C192.193 191.143 192.823 193.574 194.673 195.596C196.523 197.618 198.888 198.461 199.96 197.478ZM190.441 163.536C191.8 164.355 194.796 161.875 197.128 157.987C199.461 154.099 200.247 150.293 198.888 149.475C197.529 148.656 194.534 151.136 192.201 155.024C189.868 158.904 189.083 162.718 190.441 163.536Z" fill="white"/>
<path d="M203.022 138.442C203.505 139.736 206.902 139.662 210.602 138.279C214.301 136.887 216.904 134.71 216.413 133.417C215.922 132.124 212.533 132.197 208.834 133.581C205.134 134.972 202.531 137.149 203.022 138.442Z" fill="#181818"/>
<path opacity="0.3" d="M203.022 138.442C203.505 139.736 206.902 139.662 210.602 138.279C214.301 136.887 216.904 134.71 216.413 133.417C215.922 132.124 212.533 132.197 208.834 133.581C205.134 134.972 202.531 137.149 203.022 138.442Z" fill="white"/>
<path d="M223.533 136.657C222.141 135.822 220.799 134.93 219.514 133.948C217.967 132.769 217.001 131.673 214.873 131.468C212.319 131.223 209.504 132.033 207.204 133.089C203.783 134.66 201.851 136.534 201.114 140.209C200.738 142.067 200.214 143.868 199.559 145.652C199.428 146.021 198.831 145.857 198.97 145.489C199.854 143.074 199.92 140.414 200.779 138.081C201.908 135.012 205.321 133.113 208.186 132.025C210.912 130.985 214.906 130.06 217.672 131.574C219.858 132.769 221.65 134.824 223.844 136.133C224.179 136.338 223.868 136.862 223.524 136.657H223.533Z" fill="#181818"/>
<path opacity="0.4" d="M223.533 136.657C222.141 135.822 220.799 134.93 219.514 133.948C217.967 132.769 217.001 131.673 214.873 131.468C212.319 131.223 209.504 132.033 207.204 133.089C203.783 134.66 201.851 136.534 201.114 140.209C200.738 142.067 200.214 143.868 199.559 145.652C199.428 146.021 198.831 145.857 198.97 145.489C199.854 143.074 199.92 140.414 200.779 138.081C201.908 135.012 205.321 133.113 208.186 132.025C210.912 130.985 214.906 130.06 217.672 131.574C219.858 132.769 221.65 134.824 223.844 136.133C224.179 136.338 223.868 136.862 223.524 136.657H223.533Z" fill="white"/>
<path d="M266.84 187.289C265.539 186.814 263.394 189.449 262.052 193.157C260.71 196.873 260.677 200.262 261.978 200.736C263.28 201.211 265.424 198.576 266.767 194.868C268.109 191.152 268.142 187.763 266.84 187.289Z" fill="#181818"/>
<path opacity="0.2" d="M266.84 187.289C265.539 186.814 263.394 189.449 262.052 193.157C260.71 196.873 260.677 200.262 261.978 200.736C263.28 201.211 265.424 198.576 266.767 194.868C268.109 191.152 268.142 187.763 266.84 187.289Z" fill="white"/>
<path d="M254.881 204.06C256.419 203.544 257.966 203.102 259.546 202.758C261.453 202.341 262.91 202.324 264.449 200.835C266.29 199.051 267.51 196.382 268.197 193.951C269.22 190.326 269.049 187.641 266.732 184.703C265.562 183.213 264.539 181.641 263.598 179.988C263.401 179.644 263.909 179.301 264.105 179.644C265.374 181.879 267.354 183.663 268.566 185.832C270.162 188.689 269.392 192.511 268.361 195.4C267.387 198.15 265.488 201.784 262.55 202.906C260.225 203.79 257.5 203.822 255.069 204.641C254.692 204.763 254.496 204.182 254.873 204.06H254.881Z" fill="#181818"/>
<path opacity="0.3" d="M254.881 204.06C256.419 203.544 257.966 203.102 259.546 202.758C261.453 202.341 262.91 202.324 264.449 200.835C266.29 199.051 267.51 196.382 268.197 193.951C269.22 190.326 269.049 187.641 266.732 184.703C265.562 183.213 264.539 181.641 263.598 179.988C263.401 179.644 263.909 179.301 264.105 179.644C265.374 181.879 267.354 183.663 268.566 185.832C270.162 188.689 269.392 192.511 268.361 195.4C267.387 198.15 265.488 201.784 262.55 202.906C260.225 203.79 257.5 203.822 255.069 204.641C254.692 204.763 254.496 204.182 254.873 204.06H254.881Z" fill="white"/>
<path d="M225.03 188.989C226.135 188.94 227.314 188.776 228.549 188.465C228.885 188.384 229.106 188.007 229.049 187.631C228.991 187.254 228.68 187.017 228.328 187.099C219.26 189.349 213.874 183.268 213.825 183.203C213.596 182.932 213.203 182.932 212.957 183.203C212.712 183.481 212.695 183.923 212.933 184.193C213.137 184.43 217.475 189.333 225.038 188.981L225.03 188.989Z" fill="#181818"/>
<path d="M216.461 175.134C218.504 175.134 220.161 173.478 220.161 171.435C220.161 169.392 218.504 167.735 216.461 167.735C214.418 167.735 212.762 169.392 212.762 171.435C212.762 173.478 214.418 175.134 216.461 175.134Z" fill="#181818"/>
<path d="M237.881 175.134C239.924 175.134 241.581 173.478 241.581 171.435C241.581 169.392 239.924 167.735 237.881 167.735C235.838 167.735 234.182 169.392 234.182 171.435C234.182 173.478 235.838 175.134 237.881 175.134Z" fill="#181818"/>
<path d="M367.115 265.544C367.159 265.162 367.065 264.733 366.814 264.298C366.563 263.863 366.19 263.483 365.753 263.186C365.667 263.127 365.557 263.127 365.511 263.186C365.397 263.326 365.262 263.454 365.105 263.564C364.816 263.769 364.456 263.917 364.031 263.992C363.606 264.067 363.157 264.061 362.707 263.987C362.464 263.947 362.22 263.886 361.98 263.808C361.881 263.776 361.791 263.81 361.782 263.886C361.738 264.268 361.832 264.697 362.083 265.132C362.334 265.567 362.708 265.947 363.144 266.244C363.231 266.303 363.34 266.302 363.387 266.244C363.5 266.104 363.635 265.976 363.792 265.866C364.081 265.662 364.441 265.513 364.866 265.438C365.291 265.363 365.74 265.369 366.19 265.443C366.433 265.483 366.677 265.543 366.918 265.622C367.016 265.654 367.106 265.62 367.115 265.544Z" fill="white"/>
<path d="M365.998 260.849L364.394 262.239C364.865 262.346 365.329 262.536 365.752 262.792C365.782 262.728 365.808 262.661 365.831 262.593C365.851 262.532 365.943 262.519 366.019 262.567C366.673 262.977 367.235 263.525 367.601 264.16C367.968 264.795 368.084 265.422 367.982 265.965C367.969 266.03 367.881 266.047 367.8 266.004C367.711 265.956 367.619 265.91 367.528 265.866C367.45 266.212 367.27 266.517 366.998 266.755L369.765 267.373C369.908 267.405 369.997 267.307 369.93 267.19L366.324 260.944C366.257 260.829 366.081 260.777 365.998 260.849Z" fill="white"/>
<path d="M363.144 266.639C363.114 266.704 363.088 266.771 363.066 266.839C363.046 266.9 362.955 266.914 362.877 266.865C362.224 266.455 361.662 265.907 361.296 265.272C360.929 264.637 360.813 264.01 360.916 263.467C360.928 263.403 361.017 263.385 361.097 263.428C361.187 263.476 361.277 263.522 361.37 263.565C361.447 263.221 361.626 262.917 361.896 262.679L359.133 262.059C358.99 262.027 358.9 262.126 358.967 262.242L362.573 268.488C362.64 268.604 362.817 268.656 362.899 268.584L364.507 267.195C364.036 267.087 363.569 266.896 363.144 266.639Z" fill="white"/>
</svg>
