<svg xmlns="http://www.w3.org/2000/svg" width="40" height="40" viewBox="0 0 40 40" fill="none">
<g clip-path="url(#clip0_13435_29840)">
<path d="M33.4839 36.9056L3.14058 33.5426C1.68167 33.3809 0.630144 32.0672 0.791791 30.6083L3.58073 5.4443C3.74246 3.9854 5.05618 2.93379 6.51501 3.09552L36.8583 6.4585C38.3172 6.62022 39.3688 7.93395 39.2071 9.39277L36.4181 34.5568C36.2565 36.0157 34.9428 37.0673 33.4839 36.9056Z" fill="url(#paint0_linear_13435_29840)"/>
<path d="M39.2077 9.39259L38.1081 19.3168L35.6641 6.32593L36.8594 6.45832C38.3179 6.61973 39.3692 7.9333 39.2077 9.39259Z" fill="url(#paint1_linear_13435_29840)"/>
<path d="M37.8332 32.2309L7.83037 37.8751C6.38786 38.1465 4.99845 37.1971 4.72708 35.7546L0.0462957 10.8729C-0.225077 9.43042 0.724335 8.04101 2.16684 7.76963L32.1697 2.1254C33.6122 1.85402 35.0016 2.80344 35.273 4.24595L39.9537 29.1276C40.2251 30.5702 39.2757 31.9596 37.8332 32.2309Z" fill="url(#paint2_linear_13435_29840)"/>
<path d="M35.9141 7.65137V32.5925L37.8338 32.2313C39.2763 31.9599 40.2257 30.5705 39.9543 29.128L35.9141 7.65137Z" fill="url(#paint3_linear_13435_29840)"/>
<path d="M4.58398 34.9951L4.72681 35.7543C4.99818 37.1968 6.38759 38.1463 7.8301 37.8749L23.1379 34.9951H4.58398Z" fill="url(#paint4_linear_13435_29840)"/>
<path d="M33.2551 35.1502H2.72608C1.25824 35.1502 0.0683594 33.9603 0.0683594 32.4924V7.17433C0.0683594 5.70648 1.25824 4.5166 2.72608 4.5166H33.2551C34.7229 4.5166 35.9128 5.70648 35.9128 7.17433V32.4924C35.9128 33.9603 34.7229 35.1502 33.2551 35.1502Z" fill="url(#paint5_linear_13435_29840)"/>
<path d="M30.7662 32.6527H5.21463C3.98616 32.6527 2.99023 31.6567 2.99023 30.4283V9.23806C2.99023 8.00959 3.98616 7.01367 5.21463 7.01367H30.7662C31.9946 7.01367 32.9906 8.00959 32.9906 9.23806V30.4283C32.9906 31.6567 31.9946 32.6527 30.7662 32.6527Z" fill="#6CBEFF"/>
<path d="M19.7696 32.6531H5.21533C3.98663 32.6531 2.99023 31.6575 2.99023 30.4289V26.9551L6.68294 22.4667C7.90161 20.9841 10.17 20.9841 11.3895 22.4667L13.6887 25.262L19.7696 32.6531Z" fill="url(#paint6_linear_13435_29840)"/>
<path d="M32.9908 24.8431V30.4288C32.9908 31.6575 31.9944 32.653 30.7657 32.653H7.60742L13.6884 25.2619L21.1586 16.1809C22.3773 14.6991 24.6466 14.6991 25.8652 16.1809L32.9908 24.8431Z" fill="url(#paint7_linear_13435_29840)"/>
<path d="M10.7619 15.5403C12.504 15.5403 13.9163 14.128 13.9163 12.3859C13.9163 10.6437 12.504 9.23145 10.7619 9.23145C9.01971 9.23145 7.60742 10.6437 7.60742 12.3859C7.60742 14.128 9.01971 15.5403 10.7619 15.5403Z" fill="url(#paint8_linear_13435_29840)"/>
</g>
<defs>
<linearGradient id="paint0_linear_13435_29840" x1="10.2201" y1="7.77873" x2="32.7789" y2="35.9518" gradientUnits="userSpaceOnUse">
<stop stop-color="#FFA936"/>
<stop offset="0.4112" stop-color="#FF8548"/>
<stop offset="0.7781" stop-color="#FF6C54"/>
<stop offset="1" stop-color="#FF6359"/>
</linearGradient>
<linearGradient id="paint1_linear_13435_29840" x1="38.4697" y1="12.472" x2="36.5829" y2="12.8883" gradientUnits="userSpaceOnUse">
<stop stop-color="#F82814" stop-opacity="0"/>
<stop offset="1" stop-color="#C0272D"/>
</linearGradient>
<linearGradient id="paint2_linear_13435_29840" x1="7.07724" y1="11.1707" x2="36.8835" y2="31.5349" gradientUnits="userSpaceOnUse">
<stop stop-color="#CDEC7A"/>
<stop offset="0.2157" stop-color="#B0E995"/>
<stop offset="0.5613" stop-color="#87E4BB"/>
<stop offset="0.8347" stop-color="#6EE1D2"/>
<stop offset="1" stop-color="#65E0DB"/>
</linearGradient>
<linearGradient id="paint3_linear_13435_29840" x1="38.5639" y1="20.122" x2="35.3447" y2="20.122" gradientUnits="userSpaceOnUse">
<stop stop-color="#CDEC7A" stop-opacity="0"/>
<stop offset="0.2354" stop-color="#9AD57D" stop-opacity="0.235"/>
<stop offset="0.6035" stop-color="#51B482" stop-opacity="0.604"/>
<stop offset="0.8679" stop-color="#239F85" stop-opacity="0.868"/>
<stop offset="1" stop-color="#119786"/>
</linearGradient>
<linearGradient id="paint4_linear_13435_29840" x1="13.8609" y1="36.621" x2="13.8609" y2="34.7139" gradientUnits="userSpaceOnUse">
<stop stop-color="#CDEC7A" stop-opacity="0"/>
<stop offset="0.2354" stop-color="#9AD57D" stop-opacity="0.235"/>
<stop offset="0.6035" stop-color="#51B482" stop-opacity="0.604"/>
<stop offset="0.8679" stop-color="#239F85" stop-opacity="0.868"/>
<stop offset="1" stop-color="#119786"/>
</linearGradient>
<linearGradient id="paint5_linear_13435_29840" x1="6.92209" y1="8.76484" x2="32.4411" y2="34.2839" gradientUnits="userSpaceOnUse">
<stop stop-color="#F8F6FB"/>
<stop offset="1" stop-color="#EFDCFB"/>
</linearGradient>
<linearGradient id="paint6_linear_13435_29840" x1="2.99023" y1="32.6531" x2="21.4413" y2="25.8538" gradientUnits="userSpaceOnUse">
<stop stop-color="#6E4AFF"/>
<stop offset="1" stop-color="#CCBFFF"/>
</linearGradient>
<linearGradient id="paint7_linear_13435_29840" x1="7.60742" y1="32.653" x2="35.7049" y2="22.5884" gradientUnits="userSpaceOnUse">
<stop stop-color="#6E4AFF"/>
<stop offset="1" stop-color="#CCBFFF"/>
</linearGradient>
<linearGradient id="paint8_linear_13435_29840" x1="9.19456" y1="10.3469" x2="13.4593" y2="15.8954" gradientUnits="userSpaceOnUse">
<stop stop-color="#FFD945"/>
<stop offset="0.3043" stop-color="#FFCD3E"/>
<stop offset="0.8558" stop-color="#FFAD2B"/>
<stop offset="1" stop-color="#FFA325"/>
</linearGradient>
<clipPath id="clip0_13435_29840">
<rect width="40" height="40" fill="white"/>
</clipPath>
</defs>
</svg>