<svg xmlns="http://www.w3.org/2000/svg" width="20" height="21" viewBox="0 0 20 21" fill="none">
<path d="M10 2.375C8.39303 2.375 6.82214 2.85152 5.486 3.74431C4.14985 4.6371 3.10844 5.90605 2.49348 7.3907C1.87852 8.87535 1.71762 10.509 2.03112 12.0851C2.34463 13.6612 3.11846 15.1089 4.25476 16.2452C5.39106 17.3815 6.8388 18.1554 8.4149 18.4689C9.99099 18.7824 11.6247 18.6215 13.1093 18.0065C14.594 17.3916 15.8629 16.3502 16.7557 15.014C17.6485 13.6779 18.125 12.107 18.125 10.5C18.1223 8.34594 17.2654 6.28088 15.7423 4.75773C14.2191 3.23457 12.1541 2.37769 10 2.375ZM8.75 13C8.75 13.1658 8.68416 13.3247 8.56695 13.4419C8.44974 13.5592 8.29076 13.625 8.125 13.625C7.95924 13.625 7.80027 13.5592 7.68306 13.4419C7.56585 13.3247 7.5 13.1658 7.5 13V8C7.5 7.83424 7.56585 7.67527 7.68306 7.55806C7.80027 7.44085 7.95924 7.375 8.125 7.375C8.29076 7.375 8.44974 7.44085 8.56695 7.55806C8.68416 7.67527 8.75 7.83424 8.75 8V13ZM12.5 13C12.5 13.1658 12.4342 13.3247 12.3169 13.4419C12.1997 13.5592 12.0408 13.625 11.875 13.625C11.7092 13.625 11.5503 13.5592 11.4331 13.4419C11.3159 13.3247 11.25 13.1658 11.25 13V8C11.25 7.83424 11.3159 7.67527 11.4331 7.55806C11.5503 7.44085 11.7092 7.375 11.875 7.375C12.0408 7.375 12.1997 7.44085 12.3169 7.55806C12.4342 7.67527 12.5 7.83424 12.5 8V13Z" fill="white"/>
</svg>