<svg width="20" height="20" viewBox="0 0 20 20" fill="none" xmlns="http://www.w3.org/2000/svg">
<path d="M18.75 7.86573C18.7505 7.70152 18.7184 7.53884 18.6555 7.38715C18.5926 7.23546 18.5001 7.09779 18.3836 6.98214L13.0179 1.61573C12.9019 1.49963 12.7641 1.40753 12.6124 1.34469C12.4607 1.28185 12.2981 1.24951 12.134 1.24951C11.9698 1.24951 11.8072 1.28185 11.6555 1.34469C11.5039 1.40753 11.366 1.49963 11.25 1.61573L9.02888 3.83682L4.49763 5.5376C4.29169 5.6144 4.10955 5.74395 3.96942 5.91328C3.8293 6.08261 3.73611 6.28578 3.69919 6.50245L1.88357 17.397C1.86858 17.4865 1.8733 17.5783 1.89737 17.6658C1.92145 17.7534 1.96431 17.8346 2.02298 17.9039C2.08165 17.9732 2.15471 18.0289 2.23709 18.0671C2.31946 18.1053 2.40917 18.1251 2.49997 18.1251C2.53452 18.125 2.569 18.1221 2.6031 18.1165L13.4968 16.3009C13.7133 16.2648 13.9163 16.1723 14.0857 16.0329C14.2551 15.8934 14.3847 15.7118 14.4617 15.5064L16.1625 10.9751L18.3836 8.7501C18.5002 8.63433 18.5927 8.49653 18.6556 8.34471C18.7185 8.19288 18.7506 8.03007 18.75 7.86573ZM13.2914 15.0681L4.32185 16.5626L8.02263 12.8618C8.48486 13.1116 9.02155 13.1867 9.53459 13.0734C10.0476 12.96 10.5027 12.6658 10.8167 12.2445C11.1307 11.8232 11.2825 11.303 11.2444 10.779C11.2064 10.2549 10.981 9.76212 10.6095 9.39059C10.238 9.01907 9.74513 8.79368 9.2211 8.75563C8.69706 8.71759 8.17684 8.86942 7.75555 9.18338C7.33426 9.49734 7.04004 9.95244 6.92669 10.4655C6.81335 10.9785 6.88844 11.5152 7.13825 11.9774L3.43747 15.6798L4.932 6.70792L9.21872 5.10089L14.8984 10.7814L13.2914 15.0681ZM8.12497 10.9376C8.12497 10.7522 8.17996 10.5709 8.28297 10.4168C8.38598 10.2626 8.5324 10.1424 8.70371 10.0715C8.87501 10.0005 9.06351 9.98194 9.24537 10.0181C9.42723 10.0543 9.59427 10.1436 9.72539 10.2747C9.8565 10.4058 9.94579 10.5729 9.98196 10.7547C10.0181 10.9366 9.99957 11.1251 9.92861 11.2964C9.85765 11.4677 9.73749 11.6141 9.58332 11.7171C9.42915 11.8201 9.24789 11.8751 9.06247 11.8751C8.81383 11.8751 8.57538 11.7763 8.39956 11.6005C8.22374 11.4247 8.12497 11.1862 8.12497 10.9376ZM15.625 9.74073L10.2586 4.3751L12.1336 2.5001L17.5 7.86573L15.625 9.74073Z" fill="#667085"/>
</svg>
