<svg width="18" height="18" viewBox="0 0 18 18" fill="none" xmlns="http://www.w3.org/2000/svg">
<path d="M17.1098 8.9262L8.92744 0.74385C8.73016 0.546569 8.46259 0.435737 8.18359 0.435737C7.9046 0.435737 7.63703 0.546569 7.43974 0.74385L0.745094 7.4385C0.547813 7.63578 0.436982 7.90335 0.436981 8.18235C0.436982 8.46135 0.547812 8.72892 0.745094 8.9262L8.92744 17.1085C9.12472 17.3058 9.3923 17.4167 9.67129 17.4167C9.95029 17.4167 10.2179 17.3058 10.4151 17.1085L17.1098 10.4139C17.3071 10.2166 17.4179 9.94905 17.4179 9.67005C17.4179 9.39105 17.3071 9.12348 17.1098 8.9262ZM9.67129 16.3647L1.48894 8.18235L8.18359 1.4877L16.3659 9.67005L9.67129 16.3647Z" fill="white"/>
</svg>
