<svg width="96" height="97" viewBox="0 0 96 97" fill="none" xmlns="http://www.w3.org/2000/svg">
<g clip-path="url(#clip0_10921_57726)">
<path d="M95.9062 48.5C95.6175 64.5256 92.8031 77.4144 84.735 85.235C76.9144 93.3031 64.0256 96.1175 48 96.4062C31.9744 96.1175 19.0856 93.3031 11.265 85.235C3.19688 77.4144 0.3825 64.5256 0.09375 48.5C0.3825 32.4744 3.19688 19.5856 11.265 11.765C19.0856 3.69688 31.9744 0.8825 48 0.59375C64.0256 0.8825 76.9144 3.69688 84.735 11.765C92.8031 19.5856 95.6175 32.4744 95.9062 48.5Z" fill="url(#paint0_linear_10921_57726)"/>
<path d="M95.9062 48.5C95.6175 64.5256 92.8031 77.4144 84.735 85.235C76.9144 93.3031 64.0256 96.1175 48 96.4062C31.9744 96.1175 19.0856 93.3031 11.265 85.235C3.19688 77.4144 0.3825 64.5256 0.09375 48.5C0.3825 32.4744 3.19688 19.5856 11.265 11.765C19.0856 3.69688 31.9744 0.8825 48 0.59375C64.0256 0.8825 76.9144 3.69688 84.735 11.765C92.8031 19.5856 95.6175 32.4744 95.9062 48.5Z" fill="url(#paint1_radial_10921_57726)"/>
<path d="M57.075 94.413C77.6066 94.413 94.2507 76.7078 94.2507 54.8674C94.2507 33.027 77.6066 15.3218 57.075 15.3218C36.5435 15.3218 19.8994 33.027 19.8994 54.8674C19.8994 76.7078 36.5435 94.413 57.075 94.413Z" fill="url(#paint2_radial_10921_57726)"/>
<path d="M75.7521 52.1637C75.1802 57.6912 73.0802 62.6168 69.7427 67.0268C64.9671 73.3343 58.624 77.5531 51.5252 80.84C48.8215 82.0925 46.4608 81.92 43.9371 80.4968C37.6577 76.9625 31.864 72.83 27.2121 67.2631C22.5208 61.6493 19.714 55.3062 19.909 47.8381C19.9577 45.9631 19.9146 44.0843 19.9146 42.2075H19.9633C19.9633 39.53 19.8171 36.845 19.9952 34.1787C20.3965 28.1656 23.464 23.8043 28.9446 21.4325C34.0652 19.2162 39.559 17.9581 44.7358 15.8843C47.704 14.6937 50.2108 15.6237 52.8621 16.5237C56.8352 17.8718 60.8046 19.2293 64.789 20.54C69.6096 22.1243 73.1533 25.0775 75.0321 29.8793C75.7146 31.6175 76.0108 33.4512 76.0108 35.2831C76.0146 40.91 76.3315 46.5462 75.7521 52.1637Z" fill="white"/>
<path d="M75.7521 52.1637C75.1802 57.6912 73.0802 62.6168 69.7427 67.0268C64.9671 73.3343 58.624 77.5531 51.5252 80.84C48.8215 82.0925 46.4608 81.92 43.9371 80.4968C37.6577 76.9625 31.864 72.83 27.2121 67.2631C22.5208 61.6493 19.714 55.3062 19.909 47.8381C19.9577 45.9631 19.9146 44.0843 19.9146 42.2075H19.9633C19.9633 39.53 19.8171 36.845 19.9952 34.1787C20.3965 28.1656 23.464 23.8043 28.9446 21.4325C34.0652 19.2162 39.559 17.9581 44.7358 15.8843C47.704 14.6937 50.2108 15.6237 52.8621 16.5237C56.8352 17.8718 60.8046 19.2293 64.789 20.54C69.6096 22.1243 73.1533 25.0775 75.0321 29.8793C75.7146 31.6175 76.0108 33.4512 76.0108 35.2831C76.0146 40.91 76.3315 46.5462 75.7521 52.1637Z" fill="url(#paint3_radial_10921_57726)"/>
<path d="M48.0226 78.8657C47.1713 78.8657 46.3126 78.6051 45.317 78.0444C38.3232 74.1088 33.257 70.1094 29.3701 65.4576C24.7313 59.9076 22.5563 54.1663 22.7195 47.9076C22.7438 46.9382 22.7457 45.9688 22.742 45.0182H22.7757V42.2057C22.7757 41.3488 22.7607 40.4882 22.7476 39.6576C22.7157 37.8201 22.6876 36.0838 22.802 34.3644C23.1301 29.4388 25.5732 25.9551 30.062 24.0126C32.6982 22.8707 35.4263 22.0007 38.3138 21.0801C40.7682 20.2963 43.307 19.4863 45.7838 18.4944C46.3913 18.2507 46.9913 18.1326 47.6213 18.1326C48.8663 18.1326 50.177 18.5788 51.6938 19.0944L53.7657 19.7976C57.0863 20.9263 60.5176 22.0926 63.9113 23.2082C68.1526 24.6032 70.9351 27.1194 72.4145 30.9013C72.9357 32.2307 73.2001 33.7026 73.2001 35.2813C73.202 36.7588 73.2245 38.2494 73.2451 39.6913C73.3088 43.8988 73.3688 47.8738 72.9563 51.8732C72.4595 56.6769 70.6238 61.2032 67.502 65.3263C63.5138 70.5951 58.0613 74.7126 50.3457 78.2844C49.5001 78.6763 48.7407 78.8657 48.0226 78.8657Z" fill="white"/>
<path d="M44.7901 56.1162C43.7495 56.1162 42.7726 55.7112 42.0376 54.9762L38.3645 51.3031C37.4495 50.3881 37.4495 48.9031 38.3645 47.9881C39.2795 47.0731 40.7645 47.0731 41.6795 47.9881L44.7901 51.0987L54.3207 41.5681C55.2357 40.6531 56.7207 40.6531 57.6357 41.5681C58.5507 42.4831 58.5507 43.9681 57.6357 44.8831L47.5426 54.9762C46.8076 55.7112 45.8307 56.1162 44.7901 56.1162Z" fill="url(#paint4_linear_10921_57726)"/>
</g>
<defs>
<linearGradient id="paint0_linear_10921_57726" x1="10.9549" y1="11.4549" x2="84.7031" y2="85.2031" gradientUnits="userSpaceOnUse">
<stop stop-color="#D4BDFF"/>
<stop offset="1" stop-color="#8655FF"/>
</linearGradient>
<radialGradient id="paint1_radial_10921_57726" cx="0" cy="0" r="1" gradientUnits="userSpaceOnUse" gradientTransform="translate(7.02394 9.03106) scale(59.9151)">
<stop stop-color="#E9E0FF"/>
<stop offset="0.5565" stop-color="#DCCAFF" stop-opacity="0.444"/>
<stop offset="1" stop-color="#D4BDFF" stop-opacity="0"/>
</radialGradient>
<radialGradient id="paint2_radial_10921_57726" cx="0" cy="0" r="1" gradientUnits="userSpaceOnUse" gradientTransform="translate(57.0743 54.867) scale(38.3788 38.3788)">
<stop stop-color="#6A47D6"/>
<stop offset="0.3585" stop-color="#6C48D9" stop-opacity="0.642"/>
<stop offset="0.629" stop-color="#734BE3" stop-opacity="0.371"/>
<stop offset="0.8698" stop-color="#7E51F3" stop-opacity="0.13"/>
<stop offset="1" stop-color="#8655FF" stop-opacity="0"/>
</radialGradient>
<radialGradient id="paint3_radial_10921_57726" cx="0" cy="0" r="1" gradientUnits="userSpaceOnUse" gradientTransform="translate(59.0108 64.1063) scale(40.8921)">
<stop stop-color="#CBBAFF"/>
<stop offset="0.1442" stop-color="#D6C9FF" stop-opacity="0.856"/>
<stop offset="0.4902" stop-color="#ECE6FF" stop-opacity="0.51"/>
<stop offset="0.7876" stop-color="#FAF9FF" stop-opacity="0.212"/>
<stop offset="1" stop-color="white" stop-opacity="0"/>
</radialGradient>
<linearGradient id="paint4_linear_10921_57726" x1="12.2937" y1="10.7303" x2="85.8642" y2="84.3008" gradientUnits="userSpaceOnUse">
<stop stop-color="#D4BDFF"/>
<stop offset="1" stop-color="#8655FF"/>
</linearGradient>
<clipPath id="clip0_10921_57726">
<path d="M0 48.5C0 21.9903 21.4903 0.5 48 0.5C74.5097 0.5 96 21.9903 96 48.5C96 75.0097 74.5097 96.5 48 96.5C21.4903 96.5 0 75.0097 0 48.5Z" fill="white"/>
</clipPath>
</defs>
</svg>
