<svg xmlns="http://www.w3.org/2000/svg" width="114" height="24" viewBox="0 0 114 24" fill="none">
  <g clip-path="url(#clip0_11392_53024)">
    <path d="M18.4741 16.3128C19.2575 15.0705 19.7135 13.59 19.7135 11.9984C19.7135 10.4067 19.2575 8.92624 18.4741 7.68398C18.3181 7.43694 17.9941 7.37518 17.7575 7.54105C17.1798 7.94161 16.5609 8.2857 15.9095 8.56098C14.7043 9.07094 13.3843 9.35151 11.9992 9.35151C10.6141 9.35151 9.29405 9.07094 8.08891 8.56098C7.43748 8.2857 6.81863 7.94161 6.24263 7.54105C6.00434 7.37518 5.68034 7.43694 5.52434 7.68398C4.74091 8.92624 4.28491 10.4067 4.28491 11.9984C4.28491 13.59 4.74091 15.0705 5.52434 16.3128C5.68034 16.5598 6.00434 16.6216 6.24263 16.4557C6.81863 16.0551 7.43748 15.711 8.08891 15.4375C9.29405 14.9276 10.6141 14.6452 11.9992 14.6452C13.3843 14.6452 14.7043 14.9276 15.9095 15.4375C16.5609 15.711 17.1798 16.0551 17.7575 16.4557C17.9941 16.6216 18.3181 16.5598 18.4741 16.3128Z" fill="white"/>
    <path d="M23.1976 0.0615217L16.0765 3.7389C17.285 4.37062 18.3342 5.27408 19.1502 6.37341C19.3473 6.17578 19.5393 5.97109 19.7227 5.75757C19.8873 5.567 20.1805 5.57582 20.3245 5.78051C21.5587 7.52568 22.2856 9.67493 22.2856 11.9989C22.2856 14.3228 21.5587 16.4721 20.3262 18.2172C20.1805 18.4237 19.8873 18.4308 19.7227 18.2402C19.541 18.0267 19.349 17.8202 19.1519 17.6226C18.3325 18.7254 17.2782 19.6342 16.0645 20.2659L23.1993 23.938C23.5662 24.1286 23.9999 23.8533 23.9999 23.428V0.56972C23.9999 0.146221 23.5662 -0.129053 23.1976 0.0615217Z" fill="white"/>
    <path d="M4.84971 17.6226C4.65086 17.8202 4.45886 18.0267 4.27714 18.2402C4.11429 18.4308 3.81943 18.4237 3.67371 18.2172C2.44114 16.4721 1.71429 14.3228 1.71429 11.9989C1.71429 9.67493 2.44286 7.52568 3.67543 5.78051C3.82114 5.57582 4.11429 5.567 4.27714 5.75757C4.46057 5.97109 4.65086 6.17578 4.84971 6.37341C5.66743 5.27408 6.71657 4.37062 7.92343 3.7389L0.802286 0.0615217C0.433714 -0.129053 0 0.146221 0 0.56972V23.428C0 23.8533 0.433714 24.1286 0.800571 23.938L7.93543 20.2659C6.72343 19.6342 5.66743 18.7254 4.84971 17.6226Z" fill="white"/>
    <path d="M29.999 15.2682L31.6447 14.2747C32.111 15.6264 33.0745 16.2952 34.5385 16.2952C36.0025 16.2952 36.7002 15.6617 36.7002 14.7212C36.7002 14.2253 36.5013 13.8653 36.119 13.6095C35.7367 13.3518 35.0373 13.0625 34.0567 12.7537C32.9425 12.4113 32.3939 12.189 31.6122 11.6579C30.863 11.1108 30.4807 10.3221 30.4807 9.24391C30.4807 8.16576 30.8459 7.34347 31.5779 6.72763C32.3099 6.09415 33.191 5.78711 34.2213 5.78711C36.083 5.78711 37.5299 6.78057 38.279 8.42339L36.6659 9.38155C36.1842 8.26987 35.3682 7.70344 34.2213 7.70344C33.0745 7.70344 32.3922 8.28575 32.3922 9.19274C32.3922 10.0997 32.9579 10.4932 34.7373 11.0579C35.1865 11.2114 35.5019 11.3155 35.7025 11.4002C35.9185 11.469 36.2013 11.589 36.5665 11.7426C36.9487 11.8961 37.2316 12.0672 37.415 12.2225C38.0305 12.7184 38.6956 13.5407 38.6116 14.6876C38.6116 15.7658 38.2293 16.6393 37.4647 17.2727C36.7156 17.9062 35.7196 18.215 34.4887 18.215C32.2447 18.215 30.6145 17.1016 29.999 15.2717V15.2682Z" fill="white"/>
    <path d="M46.0409 6.00781C47.138 6.00781 48.0534 6.38367 48.7837 7.13714C49.5329 7.89062 49.898 8.83113 49.898 9.94458C49.898 11.058 49.5329 11.9809 48.7837 12.752C48.0517 13.5055 47.138 13.8814 46.0409 13.8814H43.6631V17.9893H41.75V6.00781H46.0409ZM46.0409 12.0321C47.1723 12.0321 47.9866 11.1586 47.9866 9.94458C47.9866 8.73055 47.1723 7.85709 46.0409 7.85709H43.6631V12.0338H46.0409V12.0321Z" fill="white"/>
    <path d="M59.8928 17.9893L59.0785 15.5753H54.1225L53.3082 17.9893H51.2305L55.4545 6.00781H57.7499L61.9568 17.9893H59.8945H59.8928ZM54.755 13.7278H58.4459L56.5996 8.31941L54.7533 13.7278H54.755Z" fill="white"/>
    <path d="M65.7004 16.4328C64.5536 15.2347 63.9707 13.763 63.9707 12.0002C63.9707 10.2374 64.5536 8.76571 65.7004 7.58345C66.8473 6.3853 68.3113 5.78711 70.0564 5.78711C72.1684 5.78711 74.0644 6.88291 75.0621 8.64572L73.3993 9.63918C72.7838 8.45868 71.5204 7.7052 70.0564 7.7052C68.8084 7.7052 67.8107 8.11635 67.0307 8.921C66.2661 9.72564 65.8838 10.7526 65.8838 12.0019C65.8838 13.2513 66.2661 14.2783 67.0307 15.0829C67.8124 15.8875 68.8101 16.2987 70.0564 16.2987C71.5204 16.2987 72.7993 15.5452 73.3993 14.3647L75.0621 15.3405C74.5804 16.214 73.881 16.9145 72.9844 17.4457C72.1033 17.9592 71.1227 18.2168 70.0581 18.2168C68.3113 18.2168 66.849 17.6168 65.7021 16.4363L65.7004 16.4328Z" fill="white"/>
    <path d="M80.3528 16.1065H85.5077V17.9893H78.4414V6.00781H85.4254V7.89062H80.3545V11.0051H85.0106V12.8703H80.3545V16.1047L80.3528 16.1065Z" fill="white"/>
    <path d="M99.1413 6.00781C100.737 6.00781 102.068 6.59012 103.115 7.7371C104.18 8.88407 104.711 10.3046 104.711 11.9985C104.711 13.6925 104.18 15.0971 103.115 16.26C102.068 17.407 100.737 17.9893 99.1413 17.9893H94.5693V6.00781H99.1413ZM99.1413 16.1065C100.238 16.1065 101.137 15.713 101.819 14.9419C102.517 14.1707 102.866 13.1791 102.866 11.9985C102.866 10.818 102.517 9.82459 101.819 9.05524C101.137 8.28588 100.24 7.89062 99.1413 7.89062H96.4808V16.1065H99.1413Z" fill="white"/>
    <path d="M113.999 7.89062H109.095V11.2451H113.833V13.1279H109.095V17.9893H107.182V6.00781H113.999V7.89062Z" fill="white"/>
    <path d="M89.7871 13.2107C90.4375 13.2107 90.9648 12.6679 90.9648 11.9984C90.9648 11.3289 90.4375 10.7861 89.7871 10.7861C89.1367 10.7861 88.6094 11.3289 88.6094 11.9984C88.6094 12.6679 89.1367 13.2107 89.7871 13.2107Z" fill="white"/>
  </g>
  <defs>
    <clipPath id="clip0_11392_53024">
      <rect width="114" height="24" fill="white"/>
    </clipPath>
  </defs>
</svg>