<svg width="636" height="874" viewBox="0 0 636 874" fill="none" xmlns="http://www.w3.org/2000/svg">
<g clip-path="url(#clip0_6155_40351)" filter="url(#filter0_d_6155_40351)">
<g clip-path="url(#clip1_6155_40351)">
<mask id="path-1-inside-1_6155_40351" fill="white">
<path d="M4 54H284V1078H4V54Z"/>
</mask>
<path d="M4 54H284V1078H4V54Z" fill="#171A28"/>
<path d="M283 54V1078H285V54H283Z" fill="#242A46" mask="url(#path-1-inside-1_6155_40351)"/>
<rect x="20.5" y="70.5" width="215" height="47" rx="11.5" stroke="#242A46"/>
<path d="M24 82C24 77.5817 27.5817 74 32 74H56C60.4183 74 64 77.5817 64 82V106C64 110.418 60.4183 114 56 114H32C27.5817 114 24 110.418 24 106V82Z" fill="#A485DC"/>
<path d="M54.5 99.2501H53.75V87.4282L54.6566 87.2332C54.755 87.2148 54.8487 87.1768 54.9321 87.1216C55.0156 87.0663 55.0872 86.995 55.1427 86.9116C55.1981 86.8283 55.2364 86.7347 55.2551 86.6363C55.2738 86.538 55.2726 86.4369 55.2517 86.339C55.2307 86.2411 55.1904 86.1484 55.133 86.0664C55.0756 85.9843 55.0024 85.9146 54.9177 85.8613C54.833 85.808 54.7384 85.7722 54.6396 85.756C54.5408 85.7398 54.4398 85.7435 54.3425 85.767L33.3425 90.267C33.1616 90.306 33.0015 90.4106 32.893 90.5605C32.7845 90.7105 32.7353 90.8953 32.7549 91.0793C32.7744 91.2634 32.8613 91.4337 32.9989 91.5575C33.1364 91.6813 33.3149 91.7499 33.5 91.7501C33.5533 91.75 33.6064 91.7444 33.6584 91.7332L34.25 91.6067V99.2501H33.5C33.3011 99.2501 33.1103 99.3291 32.9697 99.4698C32.829 99.6104 32.75 99.8012 32.75 100C32.75 100.199 32.829 100.39 32.9697 100.53C33.1103 100.671 33.3011 100.75 33.5 100.75H54.5C54.6989 100.75 54.8897 100.671 55.0303 100.53C55.171 100.39 55.25 100.199 55.25 100C55.25 99.8012 55.171 99.6104 55.0303 99.4698C54.8897 99.3291 54.6989 99.2501 54.5 99.2501ZM49.25 99.2501H38.75V97.7501H49.25V99.2501ZM49.25 96.2501H38.75V94.7501H49.25V96.2501Z" fill="#4006AA"/>
<path d="M76.732 90.168C76.0787 90.168 75.472 90.0467 74.912 89.804C74.352 89.552 73.876 89.2113 73.484 88.782C73.092 88.3527 72.8027 87.858 72.616 87.298L74.016 86.71C74.268 87.354 74.6367 87.8487 75.122 88.194C75.6073 88.5393 76.1673 88.712 76.802 88.712C77.1753 88.712 77.502 88.656 77.782 88.544C78.062 88.4227 78.2767 88.2547 78.426 88.04C78.5847 87.8253 78.664 87.578 78.664 87.298C78.664 86.9153 78.5567 86.612 78.342 86.388C78.1273 86.164 77.81 85.9867 77.39 85.856L75.43 85.24C74.646 84.9973 74.0487 84.6287 73.638 84.134C73.2273 83.63 73.022 83.042 73.022 82.37C73.022 81.782 73.1667 81.2687 73.456 80.83C73.7453 80.382 74.142 80.032 74.646 79.78C75.1593 79.528 75.7427 79.402 76.396 79.402C77.0213 79.402 77.5907 79.514 78.104 79.738C78.6173 79.9527 79.056 80.2513 79.42 80.634C79.7933 81.0167 80.064 81.46 80.232 81.964L78.86 82.566C78.6547 82.0153 78.3327 81.5907 77.894 81.292C77.4647 80.9933 76.9653 80.844 76.396 80.844C76.0507 80.844 75.7473 80.9047 75.486 81.026C75.2247 81.138 75.0193 81.306 74.87 81.53C74.73 81.7447 74.66 81.9967 74.66 82.286C74.66 82.622 74.7673 82.9207 74.982 83.182C75.1967 83.4433 75.5233 83.6393 75.962 83.77L77.782 84.344C78.6127 84.596 79.238 84.96 79.658 85.436C80.078 85.9027 80.288 86.486 80.288 87.186C80.288 87.7647 80.134 88.278 79.826 88.726C79.5273 89.174 79.112 89.5287 78.58 89.79C78.048 90.042 77.432 90.168 76.732 90.168ZM81.9885 92.8V82.426H83.5005V83.994L83.3185 83.63C83.5985 83.2007 83.9718 82.8647 84.4385 82.622C84.9051 82.3793 85.4371 82.258 86.0345 82.258C86.7531 82.258 87.3971 82.4307 87.9665 82.776C88.5451 83.1213 88.9978 83.5927 89.3245 84.19C89.6605 84.7873 89.8285 85.4593 89.8285 86.206C89.8285 86.9527 89.6605 87.6247 89.3245 88.222C88.9978 88.8193 88.5498 89.2953 87.9805 89.65C87.4111 89.9953 86.7625 90.168 86.0345 90.168C85.4465 90.168 84.9098 90.0467 84.4245 89.804C83.9485 89.5613 83.5798 89.2113 83.3185 88.754L83.5705 88.46V92.8H81.9885ZM85.8805 88.698C86.3285 88.698 86.7251 88.5907 87.0705 88.376C87.4158 88.1613 87.6865 87.8673 87.8825 87.494C88.0878 87.1113 88.1905 86.682 88.1905 86.206C88.1905 85.73 88.0878 85.3053 87.8825 84.932C87.6865 84.5587 87.4158 84.2647 87.0705 84.05C86.7251 83.8353 86.3285 83.728 85.8805 83.728C85.4418 83.728 85.0451 83.8353 84.6905 84.05C84.3451 84.2647 84.0698 84.5587 83.8645 84.932C83.6685 85.3053 83.5705 85.73 83.5705 86.206C83.5705 86.682 83.6685 87.1113 83.8645 87.494C84.0698 87.8673 84.3451 88.1613 84.6905 88.376C85.0451 88.5907 85.4418 88.698 85.8805 88.698ZM93.6354 90.168C93.122 90.168 92.6694 90.0793 92.2774 89.902C91.8947 89.7153 91.596 89.4633 91.3814 89.146C91.1667 88.8193 91.0594 88.4367 91.0594 87.998C91.0594 87.5873 91.148 87.2187 91.3254 86.892C91.512 86.5653 91.7967 86.29 92.1794 86.066C92.562 85.842 93.0427 85.6833 93.6214 85.59L96.2534 85.156V86.402L93.9294 86.808C93.5094 86.8827 93.2014 87.018 93.0054 87.214C92.8094 87.4007 92.7114 87.6433 92.7114 87.942C92.7114 88.2313 92.8187 88.4693 93.0334 88.656C93.2574 88.8333 93.542 88.922 93.8874 88.922C94.3167 88.922 94.69 88.8287 95.0074 88.642C95.334 88.4553 95.586 88.208 95.7634 87.9C95.9407 87.5827 96.0294 87.2327 96.0294 86.85V84.904C96.0294 84.5307 95.8894 84.2273 95.6094 83.994C95.3387 83.7513 94.9747 83.63 94.5174 83.63C94.0974 83.63 93.7287 83.742 93.4114 83.966C93.1034 84.1807 92.8747 84.4607 92.7254 84.806L91.4094 84.148C91.5494 83.7747 91.778 83.448 92.0954 83.168C92.4127 82.8787 92.7814 82.6547 93.2014 82.496C93.6307 82.3373 94.0834 82.258 94.5594 82.258C95.1567 82.258 95.684 82.37 96.1414 82.594C96.608 82.818 96.9674 83.1307 97.2194 83.532C97.4807 83.924 97.6114 84.3813 97.6114 84.904V90H96.0994V88.628L96.4214 88.67C96.244 88.978 96.0154 89.244 95.7354 89.468C95.4647 89.692 95.152 89.8647 94.7974 89.986C94.452 90.1073 94.0647 90.168 93.6354 90.168ZM103.059 90.168C102.303 90.168 101.631 89.9953 101.043 89.65C100.464 89.2953 100.002 88.8193 99.6571 88.222C99.3211 87.6247 99.1531 86.948 99.1531 86.192C99.1531 85.4453 99.3211 84.7733 99.6571 84.176C99.9931 83.5787 100.455 83.112 101.043 82.776C101.631 82.4307 102.303 82.258 103.059 82.258C103.572 82.258 104.053 82.3513 104.501 82.538C104.949 82.7153 105.336 82.9627 105.663 83.28C105.999 83.5973 106.246 83.966 106.405 84.386L105.019 85.03C104.86 84.638 104.604 84.3253 104.249 84.092C103.904 83.8493 103.507 83.728 103.059 83.728C102.63 83.728 102.242 83.8353 101.897 84.05C101.561 84.2553 101.295 84.5493 101.099 84.932C100.903 85.3053 100.805 85.73 100.805 86.206C100.805 86.682 100.903 87.1113 101.099 87.494C101.295 87.8673 101.561 88.1613 101.897 88.376C102.242 88.5907 102.63 88.698 103.059 88.698C103.516 88.698 103.913 88.5813 104.249 88.348C104.594 88.1053 104.851 87.7833 105.019 87.382L106.405 88.04C106.256 88.4413 106.013 88.8053 105.677 89.132C105.35 89.4493 104.963 89.7013 104.515 89.888C104.067 90.0747 103.582 90.168 103.059 90.168ZM111.507 90.168C110.751 90.168 110.079 89.9953 109.491 89.65C108.913 89.2953 108.46 88.8193 108.133 88.222C107.807 87.6153 107.643 86.9387 107.643 86.192C107.643 85.4267 107.807 84.75 108.133 84.162C108.469 83.574 108.917 83.112 109.477 82.776C110.037 82.4307 110.672 82.258 111.381 82.258C111.951 82.258 112.459 82.356 112.907 82.552C113.355 82.748 113.733 83.0187 114.041 83.364C114.349 83.7 114.583 84.0873 114.741 84.526C114.909 84.9647 114.993 85.4313 114.993 85.926C114.993 86.0473 114.989 86.1733 114.979 86.304C114.97 86.4347 114.951 86.556 114.923 86.668H108.889V85.408H114.027L113.271 85.982C113.365 85.5247 113.332 85.1187 113.173 84.764C113.024 84.4 112.791 84.1153 112.473 83.91C112.165 83.6953 111.801 83.588 111.381 83.588C110.961 83.588 110.588 83.6953 110.261 83.91C109.935 84.1153 109.683 84.414 109.505 84.806C109.328 85.1887 109.258 85.6553 109.295 86.206C109.249 86.7193 109.319 87.1673 109.505 87.55C109.701 87.9327 109.972 88.2313 110.317 88.446C110.672 88.6607 111.073 88.768 111.521 88.768C111.979 88.768 112.366 88.6653 112.683 88.46C113.01 88.2547 113.267 87.9887 113.453 87.662L114.741 88.292C114.592 88.6467 114.359 88.9687 114.041 89.258C113.733 89.538 113.36 89.762 112.921 89.93C112.492 90.0887 112.021 90.168 111.507 90.168ZM119.139 90V79.57H122.555C123.637 79.57 124.575 79.7893 125.369 80.228C126.171 80.6573 126.792 81.264 127.231 82.048C127.669 82.832 127.889 83.742 127.889 84.778C127.889 85.8047 127.669 86.7147 127.231 87.508C126.792 88.292 126.171 88.9033 125.369 89.342C124.575 89.7807 123.637 90 122.555 90H119.139ZM120.791 88.53H122.583C123.32 88.53 123.959 88.376 124.501 88.068C125.051 87.76 125.476 87.326 125.775 86.766C126.073 86.206 126.223 85.5433 126.223 84.778C126.223 84.0127 126.069 83.3547 125.761 82.804C125.462 82.244 125.042 81.81 124.501 81.502C123.959 81.194 123.32 81.04 122.583 81.04H120.791V88.53ZM129.516 90V79.57H136.306V81.04H131.168V84.176H135.746V85.646H131.168V90H129.516ZM141.525 90V80.97H139.523V79.57H143.163V90H141.525Z" fill="white"/>
<path d="M72 100C72 97.7909 73.7909 96 76 96H122C124.209 96 126 97.7909 126 100V110C126 112.209 124.209 114 122 114H76C73.7909 114 72 112.209 72 110V100Z" fill="#4006AA"/>
<path d="M80.132 110L83.276 101.06H85.028L88.172 110H86.66L85.976 107.996H82.34L81.644 110H80.132ZM82.748 106.736H85.544L83.96 102.056H84.356L82.748 106.736ZM91.8662 110.144C91.2422 110.144 90.6822 109.996 90.1862 109.7C89.6982 109.396 89.3102 108.988 89.0222 108.476C88.7422 107.964 88.6022 107.388 88.6022 106.748C88.6022 106.108 88.7462 105.532 89.0342 105.02C89.3222 104.508 89.7102 104.104 90.1982 103.808C90.6862 103.512 91.2382 103.364 91.8542 103.364C92.3742 103.364 92.8342 103.468 93.2342 103.676C93.6342 103.884 93.9502 104.172 94.1822 104.54L93.9782 104.852V100.916H95.3222V110H94.0382V108.68L94.1942 108.932C93.9702 109.324 93.6502 109.624 93.2342 109.832C92.8182 110.04 92.3622 110.144 91.8662 110.144ZM91.9982 108.884C92.3742 108.884 92.7102 108.792 93.0062 108.608C93.3102 108.424 93.5462 108.172 93.7142 107.852C93.8902 107.524 93.9782 107.156 93.9782 106.748C93.9782 106.34 93.8902 105.976 93.7142 105.656C93.5462 105.336 93.3102 105.084 93.0062 104.9C92.7102 104.716 92.3742 104.624 91.9982 104.624C91.6222 104.624 91.2822 104.716 90.9782 104.9C90.6742 105.084 90.4382 105.336 90.2702 105.656C90.1022 105.976 90.0182 106.34 90.0182 106.748C90.0182 107.156 90.1022 107.524 90.2702 107.852C90.4382 108.172 90.6702 108.424 90.9662 108.608C91.2702 108.792 91.6142 108.884 91.9982 108.884ZM96.9053 110V103.508H98.2013V104.912L98.0333 104.696C98.1693 104.256 98.4173 103.924 98.7773 103.7C99.1373 103.476 99.5493 103.364 100.013 103.364C100.533 103.364 100.993 103.504 101.393 103.784C101.801 104.056 102.073 104.42 102.209 104.876L101.825 104.912C102.017 104.392 102.309 104.004 102.701 103.748C103.101 103.492 103.557 103.364 104.069 103.364C104.517 103.364 104.921 103.468 105.281 103.676C105.649 103.884 105.941 104.172 106.157 104.54C106.373 104.908 106.481 105.328 106.481 105.8V110H105.125V106.172C105.125 105.844 105.065 105.568 104.945 105.344C104.833 105.112 104.673 104.936 104.465 104.816C104.265 104.688 104.029 104.624 103.757 104.624C103.485 104.624 103.245 104.688 103.037 104.816C102.829 104.936 102.665 105.112 102.545 105.344C102.425 105.576 102.365 105.852 102.365 106.172V110H101.021V106.172C101.021 105.844 100.961 105.568 100.841 105.344C100.729 105.112 100.569 104.936 100.361 104.816C100.161 104.688 99.9213 104.624 99.6413 104.624C99.3693 104.624 99.1293 104.688 98.9213 104.816C98.7133 104.936 98.5493 105.112 98.4293 105.344C98.3173 105.576 98.2613 105.852 98.2613 106.172V110H96.9053ZM107.933 110V103.508H109.289V110H107.933ZM107.933 102.62V101.06H109.289V102.62H107.933ZM110.874 110V103.508H112.17V104.78L112.014 104.612C112.174 104.204 112.43 103.896 112.782 103.688C113.134 103.472 113.542 103.364 114.006 103.364C114.486 103.364 114.91 103.468 115.278 103.676C115.646 103.884 115.934 104.172 116.142 104.54C116.35 104.908 116.454 105.332 116.454 105.812V110H115.11V106.172C115.11 105.844 115.05 105.568 114.93 105.344C114.81 105.112 114.638 104.936 114.414 104.816C114.198 104.688 113.95 104.624 113.67 104.624C113.39 104.624 113.138 104.688 112.914 104.816C112.698 104.936 112.53 105.112 112.41 105.344C112.29 105.576 112.23 105.852 112.23 106.172V110H110.874Z" fill="white"/>
<path d="M226.193 97.3073C226.251 97.3654 226.297 97.4343 226.328 97.5102C226.36 97.5861 226.376 97.6674 226.376 97.7495C226.376 97.8316 226.36 97.913 226.328 97.9889C226.297 98.0647 226.251 98.1337 226.193 98.1917L222.443 101.942C222.384 102 222.316 102.046 222.24 102.077C222.164 102.109 222.082 102.125 222 102.125C221.918 102.125 221.837 102.109 221.761 102.077C221.685 102.046 221.616 102 221.558 101.942L217.808 98.1917C217.691 98.0744 217.625 97.9154 217.625 97.7495C217.625 97.5837 217.691 97.4246 217.808 97.3073C217.925 97.1901 218.084 97.1242 218.25 97.1242C218.416 97.1242 218.575 97.1901 218.693 97.3073L222 100.616L225.308 97.3073C225.366 97.2492 225.435 97.2031 225.511 97.1717C225.587 97.1402 225.668 97.124 225.75 97.124C225.832 97.124 225.914 97.1402 225.99 97.1717C226.066 97.2031 226.134 97.2492 226.193 97.3073ZM218.693 90.6917L222 87.3831L225.308 90.6917C225.425 90.809 225.584 90.8749 225.75 90.8749C225.916 90.8749 226.075 90.809 226.193 90.6917C226.31 90.5744 226.376 90.4154 226.376 90.2495C226.376 90.0837 226.31 89.9246 226.193 89.8073L222.443 86.0573C222.384 85.9992 222.316 85.9531 222.24 85.9217C222.164 85.8902 222.082 85.874 222 85.874C221.918 85.874 221.837 85.8902 221.761 85.9217C221.685 85.9531 221.616 85.9992 221.558 86.0573L217.808 89.8073C217.691 89.9246 217.625 90.0837 217.625 90.2495C217.625 90.4154 217.691 90.5744 217.808 90.6917C217.925 90.809 218.084 90.8749 218.25 90.8749C218.416 90.8749 218.575 90.809 218.693 90.6917Z" fill="#667085"/>
<path d="M264.875 87.125H251.125C250.793 87.125 250.476 87.2567 250.241 87.4911C250.007 87.7255 249.875 88.0435 249.875 88.375V99.625C249.875 99.9565 250.007 100.274 250.241 100.509C250.476 100.743 250.793 100.875 251.125 100.875H264.875C265.207 100.875 265.524 100.743 265.759 100.509C265.993 100.274 266.125 99.9565 266.125 99.625V88.375C266.125 88.0435 265.993 87.7255 265.759 87.4911C265.524 87.2567 265.207 87.125 264.875 87.125ZM264.875 99.625H254.875V88.375H264.875V99.625Z" fill="#667085"/>
<path d="M20 138C20 133.582 23.5817 130 28 130H260C264.418 130 268 133.582 268 138V162C268 166.418 264.418 170 260 170H28C23.5817 170 20 166.418 20 162V138Z" fill="#090C18"/>
<path d="M48.1479 156.352L44.6273 152.832C45.6477 151.607 46.1566 150.036 46.048 148.445C45.9394 146.854 45.2217 145.367 44.0443 144.292C42.8668 143.217 41.3203 142.637 39.7264 142.673C38.1324 142.71 36.6138 143.359 35.4864 144.486C34.359 145.614 33.7097 147.132 33.6735 148.726C33.6373 150.32 34.2169 151.867 35.2919 153.044C36.3669 154.222 37.8545 154.939 39.4451 155.048C41.0358 155.157 42.6071 154.648 43.8321 153.627L47.3519 157.148C47.4042 157.2 47.4663 157.242 47.5345 157.27C47.6028 157.298 47.676 157.313 47.7499 157.313C47.8238 157.313 47.897 157.298 47.9653 157.27C48.0336 157.242 48.0956 157.2 48.1479 157.148C48.2001 157.096 48.2416 157.034 48.2699 156.965C48.2982 156.897 48.3127 156.824 48.3127 156.75C48.3127 156.676 48.2982 156.603 48.2699 156.535C48.2416 156.466 48.2001 156.404 48.1479 156.352ZM34.8124 148.875C34.8124 147.874 35.1093 146.895 35.6656 146.062C36.2219 145.23 37.0125 144.581 37.9376 144.198C38.8626 143.815 39.8805 143.714 40.8626 143.91C41.8446 144.105 42.7466 144.587 43.4546 145.295C44.1626 146.003 44.6448 146.905 44.8401 147.887C45.0355 148.869 44.9352 149.887 44.5521 150.812C44.1689 151.737 43.52 152.528 42.6875 153.084C41.855 153.641 40.8762 153.937 39.8749 153.937C38.5327 153.936 37.2459 153.402 36.2968 152.453C35.3478 151.504 34.8139 150.217 34.8124 148.875Z" fill="#6A749C"/>
<path d="M62.746 156.168C62.0833 156.168 61.4767 156.047 60.926 155.804C60.3753 155.552 59.9087 155.211 59.526 154.782C59.1433 154.353 58.868 153.872 58.7 153.34L59.89 152.85C60.142 153.522 60.5153 154.04 61.01 154.404C61.514 154.759 62.102 154.936 62.774 154.936C63.1847 154.936 63.544 154.871 63.852 154.74C64.16 154.609 64.398 154.427 64.566 154.194C64.7433 153.951 64.832 153.671 64.832 153.354C64.832 152.915 64.706 152.57 64.454 152.318C64.2113 152.057 63.852 151.861 63.376 151.73L61.458 151.142C60.702 150.909 60.1233 150.54 59.722 150.036C59.3207 149.532 59.12 148.953 59.12 148.3C59.12 147.731 59.2553 147.231 59.526 146.802C59.806 146.363 60.1887 146.023 60.674 145.78C61.1687 145.528 61.7287 145.402 62.354 145.402C62.9793 145.402 63.544 145.514 64.048 145.738C64.5613 145.962 64.9953 146.265 65.35 146.648C65.7047 147.021 65.966 147.451 66.134 147.936L64.958 148.426C64.734 147.838 64.398 147.395 63.95 147.096C63.502 146.788 62.9747 146.634 62.368 146.634C61.9947 146.634 61.6633 146.699 61.374 146.83C61.094 146.951 60.8747 147.133 60.716 147.376C60.5667 147.609 60.492 147.889 60.492 148.216C60.492 148.599 60.6133 148.939 60.856 149.238C61.0987 149.537 61.4673 149.765 61.962 149.924L63.712 150.442C64.5333 150.694 65.154 151.053 65.574 151.52C65.994 151.987 66.204 152.565 66.204 153.256C66.204 153.825 66.0547 154.329 65.756 154.768C65.4667 155.207 65.0607 155.552 64.538 155.804C64.0247 156.047 63.4273 156.168 62.746 156.168ZM71.5308 156.168C70.8028 156.168 70.1541 155.995 69.5848 155.65C69.0154 155.305 68.5674 154.833 68.2408 154.236C67.9141 153.629 67.7508 152.953 67.7508 152.206C67.7508 151.45 67.9094 150.778 68.2268 150.19C68.5534 149.602 68.9921 149.14 69.5428 148.804C70.1028 148.459 70.7281 148.286 71.4188 148.286C71.9788 148.286 72.4734 148.389 72.9028 148.594C73.3414 148.79 73.7101 149.061 74.0088 149.406C74.3168 149.742 74.5501 150.129 74.7088 150.568C74.8768 150.997 74.9608 151.445 74.9608 151.912C74.9608 152.015 74.9514 152.131 74.9328 152.262C74.9234 152.383 74.9094 152.5 74.8908 152.612H68.7028V151.492H74.1348L73.5188 151.996C73.6028 151.511 73.5561 151.077 73.3788 150.694C73.2014 150.311 72.9401 150.008 72.5948 149.784C72.2494 149.56 71.8574 149.448 71.4188 149.448C70.9801 149.448 70.5788 149.56 70.2148 149.784C69.8508 150.008 69.5661 150.33 69.3608 150.75C69.1648 151.161 69.0854 151.651 69.1228 152.22C69.0854 152.771 69.1694 153.256 69.3748 153.676C69.5894 154.087 69.8881 154.409 70.2708 154.642C70.6628 154.866 71.0874 154.978 71.5448 154.978C72.0488 154.978 72.4734 154.861 72.8188 154.628C73.1641 154.395 73.4441 154.096 73.6588 153.732L74.7508 154.292C74.6014 154.637 74.3681 154.955 74.0508 155.244C73.7428 155.524 73.3741 155.748 72.9448 155.916C72.5248 156.084 72.0534 156.168 71.5308 156.168ZM78.7747 156.168C78.28 156.168 77.8414 156.079 77.4587 155.902C77.0854 155.715 76.7914 155.463 76.5767 155.146C76.362 154.819 76.2547 154.446 76.2547 154.026C76.2547 153.625 76.3387 153.265 76.5067 152.948C76.684 152.621 76.9547 152.346 77.3187 152.122C77.692 151.898 78.1587 151.739 78.7187 151.646L81.5187 151.184V152.276L79.0127 152.696C78.5274 152.78 78.1727 152.934 77.9487 153.158C77.734 153.382 77.6267 153.657 77.6267 153.984C77.6267 154.292 77.748 154.549 77.9907 154.754C78.2427 154.959 78.5554 155.062 78.9287 155.062C79.4047 155.062 79.8154 154.964 80.1607 154.768C80.5154 154.563 80.7907 154.287 80.9867 153.942C81.192 153.597 81.2947 153.214 81.2947 152.794V150.876C81.2947 150.465 81.1407 150.134 80.8327 149.882C80.534 149.621 80.1374 149.49 79.6427 149.49C79.2134 149.49 78.8307 149.602 78.4947 149.826C78.168 150.041 77.9254 150.33 77.7667 150.694L76.6327 150.106C76.7727 149.761 76.9967 149.453 77.3047 149.182C77.6127 148.902 77.972 148.683 78.3827 148.524C78.7934 148.365 79.2227 148.286 79.6707 148.286C80.2494 148.286 80.758 148.398 81.1967 148.622C81.6354 148.837 81.976 149.14 82.2187 149.532C82.4707 149.915 82.5967 150.363 82.5967 150.876V156H81.3227V154.572L81.5607 154.656C81.402 154.955 81.1874 155.216 80.9167 155.44C80.646 155.664 80.3287 155.841 79.9647 155.972C79.6007 156.103 79.204 156.168 78.7747 156.168ZM84.6154 156V148.454H85.8894V149.84L85.7494 149.644C85.9268 149.215 86.1974 148.897 86.5614 148.692C86.9254 148.477 87.3688 148.37 87.8914 148.37H88.3534V149.602H87.6954C87.1634 149.602 86.7341 149.77 86.4074 150.106C86.0808 150.433 85.9174 150.899 85.9174 151.506V156H84.6154ZM93.01 156.168C92.2726 156.168 91.6146 155.995 91.036 155.65C90.4666 155.305 90.0186 154.833 89.692 154.236C89.3653 153.639 89.202 152.967 89.202 152.22C89.202 151.464 89.3653 150.792 89.692 150.204C90.0186 149.616 90.4666 149.149 91.036 148.804C91.6146 148.459 92.2726 148.286 93.01 148.286C93.5046 148.286 93.9666 148.375 94.396 148.552C94.8253 148.729 95.2033 148.967 95.53 149.266C95.8566 149.565 96.0946 149.915 96.244 150.316L95.082 150.876C94.9046 150.484 94.634 150.167 94.27 149.924C93.906 149.672 93.486 149.546 93.01 149.546C92.5526 149.546 92.1373 149.663 91.764 149.896C91.4 150.129 91.1106 150.447 90.896 150.848C90.6813 151.249 90.574 151.711 90.574 152.234C90.574 152.738 90.6813 153.195 90.896 153.606C91.1106 154.007 91.4 154.325 91.764 154.558C92.1373 154.791 92.5526 154.908 93.01 154.908C93.486 154.908 93.906 154.787 94.27 154.544C94.634 154.292 94.9046 153.961 95.082 153.55L96.244 154.138C96.0946 154.53 95.8566 154.88 95.53 155.188C95.2033 155.487 94.8253 155.725 94.396 155.902C93.9666 156.079 93.5046 156.168 93.01 156.168ZM97.9455 156V145.402H99.2475V149.924L99.0095 149.798C99.1962 149.322 99.4948 148.953 99.9055 148.692C100.326 148.421 100.816 148.286 101.376 148.286C101.917 148.286 102.398 148.407 102.818 148.65C103.247 148.893 103.583 149.229 103.826 149.658C104.078 150.087 104.204 150.573 104.204 151.114V156H102.888V151.534C102.888 151.114 102.808 150.759 102.65 150.47C102.5 150.181 102.29 149.957 102.02 149.798C101.749 149.63 101.436 149.546 101.082 149.546C100.736 149.546 100.424 149.63 100.144 149.798C99.8635 149.957 99.6442 150.185 99.4855 150.484C99.3268 150.773 99.2475 151.123 99.2475 151.534V156H97.9455Z" fill="#6A749C"/>
<path d="M237.856 156C236.554 156 235.714 155.174 235.714 153.886C235.714 152.528 236.526 151.73 238.122 151.73H238.948V150.19H238.122C236.526 150.19 235.714 149.392 235.714 148.034C235.714 146.746 236.554 145.92 237.856 145.92C239.424 145.92 239.928 146.9 239.928 148.076V149.238H241.468V148.076C241.468 146.9 241.972 145.92 243.54 145.92C244.842 145.92 245.682 146.746 245.682 148.034C245.682 149.392 244.87 150.19 243.274 150.19H242.448V151.73H243.274C244.87 151.73 245.682 152.528 245.682 153.886C245.682 155.174 244.842 156 243.54 156C241.972 156 241.468 155.02 241.468 153.844V152.682H239.928V153.844C239.928 155.02 239.424 156 237.856 156ZM242.448 148.048V149.238H243.274C244.268 149.238 244.688 148.832 244.688 148.034C244.688 147.208 244.198 146.886 243.54 146.886C242.812 146.886 242.448 147.334 242.448 148.048ZM238.122 149.238H238.948V148.048C238.948 147.334 238.584 146.886 237.856 146.886C237.198 146.886 236.708 147.208 236.708 148.034C236.708 148.832 237.128 149.238 238.122 149.238ZM239.928 151.73H241.468V150.19H239.928V151.73ZM237.856 155.034C238.584 155.034 238.948 154.586 238.948 153.872V152.682H238.122C237.128 152.682 236.708 153.088 236.708 153.886C236.708 154.712 237.198 155.034 237.856 155.034ZM242.448 153.872C242.448 154.586 242.812 155.034 243.54 155.034C244.198 155.034 244.688 154.712 244.688 153.886C244.688 153.088 244.268 152.682 243.274 152.682H242.448V153.872ZM247.48 156V145.57H249.132V151.226L248.698 151.058L253.416 145.57H255.474L251.302 150.456L251.386 149.28L255.642 156H253.696L250.644 151.226L249.132 152.99V156H247.48Z" fill="#6A749C"/>
<mask id="path-15-inside-2_6155_40351" fill="white">
<path d="M20 182H268V338H20V182Z"/>
</mask>
<path d="M20 183H268V181H20V183Z" fill="#242A46" mask="url(#path-15-inside-2_6155_40351)"/>
<path d="M36 215.839V212.161C36.0003 212.019 35.9634 211.879 35.893 211.756C35.8226 211.633 35.7212 211.53 35.5988 211.458L32.39 209.605C32.2714 209.537 32.1369 209.5 32 209.5C31.8631 209.5 31.7286 209.537 31.61 209.605L28.4019 211.458C28.2793 211.53 28.1778 211.633 28.1072 211.756C28.0367 211.879 27.9998 212.019 28 212.161V215.839C27.9997 215.981 28.0366 216.121 28.107 216.244C28.1774 216.367 28.2788 216.47 28.4012 216.542L31.61 218.395C31.7286 218.463 31.8631 218.499 32 218.499C32.1369 218.499 32.2714 218.463 32.39 218.395L35.5981 216.542C35.7207 216.47 35.8222 216.367 35.8928 216.244C35.9633 216.121 36.0002 215.981 36 215.839ZM32 210.534L34.5369 212L32 213.464L29.4631 212L32 210.534ZM29 212.887L31.5 214.331V217.177L29 215.733V212.887ZM32.5 217.177V214.331L35 212.887V215.733L32.5 217.177ZM38.5 209V211.5C38.5 211.633 38.4473 211.76 38.3536 211.854C38.2598 211.947 38.1326 212 38 212C37.8674 212 37.7402 211.947 37.6464 211.854C37.5527 211.76 37.5 211.633 37.5 211.5V209.5H35.5C35.3674 209.5 35.2402 209.447 35.1464 209.354C35.0527 209.26 35 209.133 35 209C35 208.867 35.0527 208.74 35.1464 208.646C35.2402 208.553 35.3674 208.5 35.5 208.5H38C38.1326 208.5 38.2598 208.553 38.3536 208.646C38.4473 208.74 38.5 208.867 38.5 209ZM29 219C29 219.133 28.9473 219.26 28.8536 219.354C28.7598 219.447 28.6326 219.5 28.5 219.5H26C25.8674 219.5 25.7402 219.447 25.6464 219.354C25.5527 219.26 25.5 219.133 25.5 219V216.5C25.5 216.367 25.5527 216.24 25.6464 216.146C25.7402 216.053 25.8674 216 26 216C26.1326 216 26.2598 216.053 26.3536 216.146C26.4473 216.24 26.5 216.367 26.5 216.5V218.5H28.5C28.6326 218.5 28.7598 218.553 28.8536 218.646C28.9473 218.74 29 218.867 29 219ZM38.5 216.5V219C38.5 219.133 38.4473 219.26 38.3536 219.354C38.2598 219.447 38.1326 219.5 38 219.5H35.5C35.3674 219.5 35.2402 219.447 35.1464 219.354C35.0527 219.26 35 219.133 35 219C35 218.867 35.0527 218.74 35.1464 218.646C35.2402 218.553 35.3674 218.5 35.5 218.5H37.5V216.5C37.5 216.367 37.5527 216.24 37.6464 216.146C37.7402 216.053 37.8674 216 38 216C38.1326 216 38.2598 216.053 38.3536 216.146C38.4473 216.24 38.5 216.367 38.5 216.5ZM25.5 211.5V209C25.5 208.867 25.5527 208.74 25.6464 208.646C25.7402 208.553 25.8674 208.5 26 208.5H28.5C28.6326 208.5 28.7598 208.553 28.8536 208.646C28.9473 208.74 29 208.867 29 209C29 209.133 28.9473 209.26 28.8536 209.354C28.7598 209.447 28.6326 209.5 28.5 209.5H26.5V211.5C26.5 211.633 26.4473 211.76 26.3536 211.854C26.2598 211.947 26.1326 212 26 212C25.8674 212 25.7402 211.947 25.6464 211.854C25.5527 211.76 25.5 211.633 25.5 211.5Z" fill="white"/>
<path d="M49.162 220V209.57H52.578C53.6327 209.57 54.552 209.785 55.336 210.214C56.12 210.643 56.7267 211.25 57.156 212.034C57.5853 212.809 57.8 213.723 57.8 214.778C57.8 215.823 57.5853 216.738 57.156 217.522C56.7267 218.306 56.12 218.917 55.336 219.356C54.552 219.785 53.6327 220 52.578 220H49.162ZM50.534 218.74H52.592C53.3667 218.74 54.034 218.577 54.594 218.25C55.1633 217.923 55.602 217.466 55.91 216.878C56.218 216.281 56.372 215.581 56.372 214.778C56.372 213.966 56.2133 213.266 55.896 212.678C55.588 212.09 55.1493 211.637 54.58 211.32C54.02 210.993 53.3573 210.83 52.592 210.83H50.534V218.74ZM59.385 220V212.454H60.687V220H59.385ZM59.385 211.25V209.57H60.687V211.25H59.385ZM66.3052 223.08C65.7732 223.08 65.2786 222.996 64.8212 222.828C64.3732 222.66 63.9859 222.427 63.6592 222.128C63.3419 221.839 63.0992 221.498 62.9312 221.106L64.1492 220.546C64.2799 220.901 64.5272 221.199 64.8912 221.442C65.2646 221.694 65.7312 221.82 66.2912 221.82C66.7206 221.82 67.1079 221.736 67.4532 221.568C67.8079 221.409 68.0879 221.167 68.2932 220.84C68.4986 220.523 68.6012 220.135 68.6012 219.678V217.984L68.8392 218.236C68.5779 218.749 68.1999 219.141 67.7052 219.412C67.2199 219.683 66.6832 219.818 66.0952 219.818C65.3859 219.818 64.7512 219.655 64.1912 219.328C63.6312 218.992 63.1926 218.539 62.8752 217.97C62.5579 217.391 62.3992 216.752 62.3992 216.052C62.3992 215.343 62.5579 214.703 62.8752 214.134C63.1926 213.565 63.6266 213.117 64.1772 212.79C64.7372 212.454 65.3719 212.286 66.0812 212.286C66.6692 212.286 67.2012 212.421 67.6772 212.692C68.1626 212.953 68.5499 213.317 68.8392 213.784L68.6432 214.134V212.454H69.9172V219.678C69.9172 220.331 69.7632 220.915 69.4552 221.428C69.1472 221.941 68.7179 222.343 68.1672 222.632C67.6259 222.931 67.0052 223.08 66.3052 223.08ZM66.2072 218.558C66.6552 218.558 67.0566 218.446 67.4112 218.222C67.7752 217.998 68.0646 217.699 68.2792 217.326C68.4939 216.943 68.6012 216.519 68.6012 216.052C68.6012 215.595 68.4939 215.175 68.2792 214.792C68.0646 214.409 67.7752 214.106 67.4112 213.882C67.0566 213.658 66.6552 213.546 66.2072 213.546C65.7499 213.546 65.3346 213.658 64.9612 213.882C64.5879 214.106 64.2939 214.409 64.0792 214.792C63.8739 215.165 63.7712 215.585 63.7712 216.052C63.7712 216.519 63.8739 216.943 64.0792 217.326C64.2939 217.699 64.5832 217.998 64.9472 218.222C65.3206 218.446 65.7406 218.558 66.2072 218.558ZM71.9357 220V212.454H73.2377V220H71.9357ZM71.9357 211.25V209.57H73.2377V211.25H71.9357ZM78.324 220.084C77.5867 220.084 77.0173 219.874 76.616 219.454C76.224 219.034 76.028 218.441 76.028 217.676V213.7H74.656V212.454H74.936C75.272 212.454 75.538 212.351 75.734 212.146C75.93 211.941 76.028 211.67 76.028 211.334V210.718H77.33V212.454H79.024V213.7H77.33V217.634C77.33 217.886 77.3673 218.105 77.442 218.292C77.526 218.479 77.6613 218.628 77.848 218.74C78.0347 218.843 78.282 218.894 78.59 218.894C78.6553 218.894 78.7347 218.889 78.828 218.88C78.9307 218.871 79.024 218.861 79.108 218.852V220C78.9867 220.028 78.8513 220.047 78.702 220.056C78.5527 220.075 78.4267 220.084 78.324 220.084ZM82.9251 220.168C82.4304 220.168 81.9917 220.079 81.6091 219.902C81.2357 219.715 80.9417 219.463 80.7271 219.146C80.5124 218.819 80.4051 218.446 80.4051 218.026C80.4051 217.625 80.4891 217.265 80.6571 216.948C80.8344 216.621 81.1051 216.346 81.4691 216.122C81.8424 215.898 82.3091 215.739 82.8691 215.646L85.6691 215.184V216.276L83.1631 216.696C82.6777 216.78 82.3231 216.934 82.0991 217.158C81.8844 217.382 81.7771 217.657 81.7771 217.984C81.7771 218.292 81.8984 218.549 82.1411 218.754C82.3931 218.959 82.7057 219.062 83.0791 219.062C83.5551 219.062 83.9657 218.964 84.3111 218.768C84.6657 218.563 84.9411 218.287 85.1371 217.942C85.3424 217.597 85.4451 217.214 85.4451 216.794V214.876C85.4451 214.465 85.2911 214.134 84.9831 213.882C84.6844 213.621 84.2877 213.49 83.7931 213.49C83.3637 213.49 82.9811 213.602 82.6451 213.826C82.3184 214.041 82.0757 214.33 81.9171 214.694L80.7831 214.106C80.9231 213.761 81.1471 213.453 81.4551 213.182C81.7631 212.902 82.1224 212.683 82.5331 212.524C82.9437 212.365 83.3731 212.286 83.8211 212.286C84.3997 212.286 84.9084 212.398 85.3471 212.622C85.7857 212.837 86.1264 213.14 86.3691 213.532C86.6211 213.915 86.7471 214.363 86.7471 214.876V220H85.4731V218.572L85.7111 218.656C85.5524 218.955 85.3377 219.216 85.0671 219.44C84.7964 219.664 84.4791 219.841 84.1151 219.972C83.7511 220.103 83.3544 220.168 82.9251 220.168ZM88.7658 220V209.402H90.0678V220H88.7658ZM96.482 220V210.83H93.654V209.57H100.654V210.83H97.868V220H96.482ZM102.998 220L100.408 212.454H101.85L103.908 218.768L103.404 218.754L105.42 212.454H106.652L108.668 218.754L108.164 218.768L110.236 212.454H111.664L109.074 220H107.828L105.84 213.7H106.232L104.244 220H102.998ZM112.828 220V212.454H114.13V220H112.828ZM112.828 211.25V209.57H114.13V211.25H112.828ZM116.151 220V212.454H117.425V213.924L117.215 213.798C117.401 213.322 117.7 212.953 118.111 212.692C118.531 212.421 119.021 212.286 119.581 212.286C120.122 212.286 120.603 212.407 121.023 212.65C121.452 212.893 121.788 213.229 122.031 213.658C122.283 214.087 122.409 214.573 122.409 215.114V220H121.093V215.534C121.093 215.114 121.018 214.759 120.869 214.47C120.719 214.181 120.505 213.957 120.225 213.798C119.954 213.63 119.641 213.546 119.287 213.546C118.932 213.546 118.615 213.63 118.335 213.798C118.064 213.957 117.849 214.185 117.691 214.484C117.532 214.773 117.453 215.123 117.453 215.534V220H116.151ZM126.974 220.168C126.218 220.168 125.56 219.981 125 219.608C124.44 219.235 124.043 218.731 123.81 218.096L124.846 217.592C125.06 218.04 125.354 218.395 125.728 218.656C126.101 218.917 126.516 219.048 126.974 219.048C127.384 219.048 127.725 218.95 127.996 218.754C128.266 218.558 128.402 218.301 128.402 217.984C128.402 217.76 128.336 217.583 128.206 217.452C128.084 217.312 127.935 217.205 127.758 217.13C127.58 217.046 127.417 216.985 127.268 216.948L126.134 216.626C125.452 216.43 124.953 216.15 124.636 215.786C124.328 215.422 124.174 214.997 124.174 214.512C124.174 214.064 124.286 213.677 124.51 213.35C124.743 213.014 125.056 212.753 125.448 212.566C125.849 212.379 126.297 212.286 126.792 212.286C127.454 212.286 128.047 212.454 128.57 212.79C129.102 213.126 129.48 213.597 129.704 214.204L128.64 214.694C128.472 214.302 128.22 213.994 127.884 213.77C127.548 213.537 127.17 213.42 126.75 213.42C126.367 213.42 126.064 213.518 125.84 213.714C125.616 213.901 125.504 214.139 125.504 214.428C125.504 214.643 125.56 214.82 125.672 214.96C125.784 215.091 125.919 215.193 126.078 215.268C126.236 215.333 126.39 215.389 126.54 215.436L127.772 215.8C128.388 215.977 128.864 216.253 129.2 216.626C129.545 216.999 129.718 217.447 129.718 217.97C129.718 218.39 129.601 218.768 129.368 219.104C129.134 219.44 128.812 219.701 128.402 219.888C127.991 220.075 127.515 220.168 126.974 220.168Z" fill="white"/>
<path d="M248 210C248 207.791 249.791 206 252 206H260C262.209 206 264 207.791 264 210V218C264 220.209 262.209 222 260 222H252C249.791 222 248 220.209 248 218V210Z" fill="#4006AA"/>
<path d="M260.082 212.145L255.082 217.145C255.038 217.188 254.987 217.223 254.93 217.247C254.873 217.27 254.812 217.282 254.75 217.282C254.688 217.282 254.627 217.27 254.57 217.247C254.513 217.223 254.461 217.188 254.418 217.145L252.23 214.957C252.187 214.913 252.152 214.862 252.129 214.805C252.105 214.748 252.093 214.687 252.093 214.625C252.093 214.563 252.105 214.502 252.129 214.445C252.152 214.388 252.187 214.337 252.23 214.293C252.274 214.249 252.326 214.215 252.383 214.191C252.44 214.168 252.501 214.155 252.562 214.155C252.624 214.155 252.685 214.168 252.742 214.191C252.799 214.215 252.851 214.249 252.894 214.293L254.75 216.149L259.419 211.481C259.507 211.393 259.626 211.344 259.751 211.344C259.875 211.344 259.995 211.393 260.083 211.481C260.171 211.569 260.22 211.689 260.22 211.813C260.22 211.938 260.171 212.057 260.083 212.145L260.082 212.145Z" fill="white"/>
<path d="M38 246.5H37V246C37 245.602 36.842 245.221 36.5607 244.939C36.2794 244.658 35.8978 244.5 35.5 244.5H26.5C26.1022 244.5 25.7206 244.658 25.4393 244.939C25.158 245.221 25 245.602 25 246V252C25 252.398 25.158 252.779 25.4393 253.061C25.7206 253.342 26.1022 253.5 26.5 253.5H33.5V254C33.5 254.398 33.658 254.779 33.9393 255.061C34.2206 255.342 34.6022 255.5 35 255.5H38C38.3978 255.5 38.7794 255.342 39.0607 255.061C39.342 254.779 39.5 254.398 39.5 254V248C39.5 247.602 39.342 247.221 39.0607 246.939C38.7794 246.658 38.3978 246.5 38 246.5ZM26.5 252.5C26.3674 252.5 26.2402 252.447 26.1464 252.354C26.0527 252.26 26 252.133 26 252V246C26 245.867 26.0527 245.74 26.1464 245.646C26.2402 245.553 26.3674 245.5 26.5 245.5H35.5C35.6326 245.5 35.7598 245.553 35.8536 245.646C35.9473 245.74 36 245.867 36 246V246.5H35C34.6022 246.5 34.2206 246.658 33.9393 246.939C33.658 247.221 33.5 247.602 33.5 248V252.5H26.5ZM38.5 254C38.5 254.133 38.4473 254.26 38.3536 254.354C38.2598 254.447 38.1326 254.5 38 254.5H35C34.8674 254.5 34.7402 254.447 34.6464 254.354C34.5527 254.26 34.5 254.133 34.5 254V248C34.5 247.867 34.5527 247.74 34.6464 247.646C34.7402 247.553 34.8674 247.5 35 247.5H38C38.1326 247.5 38.2598 247.553 38.3536 247.646C38.4473 247.74 38.5 247.867 38.5 248V254ZM32.5 255C32.5 255.133 32.4473 255.26 32.3536 255.354C32.2598 255.447 32.1326 255.5 32 255.5H29.5C29.3674 255.5 29.2402 255.447 29.1464 255.354C29.0527 255.26 29 255.133 29 255C29 254.867 29.0527 254.74 29.1464 254.646C29.2402 254.553 29.3674 254.5 29.5 254.5H32C32.1326 254.5 32.2598 254.553 32.3536 254.646C32.4473 254.74 32.5 254.867 32.5 255ZM37.5 249C37.5 249.133 37.4473 249.26 37.3536 249.354C37.2598 249.447 37.1326 249.5 37 249.5H36C35.8674 249.5 35.7402 249.447 35.6464 249.354C35.5527 249.26 35.5 249.133 35.5 249C35.5 248.867 35.5527 248.74 35.6464 248.646C35.7402 248.553 35.8674 248.5 36 248.5H37C37.1326 248.5 37.2598 248.553 37.3536 248.646C37.4473 248.74 37.5 248.867 37.5 249Z" fill="white"/>
<path d="M49.162 256V245.57H52.578C53.6327 245.57 54.552 245.785 55.336 246.214C56.12 246.643 56.7267 247.25 57.156 248.034C57.5853 248.809 57.8 249.723 57.8 250.778C57.8 251.823 57.5853 252.738 57.156 253.522C56.7267 254.306 56.12 254.917 55.336 255.356C54.552 255.785 53.6327 256 52.578 256H49.162ZM50.534 254.74H52.592C53.3667 254.74 54.034 254.577 54.594 254.25C55.1633 253.923 55.602 253.466 55.91 252.878C56.218 252.281 56.372 251.581 56.372 250.778C56.372 249.966 56.2133 249.266 55.896 248.678C55.588 248.09 55.1493 247.637 54.58 247.32C54.02 246.993 53.3573 246.83 52.592 246.83H50.534V254.74ZM62.857 256.168C62.129 256.168 61.4803 255.995 60.911 255.65C60.3416 255.305 59.8936 254.833 59.567 254.236C59.2403 253.629 59.077 252.953 59.077 252.206C59.077 251.45 59.2356 250.778 59.553 250.19C59.8796 249.602 60.3183 249.14 60.869 248.804C61.429 248.459 62.0543 248.286 62.745 248.286C63.305 248.286 63.7996 248.389 64.229 248.594C64.6676 248.79 65.0363 249.061 65.335 249.406C65.643 249.742 65.8763 250.129 66.035 250.568C66.203 250.997 66.287 251.445 66.287 251.912C66.287 252.015 66.2776 252.131 66.259 252.262C66.2496 252.383 66.2356 252.5 66.217 252.612H60.029V251.492H65.461L64.845 251.996C64.929 251.511 64.8823 251.077 64.705 250.694C64.5276 250.311 64.2663 250.008 63.921 249.784C63.5756 249.56 63.1836 249.448 62.745 249.448C62.3063 249.448 61.905 249.56 61.541 249.784C61.177 250.008 60.8923 250.33 60.687 250.75C60.491 251.161 60.4116 251.651 60.449 252.22C60.4116 252.771 60.4956 253.256 60.701 253.676C60.9156 254.087 61.2143 254.409 61.597 254.642C61.989 254.866 62.4136 254.978 62.871 254.978C63.375 254.978 63.7996 254.861 64.145 254.628C64.4903 254.395 64.7703 254.096 64.985 253.732L66.077 254.292C65.9276 254.637 65.6943 254.955 65.377 255.244C65.069 255.524 64.7003 255.748 64.271 255.916C63.851 256.084 63.3796 256.168 62.857 256.168ZM69.9478 256L66.9938 248.454H68.4498L70.8158 254.838H70.3118L72.6918 248.454H74.1478L71.1798 256H69.9478ZM75.3127 256V248.454H76.6147V256H75.3127ZM75.3127 247.25V245.57H76.6147V247.25H75.3127ZM82.135 256.168C81.3976 256.168 80.7396 255.995 80.161 255.65C79.5916 255.305 79.1436 254.833 78.817 254.236C78.4903 253.639 78.327 252.967 78.327 252.22C78.327 251.464 78.4903 250.792 78.817 250.204C79.1436 249.616 79.5916 249.149 80.161 248.804C80.7396 248.459 81.3976 248.286 82.135 248.286C82.6296 248.286 83.0916 248.375 83.521 248.552C83.9503 248.729 84.3283 248.967 84.655 249.266C84.9816 249.565 85.2196 249.915 85.369 250.316L84.207 250.876C84.0296 250.484 83.759 250.167 83.395 249.924C83.031 249.672 82.611 249.546 82.135 249.546C81.6776 249.546 81.2623 249.663 80.889 249.896C80.525 250.129 80.2356 250.447 80.021 250.848C79.8063 251.249 79.699 251.711 79.699 252.234C79.699 252.738 79.8063 253.195 80.021 253.606C80.2356 254.007 80.525 254.325 80.889 254.558C81.2623 254.791 81.6776 254.908 82.135 254.908C82.611 254.908 83.031 254.787 83.395 254.544C83.759 254.292 84.0296 253.961 84.207 253.55L85.369 254.138C85.2196 254.53 84.9816 254.88 84.655 255.188C84.3283 255.487 83.9503 255.725 83.521 255.902C83.0916 256.079 82.6296 256.168 82.135 256.168ZM90.5425 256.168C89.8145 256.168 89.1658 255.995 88.5965 255.65C88.0272 255.305 87.5792 254.833 87.2525 254.236C86.9258 253.629 86.7625 252.953 86.7625 252.206C86.7625 251.45 86.9212 250.778 87.2385 250.19C87.5652 249.602 88.0038 249.14 88.5545 248.804C89.1145 248.459 89.7398 248.286 90.4305 248.286C90.9905 248.286 91.4852 248.389 91.9145 248.594C92.3532 248.79 92.7218 249.061 93.0205 249.406C93.3285 249.742 93.5618 250.129 93.7205 250.568C93.8885 250.997 93.9725 251.445 93.9725 251.912C93.9725 252.015 93.9632 252.131 93.9445 252.262C93.9352 252.383 93.9212 252.5 93.9025 252.612H87.7145V251.492H93.1465L92.5305 251.996C92.6145 251.511 92.5678 251.077 92.3905 250.694C92.2132 250.311 91.9518 250.008 91.6065 249.784C91.2612 249.56 90.8692 249.448 90.4305 249.448C89.9918 249.448 89.5905 249.56 89.2265 249.784C88.8625 250.008 88.5778 250.33 88.3725 250.75C88.1765 251.161 88.0972 251.651 88.1345 252.22C88.0972 252.771 88.1812 253.256 88.3865 253.676C88.6012 254.087 88.8998 254.409 89.2825 254.642C89.6745 254.866 90.0992 254.978 90.5565 254.978C91.0605 254.978 91.4852 254.861 91.8305 254.628C92.1758 254.395 92.4558 254.096 92.6705 253.732L93.7625 254.292C93.6132 254.637 93.3798 254.955 93.0625 255.244C92.7545 255.524 92.3858 255.748 91.9565 255.916C91.5365 256.084 91.0652 256.168 90.5425 256.168ZM98.3721 256.168C97.6161 256.168 96.9581 255.981 96.3981 255.608C95.8381 255.235 95.4414 254.731 95.2081 254.096L96.2441 253.592C96.4588 254.04 96.7528 254.395 97.1261 254.656C97.4994 254.917 97.9148 255.048 98.3721 255.048C98.7828 255.048 99.1234 254.95 99.3941 254.754C99.6648 254.558 99.8001 254.301 99.8001 253.984C99.8001 253.76 99.7348 253.583 99.6041 253.452C99.4828 253.312 99.3334 253.205 99.1561 253.13C98.9788 253.046 98.8154 252.985 98.6661 252.948L97.5321 252.626C96.8508 252.43 96.3514 252.15 96.0341 251.786C95.7261 251.422 95.5721 250.997 95.5721 250.512C95.5721 250.064 95.6841 249.677 95.9081 249.35C96.1414 249.014 96.4541 248.753 96.8461 248.566C97.2474 248.379 97.6954 248.286 98.1901 248.286C98.8528 248.286 99.4454 248.454 99.9681 248.79C100.5 249.126 100.878 249.597 101.102 250.204L100.038 250.694C99.8701 250.302 99.6181 249.994 99.2821 249.77C98.9461 249.537 98.5681 249.42 98.1481 249.42C97.7654 249.42 97.4621 249.518 97.2381 249.714C97.0141 249.901 96.9021 250.139 96.9021 250.428C96.9021 250.643 96.9581 250.82 97.0701 250.96C97.1821 251.091 97.3174 251.193 97.4761 251.268C97.6348 251.333 97.7888 251.389 97.9381 251.436L99.1701 251.8C99.7861 251.977 100.262 252.253 100.598 252.626C100.943 252.999 101.116 253.447 101.116 253.97C101.116 254.39 100.999 254.768 100.766 255.104C100.533 255.44 100.211 255.701 99.8001 255.888C99.3894 256.075 98.9134 256.168 98.3721 256.168Z" fill="white"/>
<path d="M248 246C248 243.791 249.791 242 252 242H260C262.209 242 264 243.791 264 246V254C264 256.209 262.209 258 260 258H252C249.791 258 248 256.209 248 254V246Z" fill="#4006AA"/>
<path d="M260.082 248.145L255.082 253.145C255.038 253.188 254.987 253.223 254.93 253.247C254.873 253.27 254.812 253.282 254.75 253.282C254.688 253.282 254.627 253.27 254.57 253.247C254.513 253.223 254.461 253.188 254.418 253.145L252.23 250.957C252.187 250.913 252.152 250.862 252.129 250.805C252.105 250.748 252.093 250.687 252.093 250.625C252.093 250.563 252.105 250.502 252.129 250.445C252.152 250.388 252.187 250.337 252.23 250.293C252.274 250.249 252.326 250.215 252.383 250.191C252.44 250.168 252.501 250.155 252.562 250.155C252.624 250.155 252.685 250.168 252.742 250.191C252.799 250.215 252.851 250.249 252.894 250.293L254.75 252.149L259.419 247.481C259.507 247.393 259.626 247.344 259.751 247.344C259.875 247.344 259.995 247.393 260.083 247.481C260.171 247.569 260.22 247.689 260.22 247.813C260.22 247.938 260.171 248.057 260.083 248.145L260.082 248.145Z" fill="white"/>
<path d="M37.98 282.135L32.48 279.125C32.3329 279.044 32.1678 279.002 32 279.002C31.8322 279.002 31.6671 279.044 31.52 279.125L26.02 282.136C25.8629 282.222 25.7318 282.349 25.6403 282.503C25.5489 282.657 25.5004 282.832 25.5 283.011V288.989C25.5004 289.168 25.5489 289.344 25.6403 289.498C25.7318 289.651 25.8629 289.778 26.02 289.864L31.52 292.875C31.667 292.956 31.8321 292.998 32 292.998C32.1679 292.998 32.333 292.956 32.48 292.875L37.98 289.864C38.1371 289.778 38.2682 289.651 38.3597 289.498C38.4511 289.344 38.4996 289.168 38.5 288.989V283.011C38.4999 282.832 38.4516 282.656 38.3601 282.502C38.2686 282.348 38.1373 282.221 37.98 282.135ZM34.5 287.5V290.631L32.5 291.726V286.296L37.5 283.559V285.559L34.76 287.059C34.6809 287.102 34.615 287.166 34.5692 287.244C34.5234 287.321 34.4995 287.41 34.5 287.5ZM29.24 287.063L26.5 285.563V283.563L31.5 286.3V291.73L29.5 290.631V287.5C29.4998 287.411 29.4756 287.323 29.4298 287.246C29.3841 287.169 29.3185 287.106 29.24 287.063ZM29.1962 281.537L31.7587 282.94C31.8323 282.98 31.9149 283.002 31.9988 283.002C32.0826 283.002 32.1652 282.98 32.2388 282.94L34.8013 281.537L36.9563 282.716L32 285.43L27.0412 282.715L29.1962 281.537ZM32 280L33.7625 280.965L32 281.931L30.2375 280.966L32 280ZM26.5 286.701L28.5 287.796V290.083L26.5 288.989V286.701ZM35.5 290.083V287.796L37.5 286.701V288.989L35.5 290.083Z" fill="white"/>
<path d="M49.162 292V281.57H52.578C53.6327 281.57 54.552 281.785 55.336 282.214C56.12 282.643 56.7267 283.25 57.156 284.034C57.5853 284.809 57.8 285.723 57.8 286.778C57.8 287.823 57.5853 288.738 57.156 289.522C56.7267 290.306 56.12 290.917 55.336 291.356C54.552 291.785 53.6327 292 52.578 292H49.162ZM50.534 290.74H52.592C53.3667 290.74 54.034 290.577 54.594 290.25C55.1633 289.923 55.602 289.466 55.91 288.878C56.218 288.281 56.372 287.581 56.372 286.778C56.372 285.966 56.2133 285.266 55.896 284.678C55.588 284.09 55.1493 283.637 54.58 283.32C54.02 282.993 53.3573 282.83 52.592 282.83H50.534V290.74ZM61.5013 292.168C61.0066 292.168 60.5679 292.079 60.1853 291.902C59.8119 291.715 59.5179 291.463 59.3033 291.146C59.0886 290.819 58.9813 290.446 58.9813 290.026C58.9813 289.625 59.0653 289.265 59.2333 288.948C59.4106 288.621 59.6813 288.346 60.0453 288.122C60.4186 287.898 60.8853 287.739 61.4453 287.646L64.2453 287.184V288.276L61.7393 288.696C61.2539 288.78 60.8993 288.934 60.6753 289.158C60.4606 289.382 60.3533 289.657 60.3533 289.984C60.3533 290.292 60.4746 290.549 60.7173 290.754C60.9693 290.959 61.2819 291.062 61.6553 291.062C62.1313 291.062 62.5419 290.964 62.8873 290.768C63.2419 290.563 63.5173 290.287 63.7133 289.942C63.9186 289.597 64.0213 289.214 64.0213 288.794V286.876C64.0213 286.465 63.8673 286.134 63.5593 285.882C63.2606 285.621 62.8639 285.49 62.3693 285.49C61.9399 285.49 61.5573 285.602 61.2213 285.826C60.8946 286.041 60.6519 286.33 60.4933 286.694L59.3593 286.106C59.4993 285.761 59.7233 285.453 60.0312 285.182C60.3393 284.902 60.6986 284.683 61.1093 284.524C61.5199 284.365 61.9493 284.286 62.3972 284.286C62.9759 284.286 63.4846 284.398 63.9233 284.622C64.3619 284.837 64.7026 285.14 64.9453 285.532C65.1973 285.915 65.3233 286.363 65.3233 286.876V292H64.0493V290.572L64.2873 290.656C64.1286 290.955 63.9139 291.216 63.6433 291.44C63.3726 291.664 63.0553 291.841 62.6913 291.972C62.3273 292.103 61.9306 292.168 61.5013 292.168ZM70.044 292.168C69.288 292.168 68.63 291.981 68.07 291.608C67.51 291.235 67.1133 290.731 66.88 290.096L67.916 289.592C68.1307 290.04 68.4247 290.395 68.798 290.656C69.1713 290.917 69.5867 291.048 70.044 291.048C70.4547 291.048 70.7953 290.95 71.066 290.754C71.3367 290.558 71.472 290.301 71.472 289.984C71.472 289.76 71.4067 289.583 71.276 289.452C71.1547 289.312 71.0053 289.205 70.828 289.13C70.6507 289.046 70.4873 288.985 70.338 288.948L69.204 288.626C68.5227 288.43 68.0233 288.15 67.706 287.786C67.398 287.422 67.244 286.997 67.244 286.512C67.244 286.064 67.356 285.677 67.58 285.35C67.8133 285.014 68.126 284.753 68.518 284.566C68.9193 284.379 69.3673 284.286 69.862 284.286C70.5247 284.286 71.1173 284.454 71.64 284.79C72.172 285.126 72.55 285.597 72.774 286.204L71.71 286.694C71.542 286.302 71.29 285.994 70.954 285.77C70.618 285.537 70.24 285.42 69.82 285.42C69.4373 285.42 69.134 285.518 68.91 285.714C68.686 285.901 68.574 286.139 68.574 286.428C68.574 286.643 68.63 286.82 68.742 286.96C68.854 287.091 68.9893 287.193 69.148 287.268C69.3067 287.333 69.4607 287.389 69.61 287.436L70.842 287.8C71.458 287.977 71.934 288.253 72.27 288.626C72.6153 288.999 72.788 289.447 72.788 289.97C72.788 290.39 72.6713 290.768 72.438 291.104C72.2047 291.44 71.8827 291.701 71.472 291.888C71.0613 292.075 70.5853 292.168 70.044 292.168ZM74.4924 292V281.402H75.7944V285.924L75.5564 285.798C75.743 285.322 76.0417 284.953 76.4524 284.692C76.8724 284.421 77.3624 284.286 77.9224 284.286C78.4637 284.286 78.9444 284.407 79.3644 284.65C79.7937 284.893 80.1297 285.229 80.3724 285.658C80.6244 286.087 80.7504 286.573 80.7504 287.114V292H79.4344V287.534C79.4344 287.114 79.355 286.759 79.1964 286.47C79.047 286.181 78.837 285.957 78.5664 285.798C78.2957 285.63 77.983 285.546 77.6284 285.546C77.283 285.546 76.9704 285.63 76.6904 285.798C76.4104 285.957 76.191 286.185 76.0324 286.484C75.8737 286.773 75.7944 287.123 75.7944 287.534V292H74.4924ZM86.5195 292.168C85.9128 292.168 85.3575 292.033 84.8535 291.762C84.3588 291.491 83.9761 291.109 83.7055 290.614L83.8875 290.39V292H82.6135V281.402H83.9155V286.078L83.7195 285.756C83.9995 285.308 84.3821 284.953 84.8675 284.692C85.3528 284.421 85.9081 284.286 86.5335 284.286C87.2428 284.286 87.8775 284.459 88.4375 284.804C89.0068 285.149 89.4548 285.621 89.7815 286.218C90.1081 286.806 90.2715 287.478 90.2715 288.234C90.2715 288.971 90.1081 289.639 89.7815 290.236C89.4548 290.833 89.0068 291.305 88.4375 291.65C87.8775 291.995 87.2381 292.168 86.5195 292.168ZM86.4215 290.908C86.8975 290.908 87.3221 290.791 87.6955 290.558C88.0688 290.325 88.3581 290.007 88.5635 289.606C88.7781 289.195 88.8855 288.738 88.8855 288.234C88.8855 287.711 88.7781 287.254 88.5635 286.862C88.3581 286.461 88.0688 286.143 87.6955 285.91C87.3221 285.667 86.8975 285.546 86.4215 285.546C85.9455 285.546 85.5161 285.663 85.1335 285.896C84.7601 286.129 84.4615 286.451 84.2375 286.862C84.0228 287.263 83.9155 287.721 83.9155 288.234C83.9155 288.738 84.0228 289.195 84.2375 289.606C84.4615 290.007 84.7601 290.325 85.1335 290.558C85.5161 290.791 85.9455 290.908 86.4215 290.908ZM95.5627 292.168C94.8347 292.168 94.1767 292 93.5887 291.664C93.0007 291.319 92.534 290.847 92.1887 290.25C91.8434 289.653 91.6707 288.976 91.6707 288.22C91.6707 287.464 91.8387 286.792 92.1747 286.204C92.52 285.616 92.9867 285.149 93.5747 284.804C94.1627 284.459 94.8254 284.286 95.5627 284.286C96.2907 284.286 96.9487 284.459 97.5367 284.804C98.1247 285.14 98.5867 285.602 98.9227 286.19C99.268 286.778 99.4407 287.455 99.4407 288.22C99.4407 288.985 99.2634 289.667 98.9087 290.264C98.554 290.852 98.0827 291.319 97.4947 291.664C96.916 292 96.272 292.168 95.5627 292.168ZM95.5627 290.908C96.0294 290.908 96.4494 290.791 96.8227 290.558C97.2054 290.325 97.504 290.003 97.7187 289.592C97.9427 289.181 98.0547 288.724 98.0547 288.22C98.0547 287.707 97.9427 287.254 97.7187 286.862C97.504 286.461 97.2054 286.143 96.8227 285.91C96.4494 285.667 96.0294 285.546 95.5627 285.546C95.0867 285.546 94.6574 285.667 94.2747 285.91C93.9014 286.143 93.6027 286.461 93.3787 286.862C93.1547 287.254 93.0427 287.707 93.0427 288.22C93.0427 288.724 93.1547 289.181 93.3787 289.592C93.6027 290.003 93.9014 290.325 94.2747 290.558C94.6574 290.791 95.0867 290.908 95.5627 290.908ZM103.351 292.168C102.856 292.168 102.418 292.079 102.035 291.902C101.662 291.715 101.368 291.463 101.153 291.146C100.938 290.819 100.831 290.446 100.831 290.026C100.831 289.625 100.915 289.265 101.083 288.948C101.26 288.621 101.531 288.346 101.895 288.122C102.268 287.898 102.735 287.739 103.295 287.646L106.095 287.184V288.276L103.589 288.696C103.104 288.78 102.749 288.934 102.525 289.158C102.31 289.382 102.203 289.657 102.203 289.984C102.203 290.292 102.324 290.549 102.567 290.754C102.819 290.959 103.132 291.062 103.505 291.062C103.981 291.062 104.392 290.964 104.737 290.768C105.092 290.563 105.367 290.287 105.563 289.942C105.768 289.597 105.871 289.214 105.871 288.794V286.876C105.871 286.465 105.717 286.134 105.409 285.882C105.11 285.621 104.714 285.49 104.219 285.49C103.79 285.49 103.407 285.602 103.071 285.826C102.744 286.041 102.502 286.33 102.343 286.694L101.209 286.106C101.349 285.761 101.573 285.453 101.881 285.182C102.189 284.902 102.548 284.683 102.959 284.524C103.37 284.365 103.799 284.286 104.247 284.286C104.826 284.286 105.334 284.398 105.773 284.622C106.212 284.837 106.552 285.14 106.795 285.532C107.047 285.915 107.173 286.363 107.173 286.876V292H105.899V290.572L106.137 290.656C105.978 290.955 105.764 291.216 105.493 291.44C105.222 291.664 104.905 291.841 104.541 291.972C104.177 292.103 103.78 292.168 103.351 292.168ZM109.192 292V284.454H110.466V285.84L110.326 285.644C110.503 285.215 110.774 284.897 111.138 284.692C111.502 284.477 111.945 284.37 112.468 284.37H112.93V285.602H112.272C111.74 285.602 111.31 285.77 110.984 286.106C110.657 286.433 110.494 286.899 110.494 287.506V292H109.192ZM117.516 292.168C116.807 292.168 116.167 291.995 115.598 291.65C115.038 291.305 114.595 290.833 114.268 290.236C113.941 289.639 113.778 288.971 113.778 288.234C113.778 287.478 113.941 286.806 114.268 286.218C114.595 285.621 115.038 285.149 115.598 284.804C116.167 284.459 116.807 284.286 117.516 284.286C118.141 284.286 118.697 284.421 119.182 284.692C119.667 284.953 120.05 285.308 120.33 285.756L120.12 286.078V281.402H121.436V292H120.162V290.39L120.33 290.614C120.069 291.109 119.686 291.491 119.182 291.762C118.687 292.033 118.132 292.168 117.516 292.168ZM117.628 290.908C118.104 290.908 118.529 290.791 118.902 290.558C119.275 290.325 119.569 290.007 119.784 289.606C120.008 289.195 120.12 288.738 120.12 288.234C120.12 287.721 120.008 287.263 119.784 286.862C119.569 286.451 119.275 286.129 118.902 285.896C118.529 285.663 118.104 285.546 117.628 285.546C117.161 285.546 116.737 285.667 116.354 285.91C115.981 286.143 115.687 286.461 115.472 286.862C115.257 287.254 115.15 287.711 115.15 288.234C115.15 288.738 115.257 289.195 115.472 289.606C115.687 290.007 115.981 290.325 116.354 290.558C116.727 290.791 117.152 290.908 117.628 290.908Z" fill="white"/>
<path d="M248 282C248 279.791 249.791 278 252 278H260C262.209 278 264 279.791 264 282V290C264 292.209 262.209 294 260 294H252C249.791 294 248 292.209 248 290V282Z" fill="#4006AA"/>
<path d="M260.082 284.145L255.082 289.145C255.038 289.188 254.987 289.223 254.93 289.247C254.873 289.27 254.812 289.282 254.75 289.282C254.688 289.282 254.627 289.27 254.57 289.247C254.513 289.223 254.461 289.188 254.418 289.145L252.23 286.957C252.187 286.913 252.152 286.862 252.129 286.805C252.105 286.748 252.093 286.687 252.093 286.625C252.093 286.563 252.105 286.502 252.129 286.445C252.152 286.388 252.187 286.337 252.23 286.293C252.274 286.249 252.326 286.215 252.383 286.191C252.44 286.168 252.501 286.155 252.562 286.155C252.624 286.155 252.685 286.168 252.742 286.191C252.799 286.215 252.851 286.249 252.894 286.293L254.75 288.149L259.419 283.481C259.507 283.393 259.626 283.344 259.751 283.344C259.875 283.344 259.995 283.393 260.083 283.481C260.171 283.569 260.22 283.689 260.22 283.813C260.22 283.938 260.171 284.057 260.083 284.145L260.082 284.145Z" fill="white"/>
<path d="M39 325.5H38.5V317.619L39.1044 317.489C39.17 317.476 39.2324 317.451 39.2881 317.414C39.3438 317.377 39.3915 317.33 39.4285 317.274C39.4654 317.219 39.4909 317.156 39.5034 317.091C39.5159 317.025 39.5151 316.958 39.5011 316.892C39.4871 316.827 39.4602 316.765 39.422 316.711C39.3838 316.656 39.335 316.609 39.2785 316.574C39.222 316.538 39.159 316.514 39.0931 316.504C39.0272 316.493 38.9599 316.495 38.895 316.511L24.895 319.511C24.7744 319.537 24.6677 319.607 24.5953 319.707C24.523 319.807 24.4902 319.93 24.5033 320.053C24.5163 320.175 24.5742 320.289 24.6659 320.371C24.7576 320.454 24.8766 320.5 25 320.5C25.0355 320.5 25.0709 320.496 25.1056 320.489L25.5 320.404V325.5H25C24.8674 325.5 24.7402 325.552 24.6464 325.646C24.5527 325.74 24.5 325.867 24.5 326C24.5 326.132 24.5527 326.26 24.6464 326.353C24.7402 326.447 24.8674 326.5 25 326.5H39C39.1326 326.5 39.2598 326.447 39.3536 326.353C39.4473 326.26 39.5 326.132 39.5 326C39.5 325.867 39.4473 325.74 39.3536 325.646C39.2598 325.552 39.1326 325.5 39 325.5ZM26.5 320.187L37.5 317.833V325.5H36V322C36 321.867 35.9473 321.74 35.8536 321.646C35.7598 321.552 35.6326 321.5 35.5 321.5H28.5C28.3674 321.5 28.2402 321.552 28.1464 321.646C28.0527 321.74 28 321.867 28 322V325.5H26.5V320.187ZM35 323.5H29V322.5H35V323.5ZM29 324.5H35V325.5H29V324.5Z" fill="#6A749C"/>
<path d="M52.746 328.168C52.0833 328.168 51.4767 328.047 50.926 327.804C50.3753 327.552 49.9087 327.211 49.526 326.782C49.1433 326.353 48.868 325.872 48.7 325.34L49.89 324.85C50.142 325.522 50.5153 326.04 51.01 326.404C51.514 326.759 52.102 326.936 52.774 326.936C53.1847 326.936 53.544 326.871 53.852 326.74C54.16 326.609 54.398 326.427 54.566 326.194C54.7433 325.951 54.832 325.671 54.832 325.354C54.832 324.915 54.706 324.57 54.454 324.318C54.2113 324.057 53.852 323.861 53.376 323.73L51.458 323.142C50.702 322.909 50.1233 322.54 49.722 322.036C49.3207 321.532 49.12 320.953 49.12 320.3C49.12 319.731 49.2553 319.231 49.526 318.802C49.806 318.363 50.1887 318.023 50.674 317.78C51.1687 317.528 51.7287 317.402 52.354 317.402C52.9793 317.402 53.544 317.514 54.048 317.738C54.5613 317.962 54.9953 318.265 55.35 318.648C55.7047 319.021 55.966 319.451 56.134 319.936L54.958 320.426C54.734 319.838 54.398 319.395 53.95 319.096C53.502 318.788 52.9747 318.634 52.368 318.634C51.9947 318.634 51.6633 318.699 51.374 318.83C51.094 318.951 50.8747 319.133 50.716 319.376C50.5667 319.609 50.492 319.889 50.492 320.216C50.492 320.599 50.6133 320.939 50.856 321.238C51.0987 321.537 51.4673 321.765 51.962 321.924L53.712 322.442C54.5333 322.694 55.154 323.053 55.574 323.52C55.994 323.987 56.204 324.565 56.204 325.256C56.204 325.825 56.0547 326.329 55.756 326.768C55.4667 327.207 55.0607 327.552 54.538 327.804C54.0247 328.047 53.4273 328.168 52.746 328.168ZM58.0588 330.8V320.454H59.3328V322.078L59.1648 321.756C59.4448 321.308 59.8274 320.953 60.3128 320.692C60.7981 320.421 61.3534 320.286 61.9788 320.286C62.6881 320.286 63.3228 320.459 63.8828 320.804C64.4521 321.149 64.9001 321.621 65.2268 322.218C65.5534 322.806 65.7168 323.478 65.7168 324.234C65.7168 324.971 65.5534 325.639 65.2268 326.236C64.9001 326.833 64.4521 327.305 63.8828 327.65C63.3228 327.995 62.6834 328.168 61.9648 328.168C61.3581 328.168 60.8028 328.033 60.2988 327.762C59.8041 327.491 59.4214 327.109 59.1508 326.614L59.3608 326.39V330.8H58.0588ZM61.8668 326.908C62.3428 326.908 62.7674 326.791 63.1408 326.558C63.5141 326.325 63.8034 326.007 64.0088 325.606C64.2234 325.195 64.3308 324.738 64.3308 324.234C64.3308 323.711 64.2234 323.254 64.0088 322.862C63.8034 322.461 63.5141 322.143 63.1408 321.91C62.7674 321.667 62.3428 321.546 61.8668 321.546C61.3908 321.546 60.9614 321.663 60.5788 321.896C60.2054 322.129 59.9068 322.451 59.6828 322.862C59.4681 323.263 59.3608 323.721 59.3608 324.234C59.3608 324.738 59.4681 325.195 59.6828 325.606C59.9068 326.007 60.2054 326.325 60.5788 326.558C60.9614 326.791 61.3908 326.908 61.8668 326.908ZM69.636 328.168C69.1413 328.168 68.7027 328.079 68.32 327.902C67.9467 327.715 67.6527 327.463 67.438 327.146C67.2233 326.819 67.116 326.446 67.116 326.026C67.116 325.625 67.2 325.265 67.368 324.948C67.5453 324.621 67.816 324.346 68.18 324.122C68.5533 323.898 69.02 323.739 69.58 323.646L72.38 323.184V324.276L69.874 324.696C69.3887 324.78 69.034 324.934 68.81 325.158C68.5953 325.382 68.488 325.657 68.488 325.984C68.488 326.292 68.6093 326.549 68.852 326.754C69.104 326.959 69.4167 327.062 69.79 327.062C70.266 327.062 70.6767 326.964 71.022 326.768C71.3767 326.563 71.652 326.287 71.848 325.942C72.0533 325.597 72.156 325.214 72.156 324.794V322.876C72.156 322.465 72.002 322.134 71.694 321.882C71.3953 321.621 70.9987 321.49 70.504 321.49C70.0747 321.49 69.692 321.602 69.356 321.826C69.0293 322.041 68.7867 322.33 68.628 322.694L67.494 322.106C67.634 321.761 67.858 321.453 68.166 321.182C68.474 320.902 68.8333 320.683 69.244 320.524C69.6547 320.365 70.084 320.286 70.532 320.286C71.1107 320.286 71.6193 320.398 72.058 320.622C72.4967 320.837 72.8373 321.14 73.08 321.532C73.332 321.915 73.458 322.363 73.458 322.876V328H72.184V326.572L72.422 326.656C72.2633 326.955 72.0487 327.216 71.778 327.44C71.5073 327.664 71.19 327.841 70.826 327.972C70.462 328.103 70.0653 328.168 69.636 328.168ZM78.9768 328.168C78.2394 328.168 77.5814 327.995 77.0028 327.65C76.4334 327.305 75.9854 326.833 75.6588 326.236C75.3321 325.639 75.1688 324.967 75.1688 324.22C75.1688 323.464 75.3321 322.792 75.6588 322.204C75.9854 321.616 76.4334 321.149 77.0028 320.804C77.5814 320.459 78.2394 320.286 78.9768 320.286C79.4714 320.286 79.9334 320.375 80.3628 320.552C80.7921 320.729 81.1701 320.967 81.4968 321.266C81.8234 321.565 82.0614 321.915 82.2108 322.316L81.0488 322.876C80.8714 322.484 80.6008 322.167 80.2368 321.924C79.8728 321.672 79.4528 321.546 78.9768 321.546C78.5194 321.546 78.1041 321.663 77.7308 321.896C77.3668 322.129 77.0774 322.447 76.8628 322.848C76.6481 323.249 76.5408 323.711 76.5408 324.234C76.5408 324.738 76.6481 325.195 76.8628 325.606C77.0774 326.007 77.3668 326.325 77.7308 326.558C78.1041 326.791 78.5194 326.908 78.9768 326.908C79.4528 326.908 79.8728 326.787 80.2368 326.544C80.6008 326.292 80.8714 325.961 81.0488 325.55L82.2108 326.138C82.0614 326.53 81.8234 326.88 81.4968 327.188C81.1701 327.487 80.7921 327.725 80.3628 327.902C79.9334 328.079 79.4714 328.168 78.9768 328.168ZM87.3843 328.168C86.6563 328.168 86.0076 327.995 85.4383 327.65C84.869 327.305 84.421 326.833 84.0943 326.236C83.7676 325.629 83.6043 324.953 83.6043 324.206C83.6043 323.45 83.763 322.778 84.0803 322.19C84.407 321.602 84.8456 321.14 85.3963 320.804C85.9563 320.459 86.5816 320.286 87.2723 320.286C87.8323 320.286 88.327 320.389 88.7563 320.594C89.195 320.79 89.5636 321.061 89.8623 321.406C90.1703 321.742 90.4036 322.129 90.5623 322.568C90.7303 322.997 90.8143 323.445 90.8143 323.912C90.8143 324.015 90.805 324.131 90.7863 324.262C90.777 324.383 90.763 324.5 90.7443 324.612H84.5563V323.492H89.9883L89.3723 323.996C89.4563 323.511 89.4096 323.077 89.2323 322.694C89.055 322.311 88.7936 322.008 88.4483 321.784C88.103 321.56 87.711 321.448 87.2723 321.448C86.8336 321.448 86.4323 321.56 86.0683 321.784C85.7043 322.008 85.4196 322.33 85.2143 322.75C85.0183 323.161 84.939 323.651 84.9763 324.22C84.939 324.771 85.023 325.256 85.2283 325.676C85.443 326.087 85.7416 326.409 86.1243 326.642C86.5163 326.866 86.941 326.978 87.3983 326.978C87.9023 326.978 88.327 326.861 88.6723 326.628C89.0176 326.395 89.2976 326.096 89.5123 325.732L90.6043 326.292C90.455 326.637 90.2216 326.955 89.9043 327.244C89.5963 327.524 89.2276 327.748 88.7983 327.916C88.3783 328.084 87.907 328.168 87.3843 328.168ZM97.6338 328.168C96.8778 328.168 96.2198 327.981 95.6598 327.608C95.0998 327.235 94.7032 326.731 94.4698 326.096L95.5058 325.592C95.7205 326.04 96.0145 326.395 96.3878 326.656C96.7612 326.917 97.1765 327.048 97.6338 327.048C98.0445 327.048 98.3852 326.95 98.6558 326.754C98.9265 326.558 99.0618 326.301 99.0618 325.984C99.0618 325.76 98.9965 325.583 98.8658 325.452C98.7445 325.312 98.5952 325.205 98.4178 325.13C98.2405 325.046 98.0772 324.985 97.9278 324.948L96.7938 324.626C96.1125 324.43 95.6132 324.15 95.2958 323.786C94.9878 323.422 94.8338 322.997 94.8338 322.512C94.8338 322.064 94.9458 321.677 95.1698 321.35C95.4032 321.014 95.7158 320.753 96.1078 320.566C96.5092 320.379 96.9572 320.286 97.4518 320.286C98.1145 320.286 98.7072 320.454 99.2298 320.79C99.7618 321.126 100.14 321.597 100.364 322.204L99.2998 322.694C99.1318 322.302 98.8798 321.994 98.5438 321.77C98.2078 321.537 97.8298 321.42 97.4098 321.42C97.0272 321.42 96.7238 321.518 96.4998 321.714C96.2758 321.901 96.1638 322.139 96.1638 322.428C96.1638 322.643 96.2198 322.82 96.3318 322.96C96.4438 323.091 96.5792 323.193 96.7378 323.268C96.8965 323.333 97.0505 323.389 97.1998 323.436L98.4318 323.8C99.0478 323.977 99.5238 324.253 99.8598 324.626C100.205 324.999 100.378 325.447 100.378 325.97C100.378 326.39 100.261 326.768 100.028 327.104C99.7945 327.44 99.4725 327.701 99.0618 327.888C98.6512 328.075 98.1752 328.168 97.6338 328.168ZM105.554 328.168C104.826 328.168 104.178 327.995 103.608 327.65C103.039 327.305 102.591 326.833 102.264 326.236C101.938 325.629 101.774 324.953 101.774 324.206C101.774 323.45 101.933 322.778 102.25 322.19C102.577 321.602 103.016 321.14 103.566 320.804C104.126 320.459 104.752 320.286 105.442 320.286C106.002 320.286 106.497 320.389 106.926 320.594C107.365 320.79 107.734 321.061 108.032 321.406C108.34 321.742 108.574 322.129 108.732 322.568C108.9 322.997 108.984 323.445 108.984 323.912C108.984 324.015 108.975 324.131 108.956 324.262C108.947 324.383 108.933 324.5 108.914 324.612H102.726V323.492H108.158L107.542 323.996C107.626 323.511 107.58 323.077 107.402 322.694C107.225 322.311 106.964 322.008 106.618 321.784C106.273 321.56 105.881 321.448 105.442 321.448C105.004 321.448 104.602 321.56 104.238 321.784C103.874 322.008 103.59 322.33 103.384 322.75C103.188 323.161 103.109 323.651 103.146 324.22C103.109 324.771 103.193 325.256 103.398 325.676C103.613 326.087 103.912 326.409 104.294 326.642C104.686 326.866 105.111 326.978 105.568 326.978C106.072 326.978 106.497 326.861 106.842 326.628C107.188 326.395 107.468 326.096 107.682 325.732L108.774 326.292C108.625 326.637 108.392 326.955 108.074 327.244C107.766 327.524 107.398 327.748 106.968 327.916C106.548 328.084 106.077 328.168 105.554 328.168ZM113.748 328.084C113.01 328.084 112.441 327.874 112.04 327.454C111.648 327.034 111.452 326.441 111.452 325.676V321.7H110.08V320.454H110.36C110.696 320.454 110.962 320.351 111.158 320.146C111.354 319.941 111.452 319.67 111.452 319.334V318.718H112.754V320.454H114.448V321.7H112.754V325.634C112.754 325.886 112.791 326.105 112.866 326.292C112.95 326.479 113.085 326.628 113.272 326.74C113.458 326.843 113.706 326.894 114.014 326.894C114.079 326.894 114.158 326.889 114.252 326.88C114.354 326.871 114.448 326.861 114.532 326.852V328C114.41 328.028 114.275 328.047 114.126 328.056C113.976 328.075 113.85 328.084 113.748 328.084ZM119.299 328.084C118.561 328.084 117.992 327.874 117.591 327.454C117.199 327.034 117.003 326.441 117.003 325.676V321.7H115.631V320.454H115.911C116.247 320.454 116.513 320.351 116.709 320.146C116.905 319.941 117.003 319.67 117.003 319.334V318.718H118.305V320.454H119.999V321.7H118.305V325.634C118.305 325.886 118.342 326.105 118.417 326.292C118.501 326.479 118.636 326.628 118.823 326.74C119.009 326.843 119.257 326.894 119.565 326.894C119.63 326.894 119.709 326.889 119.803 326.88C119.905 326.871 119.999 326.861 120.083 326.852V328C119.961 328.028 119.826 328.047 119.677 328.056C119.527 328.075 119.401 328.084 119.299 328.084ZM121.783 328V320.454H123.085V328H121.783ZM121.783 319.25V317.57H123.085V319.25H121.783ZM125.106 328V320.454H126.38V321.924L126.17 321.798C126.356 321.322 126.655 320.953 127.066 320.692C127.486 320.421 127.976 320.286 128.536 320.286C129.077 320.286 129.558 320.407 129.978 320.65C130.407 320.893 130.743 321.229 130.986 321.658C131.238 322.087 131.364 322.573 131.364 323.114V328H130.048V323.534C130.048 323.114 129.973 322.759 129.824 322.47C129.674 322.181 129.46 321.957 129.18 321.798C128.909 321.63 128.596 321.546 128.242 321.546C127.887 321.546 127.57 321.63 127.29 321.798C127.019 321.957 126.804 322.185 126.646 322.484C126.487 322.773 126.408 323.123 126.408 323.534V328H125.106ZM136.825 331.08C136.293 331.08 135.798 330.996 135.341 330.828C134.893 330.66 134.505 330.427 134.179 330.128C133.861 329.839 133.619 329.498 133.451 329.106L134.669 328.546C134.799 328.901 135.047 329.199 135.411 329.442C135.784 329.694 136.251 329.82 136.811 329.82C137.24 329.82 137.627 329.736 137.973 329.568C138.327 329.409 138.607 329.167 138.813 328.84C139.018 328.523 139.121 328.135 139.121 327.678V325.984L139.359 326.236C139.097 326.749 138.719 327.141 138.225 327.412C137.739 327.683 137.203 327.818 136.615 327.818C135.905 327.818 135.271 327.655 134.711 327.328C134.151 326.992 133.712 326.539 133.395 325.97C133.077 325.391 132.919 324.752 132.919 324.052C132.919 323.343 133.077 322.703 133.395 322.134C133.712 321.565 134.146 321.117 134.697 320.79C135.257 320.454 135.891 320.286 136.601 320.286C137.189 320.286 137.721 320.421 138.197 320.692C138.682 320.953 139.069 321.317 139.359 321.784L139.163 322.134V320.454H140.437V327.678C140.437 328.331 140.283 328.915 139.975 329.428C139.667 329.941 139.237 330.343 138.687 330.632C138.145 330.931 137.525 331.08 136.825 331.08ZM136.727 326.558C137.175 326.558 137.576 326.446 137.931 326.222C138.295 325.998 138.584 325.699 138.799 325.326C139.013 324.943 139.121 324.519 139.121 324.052C139.121 323.595 139.013 323.175 138.799 322.792C138.584 322.409 138.295 322.106 137.931 321.882C137.576 321.658 137.175 321.546 136.727 321.546C136.269 321.546 135.854 321.658 135.481 321.882C135.107 322.106 134.813 322.409 134.599 322.792C134.393 323.165 134.291 323.585 134.291 324.052C134.291 324.519 134.393 324.943 134.599 325.326C134.813 325.699 135.103 325.998 135.467 326.222C135.84 326.446 136.26 326.558 136.727 326.558ZM145.157 328.168C144.401 328.168 143.743 327.981 143.183 327.608C142.623 327.235 142.227 326.731 141.993 326.096L143.029 325.592C143.244 326.04 143.538 326.395 143.911 326.656C144.285 326.917 144.7 327.048 145.157 327.048C145.568 327.048 145.909 326.95 146.179 326.754C146.45 326.558 146.585 326.301 146.585 325.984C146.585 325.76 146.52 325.583 146.389 325.452C146.268 325.312 146.119 325.205 145.941 325.13C145.764 325.046 145.601 324.985 145.451 324.948L144.317 324.626C143.636 324.43 143.137 324.15 142.819 323.786C142.511 323.422 142.357 322.997 142.357 322.512C142.357 322.064 142.469 321.677 142.693 321.35C142.927 321.014 143.239 320.753 143.631 320.566C144.033 320.379 144.481 320.286 144.975 320.286C145.638 320.286 146.231 320.454 146.753 320.79C147.285 321.126 147.663 321.597 147.887 322.204L146.823 322.694C146.655 322.302 146.403 321.994 146.067 321.77C145.731 321.537 145.353 321.42 144.933 321.42C144.551 321.42 144.247 321.518 144.023 321.714C143.799 321.901 143.687 322.139 143.687 322.428C143.687 322.643 143.743 322.82 143.855 322.96C143.967 323.091 144.103 323.193 144.261 323.268C144.42 323.333 144.574 323.389 144.723 323.436L145.955 323.8C146.571 323.977 147.047 324.253 147.383 324.626C147.729 324.999 147.901 325.447 147.901 325.97C147.901 326.39 147.785 326.768 147.551 327.104C147.318 327.44 146.996 327.701 146.585 327.888C146.175 328.075 145.699 328.168 145.157 328.168Z" fill="#6A749C"/>
<rect width="352" height="908" transform="translate(284 54)" fill="#090C18"/>
<path opacity="0.4" d="M294 76C294 69.3726 299.373 64 306 64H614C620.627 64 626 69.3726 626 76V121C626 127.627 620.627 133 614 133H306C299.373 133 294 127.627 294 121V76Z" fill="#171A28"/>
<path opacity="0.4" d="M294 147C294 144.791 295.791 143 298 143H557C559.209 143 561 144.791 561 147V169C561 171.209 559.209 173 557 173H298C295.791 173 294 171.209 294 169V147Z" fill="#171A28"/>
</g>
<g filter="url(#filter1_bii_6155_40351)">
<path fill-rule="evenodd" clip-rule="evenodd" d="M14 2C8.47716 2 4 6.47715 4 12V54H899V12C899 6.47715 894.523 2 889 2H14Z" fill="#202124" fill-opacity="0.9"/>
</g>
<path d="M98 36.5C98.1165 36.5 98.3283 36.4574 98.5613 36.3298C103.316 33.7128 105 32.5213 105 29.3723V22.9681C105 22.0958 104.587 21.8298 103.93 21.5426C103.073 21.1702 99.5673 19.9255 98.7095 19.6277C98.4871 19.5532 98.2436 19.5 98 19.5C97.7564 19.5 97.5023 19.5745 97.2905 19.6277C96.4327 19.8404 92.9274 21.1809 92.0696 21.5426C91.413 21.8191 91 22.0958 91 22.9681V29.3723C91 32.5213 92.6838 33.7021 97.4387 36.3298C97.6717 36.4574 97.8835 36.5 98 36.5ZM98.2859 21.0957C99.6309 21.6383 101.887 22.4362 103.274 22.9043C103.454 22.9681 103.486 23.0638 103.486 23.2553V29C103.486 31.5851 102.352 32.266 98.5295 34.5638C98.2648 34.7234 98.1377 34.7553 98.0106 34.7553V21.0426C98.0847 21.0426 98.18 21.0532 98.2859 21.0957Z" fill="#737373"/>
<rect x="123" y="14" width="506" height="28" rx="5" fill="#474A4D"/>
<path d="M136.318 34.5012H142.631C143.515 34.5012 143.949 34.0675 143.949 33.1084V28.2545C143.949 27.4038 143.599 26.9618 142.898 26.8784V25.227C142.898 22.6666 141.18 21.499 139.479 21.499C137.769 21.499 136.059 22.6666 136.059 25.227V26.9034C135.4 27.0285 135 27.4622 135 28.2545V33.1084C135 34.0675 135.442 34.5012 136.318 34.5012ZM137.435 25.0769C137.435 23.584 138.386 22.8167 139.479 22.8167C140.563 22.8167 141.522 23.584 141.522 25.0769V26.8617L137.435 26.87V25.0769Z" fill="#9E9E9E"/>
<path d="M151.003 32V22.4023H152.38V26.1538H152.482C152.818 25.4175 153.479 24.9731 154.481 24.9731C156.024 24.9731 156.875 25.8936 156.875 27.5376V32H155.503V27.8613C155.503 26.7188 155.027 26.1538 154.018 26.1538C153.009 26.1538 152.38 26.8457 152.38 27.9565V32H151.003ZM161.4 32.0444C159.883 32.0444 159.261 31.5112 159.261 30.1846V26.1919H158.182V25.1064H159.261V23.3672H160.664V25.1064H162.143V26.1919H160.664V29.8545C160.664 30.5972 160.943 30.9019 161.623 30.9019C161.832 30.9019 161.953 30.8955 162.143 30.8765V31.9746C161.921 32.0127 161.667 32.0444 161.4 32.0444ZM166.377 32.0444C164.86 32.0444 164.238 31.5112 164.238 30.1846V26.1919H163.159V25.1064H164.238V23.3672H165.641V25.1064H167.12V26.1919H165.641V29.8545C165.641 30.5972 165.92 30.9019 166.599 30.9019C166.809 30.9019 166.929 30.8955 167.12 30.8765V31.9746C166.897 32.0127 166.644 32.0444 166.377 32.0444ZM168.726 34.2979V25.1064H170.103V26.1919H170.205C170.604 25.4365 171.36 24.9858 172.325 24.9858C174.064 24.9858 175.181 26.376 175.181 28.5469V28.5596C175.181 30.7432 174.077 32.1143 172.325 32.1143C171.379 32.1143 170.573 31.6509 170.205 30.9082H170.103V34.2979H168.726ZM171.938 30.9399C173.086 30.9399 173.778 30.0386 173.778 28.5596V28.5469C173.778 27.0615 173.086 26.1665 171.938 26.1665C170.789 26.1665 170.078 27.0742 170.078 28.5469V28.5596C170.078 30.0322 170.789 30.9399 171.938 30.9399ZM179.345 32.1333C177.682 32.1333 176.628 31.3525 176.495 30.1973V30.1909H177.873L177.879 30.1973C178.05 30.7178 178.552 31.0669 179.371 31.0669C180.221 31.0669 180.812 30.6797 180.812 30.1147V30.1021C180.812 29.6704 180.488 29.3784 179.688 29.1943L178.59 28.9404C177.289 28.6421 176.686 28.0518 176.686 27.0425V27.0361C176.686 25.8364 177.803 24.9731 179.364 24.9731C180.938 24.9731 181.948 25.7603 182.068 26.8838V26.8901H180.754V26.8774C180.621 26.395 180.132 26.0332 179.358 26.0332C178.603 26.0332 178.057 26.4077 178.057 26.96V26.9727C178.057 27.4043 178.374 27.6709 179.148 27.855L180.24 28.1025C181.567 28.4136 182.202 28.9785 182.202 29.9751V29.9878C182.202 31.2637 180.983 32.1333 179.345 32.1333ZM184.906 27.2964C184.379 27.2964 183.973 26.8901 183.973 26.376C183.973 25.8555 184.379 25.4492 184.906 25.4492C185.433 25.4492 185.833 25.8555 185.833 26.376C185.833 26.8901 185.433 27.2964 184.906 27.2964ZM184.906 32.0952C184.379 32.0952 183.973 31.689 183.973 31.1748C183.973 30.6543 184.379 30.248 184.906 30.248C185.433 30.248 185.833 30.6543 185.833 31.1748C185.833 31.689 185.433 32.0952 184.906 32.0952ZM191.05 22.4023L188.251 34.2979H186.956L189.755 22.4023H191.05ZM195.151 22.4023L192.352 34.2979H191.057L193.856 22.4023H195.151ZM198.661 32.1143C196.928 32.1143 195.805 30.7241 195.805 28.5596V28.5469C195.805 26.3633 196.909 24.9858 198.661 24.9858C199.607 24.9858 200.413 25.4556 200.781 26.1982H200.889V22.4023H202.26V32H200.889V30.9146H200.781C200.381 31.6699 199.626 32.1143 198.661 32.1143ZM199.055 30.9399C200.204 30.9399 200.908 30.0322 200.908 28.5596V28.5469C200.908 27.0742 200.197 26.1665 199.055 26.1665C197.899 26.1665 197.208 27.0679 197.208 28.5469V28.5596C197.208 30.0386 197.899 30.9399 199.055 30.9399ZM206.202 32.1143C204.888 32.1143 203.917 31.3145 203.917 30.064V30.0513C203.917 28.8198 204.844 28.1025 206.488 28.001L208.354 27.8931V27.2837C208.354 26.5283 207.878 26.1094 206.945 26.1094C206.183 26.1094 205.682 26.3887 205.517 26.8774L205.51 26.9028H204.184L204.19 26.8584C204.355 25.7285 205.44 24.9731 207.008 24.9731C208.741 24.9731 209.719 25.8364 209.719 27.2837V32H208.354V31.0225H208.246C207.84 31.7207 207.116 32.1143 206.202 32.1143ZM205.288 30.0068C205.288 30.6416 205.828 31.0161 206.57 31.0161C207.599 31.0161 208.354 30.3433 208.354 29.4546V28.8643L206.672 28.9722C205.72 29.0293 205.288 29.3721 205.288 29.9941V30.0068ZM211.661 32V25.1064H213.039V26.1538H213.14C213.477 25.4175 214.137 24.9731 215.14 24.9731C216.682 24.9731 217.533 25.8936 217.533 27.5376V32H216.162V27.8613C216.162 26.7188 215.686 26.1538 214.676 26.1538C213.667 26.1538 213.039 26.8457 213.039 27.9565V32H211.661ZM221.348 32.1143C220.034 32.1143 219.062 31.3145 219.062 30.064V30.0513C219.062 28.8198 219.989 28.1025 221.633 28.001L223.5 27.8931V27.2837C223.5 26.5283 223.023 26.1094 222.09 26.1094C221.329 26.1094 220.827 26.3887 220.662 26.8774L220.656 26.9028H219.329L219.335 26.8584C219.5 25.7285 220.586 24.9731 222.154 24.9731C223.887 24.9731 224.864 25.8364 224.864 27.2837V32H223.5V31.0225H223.392C222.985 31.7207 222.262 32.1143 221.348 32.1143ZM220.434 30.0068C220.434 30.6416 220.973 31.0161 221.716 31.0161C222.744 31.0161 223.5 30.3433 223.5 29.4546V28.8643L221.817 28.9722C220.865 29.0293 220.434 29.3721 220.434 29.9941V30.0068ZM226.807 32V25.1064H228.184V26.1538H228.286C228.622 25.4175 229.282 24.9731 230.285 24.9731C231.828 24.9731 232.678 25.8936 232.678 27.5376V32H231.307V27.8613C231.307 26.7188 230.831 26.1538 229.822 26.1538C228.812 26.1538 228.184 26.8457 228.184 27.9565V32H226.807ZM237.515 34.4312C235.763 34.4312 234.684 33.6631 234.519 32.5142L234.532 32.5015H235.922L235.928 32.5142C236.042 32.9902 236.601 33.3267 237.534 33.3267C238.67 33.3267 239.343 32.7935 239.343 31.854V30.4956H239.242C238.823 31.2446 238.061 31.6636 237.115 31.6636C235.344 31.6636 234.252 30.2988 234.252 28.3564V28.3438C234.252 26.376 235.351 24.9858 237.141 24.9858C238.105 24.9858 238.854 25.4619 239.254 26.2363H239.337V25.1064H240.708V31.8604C240.708 33.4282 239.47 34.4312 237.515 34.4312ZM237.496 30.5273C238.664 30.5273 239.369 29.6387 239.369 28.3501V28.3374C239.369 27.0552 238.658 26.1538 237.496 26.1538C236.322 26.1538 235.662 27.0552 235.662 28.3374V28.3501C235.662 29.6323 236.322 30.5273 237.496 30.5273ZM243.749 32.0952C243.222 32.0952 242.815 31.689 242.815 31.1748C242.815 30.6543 243.222 30.248 243.749 30.248C244.275 30.248 244.675 30.6543 244.675 31.1748C244.675 31.689 244.275 32.0952 243.749 32.0952ZM249.296 32.1333C247.633 32.1333 246.58 31.3525 246.446 30.1973V30.1909H247.824L247.83 30.1973C248.001 30.7178 248.503 31.0669 249.322 31.0669C250.172 31.0669 250.763 30.6797 250.763 30.1147V30.1021C250.763 29.6704 250.439 29.3784 249.639 29.1943L248.541 28.9404C247.24 28.6421 246.637 28.0518 246.637 27.0425V27.0361C246.637 25.8364 247.754 24.9731 249.315 24.9731C250.89 24.9731 251.899 25.7603 252.02 26.8838V26.8901H250.706V26.8774C250.572 26.395 250.083 26.0332 249.309 26.0332C248.554 26.0332 248.008 26.4077 248.008 26.96V26.9727C248.008 27.4043 248.325 27.6709 249.1 27.855L250.191 28.1025C251.518 28.4136 252.153 28.9785 252.153 29.9751V29.9878C252.153 31.2637 250.934 32.1333 249.296 32.1333ZM253.797 34.2979V25.1064H255.174V26.1919H255.276C255.676 25.4365 256.431 24.9858 257.396 24.9858C259.135 24.9858 260.252 26.376 260.252 28.5469V28.5596C260.252 30.7432 259.148 32.1143 257.396 32.1143C256.45 32.1143 255.644 31.6509 255.276 30.9082H255.174V34.2979H253.797ZM257.009 30.9399C258.158 30.9399 258.85 30.0386 258.85 28.5596V28.5469C258.85 27.0615 258.158 26.1665 257.009 26.1665C255.86 26.1665 255.149 27.0742 255.149 28.5469V28.5596C255.149 30.0322 255.86 30.9399 257.009 30.9399ZM263.801 32.1143C262.487 32.1143 261.516 31.3145 261.516 30.064V30.0513C261.516 28.8198 262.442 28.1025 264.086 28.001L265.953 27.8931V27.2837C265.953 26.5283 265.477 26.1094 264.543 26.1094C263.782 26.1094 263.28 26.3887 263.115 26.8774L263.109 26.9028H261.782L261.789 26.8584C261.954 25.7285 263.039 24.9731 264.607 24.9731C266.34 24.9731 267.317 25.8364 267.317 27.2837V32H265.953V31.0225H265.845C265.438 31.7207 264.715 32.1143 263.801 32.1143ZM262.887 30.0068C262.887 30.6416 263.426 31.0161 264.169 31.0161C265.197 31.0161 265.953 30.3433 265.953 29.4546V28.8643L264.271 28.9722C263.318 29.0293 262.887 29.3721 262.887 29.9941V30.0068ZM272.161 32.1333C270.148 32.1333 268.917 30.7622 268.917 28.5342V28.5215C268.917 26.3379 270.142 24.9731 272.154 24.9731C273.887 24.9731 274.922 25.9507 275.112 27.29V27.3218L273.792 27.3281L273.786 27.3091C273.633 26.6299 273.075 26.1221 272.161 26.1221C271.012 26.1221 270.32 27.0361 270.32 28.5215V28.5342C270.32 30.0576 271.024 30.9844 272.161 30.9844C273.024 30.9844 273.557 30.5908 273.779 29.8481L273.792 29.8164H275.112L275.1 29.8735C274.852 31.2129 273.868 32.1333 272.161 32.1333ZM279.568 32.1333C277.55 32.1333 276.331 30.7559 276.331 28.5723V28.5659C276.331 26.4141 277.575 24.9731 279.499 24.9731C281.422 24.9731 282.603 26.3633 282.603 28.4326V28.915H277.715C277.74 30.2354 278.464 31.0034 279.6 31.0034C280.482 31.0034 281.009 30.5654 281.174 30.21L281.2 30.1592L282.526 30.1528L282.514 30.21C282.285 31.1177 281.333 32.1333 279.568 32.1333ZM279.505 26.103C278.565 26.103 277.854 26.7441 277.734 27.9312H281.238C281.13 26.6997 280.438 26.103 279.505 26.103ZM286.754 32.1143C285.021 32.1143 283.897 30.7241 283.897 28.5596V28.5469C283.897 26.3633 285.002 24.9858 286.754 24.9858C287.7 24.9858 288.506 25.4556 288.874 26.1982H288.982V22.4023H290.353V32H288.982V30.9146H288.874C288.474 31.6699 287.719 32.1143 286.754 32.1143ZM287.147 30.9399C288.296 30.9399 289.001 30.0322 289.001 28.5596V28.5469C289.001 27.0742 288.29 26.1665 287.147 26.1665C285.992 26.1665 285.3 27.0679 285.3 28.5469V28.5596C285.3 30.0386 285.992 30.9399 287.147 30.9399ZM292.892 32V26.1919H291.756V25.1064H292.892V24.3828C292.892 23.0117 293.584 22.3389 295.025 22.3389C295.33 22.3389 295.596 22.3579 295.837 22.4023V23.4116C295.71 23.3926 295.526 23.3799 295.311 23.3799C294.549 23.3799 294.25 23.748 294.25 24.4463V25.1064H295.78V26.1919H294.263V32H292.892ZM297.691 32.0952C297.164 32.0952 296.758 31.689 296.758 31.1748C296.758 30.6543 297.164 30.248 297.691 30.248C298.218 30.248 298.618 30.6543 298.618 31.1748C298.618 31.689 298.218 32.0952 297.691 32.0952ZM300.731 32V25.1064H302.109V26.1538H302.21C302.547 25.4175 303.207 24.9731 304.21 24.9731C305.752 24.9731 306.603 25.8936 306.603 27.5376V32H305.232V27.8613C305.232 26.7188 304.756 26.1538 303.747 26.1538C302.737 26.1538 302.109 26.8457 302.109 27.9565V32H300.731ZM311.421 32.1333C309.402 32.1333 308.184 30.7559 308.184 28.5723V28.5659C308.184 26.4141 309.428 24.9731 311.351 24.9731C313.274 24.9731 314.455 26.3633 314.455 28.4326V28.915H309.567C309.593 30.2354 310.316 31.0034 311.453 31.0034C312.335 31.0034 312.862 30.5654 313.027 30.21L313.052 30.1592L314.379 30.1528L314.366 30.21C314.138 31.1177 313.186 32.1333 311.421 32.1333ZM311.357 26.103C310.418 26.103 309.707 26.7441 309.586 27.9312H313.09C312.982 26.6997 312.291 26.103 311.357 26.103ZM318.695 32.0444C317.178 32.0444 316.556 31.5112 316.556 30.1846V26.1919H315.477V25.1064H316.556V23.3672H317.959V25.1064H319.438V26.1919H317.959V29.8545C317.959 30.5972 318.238 30.9019 318.917 30.9019C319.127 30.9019 319.248 30.8955 319.438 30.8765V31.9746C319.216 32.0127 318.962 32.0444 318.695 32.0444ZM324.148 22.4023L321.349 34.2979H320.054L322.853 22.4023H324.148Z" fill="white"/>
<path d="M611.994 22.3545L614.33 24.6907L611.994 27.0269M617 28.9737C617 31.5542 614.908 33.6462 612.328 33.6462C609.747 33.6462 607.655 31.5542 607.655 28.9737C607.655 26.3932 609.747 24.3013 612.328 24.3013C612.874 24.3013 613.496 24.3013 614.275 24.6907" stroke="#737373" stroke-linecap="round" stroke-linejoin="round"/>
<path d="M35.5 28C35.5 31.0376 33.0376 33.5 30 33.5C26.9624 33.5 24.5 31.0376 24.5 28C24.5 24.9624 26.9624 22.5 30 22.5C33.0376 22.5 35.5 24.9624 35.5 28Z" fill="#FF5F57" stroke="#E14640"/>
<path d="M55.5 28C55.5 31.0376 53.0376 33.5 50 33.5C46.9624 33.5 44.5 31.0376 44.5 28C44.5 24.9624 46.9624 22.5 50 22.5C53.0376 22.5 55.5 24.9624 55.5 28Z" fill="#FFBD2E" stroke="#DFA123"/>
<path d="M75.5 28C75.5 31.0376 73.0376 33.5 70 33.5C66.9624 33.5 64.5 31.0376 64.5 28C64.5 24.9624 66.9624 22.5 70 22.5C73.0376 22.5 75.5 24.9624 75.5 28Z" fill="#28CA42" stroke="#1DAD2C"/>
</g>
<defs>
<filter id="filter0_d_6155_40351" x="0" y="0" width="640" height="880" filterUnits="userSpaceOnUse" color-interpolation-filters="sRGB">
<feFlood flood-opacity="0" result="BackgroundImageFix"/>
<feColorMatrix in="SourceAlpha" type="matrix" values="0 0 0 0 0 0 0 0 0 0 0 0 0 0 0 0 0 0 127 0" result="hardAlpha"/>
<feMorphology radius="2" operator="dilate" in="SourceAlpha" result="effect1_dropShadow_6155_40351"/>
<feOffset dy="2"/>
<feGaussianBlur stdDeviation="1"/>
<feComposite in2="hardAlpha" operator="out"/>
<feColorMatrix type="matrix" values="0 0 0 0 0 0 0 0 0 0 0 0 0 0 0 0 0 0 0.16 0"/>
<feBlend mode="normal" in2="BackgroundImageFix" result="effect1_dropShadow_6155_40351"/>
<feBlend mode="normal" in="SourceGraphic" in2="effect1_dropShadow_6155_40351" result="shape"/>
</filter>
<filter id="filter1_bii_6155_40351" x="-63.957" y="-65.957" width="1030.91" height="187.914" filterUnits="userSpaceOnUse" color-interpolation-filters="sRGB">
<feFlood flood-opacity="0" result="BackgroundImageFix"/>
<feGaussianBlur in="BackgroundImageFix" stdDeviation="33.9785"/>
<feComposite in2="SourceAlpha" operator="in" result="effect1_backgroundBlur_6155_40351"/>
<feBlend mode="normal" in="SourceGraphic" in2="effect1_backgroundBlur_6155_40351" result="shape"/>
<feColorMatrix in="SourceAlpha" type="matrix" values="0 0 0 0 0 0 0 0 0 0 0 0 0 0 0 0 0 0 127 0" result="hardAlpha"/>
<feOffset dy="1"/>
<feComposite in2="hardAlpha" operator="arithmetic" k2="-1" k3="1"/>
<feColorMatrix type="matrix" values="0 0 0 0 1 0 0 0 0 1 0 0 0 0 1 0 0 0 0.2 0"/>
<feBlend mode="normal" in2="shape" result="effect2_innerShadow_6155_40351"/>
<feColorMatrix in="SourceAlpha" type="matrix" values="0 0 0 0 0 0 0 0 0 0 0 0 0 0 0 0 0 0 127 0" result="hardAlpha"/>
<feOffset dy="-1"/>
<feComposite in2="hardAlpha" operator="arithmetic" k2="-1" k3="1"/>
<feColorMatrix type="matrix" values="0 0 0 0 0 0 0 0 0 0 0 0 0 0 0 0 0 0 0.1 0"/>
<feBlend mode="normal" in2="effect2_innerShadow_6155_40351" result="effect3_innerShadow_6155_40351"/>
</filter>
<clipPath id="clip0_6155_40351">
<rect width="632" height="872" fill="white" transform="translate(4 2)"/>
</clipPath>
<clipPath id="clip1_6155_40351">
<rect width="632" height="1024" fill="white" transform="translate(4 54)"/>
</clipPath>
</defs>
</svg>
